<svg width="59" height="12" viewBox="0 0 59 12" fill="none" xmlns="http://www.w3.org/2000/svg">
<path d="M14.655 0.00195312C14.8383 0.0246942 15.0214 0.0412332 15.2025 0.0681092C16.3176 0.239701 17.245 0.733805 17.9913 1.52147C18.6558 2.22231 19.0355 3.0472 19.1549 3.97752C19.2365 4.62254 19.1327 5.25102 18.9252 5.86503C18.3665 7.51687 17.2074 8.5857 15.3902 8.98884C15.0525 9.06326 14.6969 9.08187 14.3481 9.08807C13.445 9.10047 12.5441 9.09221 11.6411 9.09221C11.6013 9.09221 11.5594 9.08807 11.502 9.086C11.5528 8.89994 11.5991 8.72835 11.6477 8.55469C11.7824 8.06059 11.9171 7.56441 12.0562 7.07238C12.2129 6.51419 12.7252 6.14206 13.339 6.13379C13.6592 6.12966 13.9815 6.13379 14.3017 6.13379C15.1341 6.12966 15.8252 5.58801 15.9754 4.821C16.1675 3.84727 15.3836 2.95417 14.3238 2.94384C13.7497 2.93763 13.1756 2.94384 12.6016 2.93969C12.5132 2.93969 12.4779 2.96657 12.4558 3.04513C12.0253 4.55845 11.5925 6.07176 11.1597 7.58509C10.8286 8.74903 10.4951 9.91089 10.1617 11.0728C10.0734 11.3808 9.88355 11.6268 9.60092 11.8046C9.43311 11.9121 9.25427 11.9721 9.0401 11.97C8.29159 11.9617 7.5453 11.9659 6.7968 11.9659H6.66211C6.67094 11.9224 6.67536 11.8894 6.68419 11.8563C7.45699 9.14183 8.22976 6.42736 9.00256 3.71289C9.2631 2.80119 9.51923 1.88947 9.78418 0.979822C9.94095 0.442305 10.3141 0.117726 10.908 0.0226269C10.9257 0.0205595 10.9412 0.00815526 10.9588 0.00195312C12.1909 0.00195312 13.4207 0.00195312 14.6527 0.00195312H14.655Z" fill="#FFA800"/>
<path d="M58.0017 0.998543C57.9399 1.19701 57.8737 1.39341 57.8162 1.59395C57.0876 4.11821 56.3832 6.65075 55.6259 9.16882C55.1866 10.6284 54.1068 11.5174 52.5502 11.904C52.4332 11.9329 52.314 11.9577 52.1947 11.9639C52.0114 11.9742 51.826 11.966 51.625 11.966C51.6781 11.7778 51.7266 11.6001 51.7774 11.4243C52.7953 7.85603 53.8132 4.28774 54.8289 0.719448C54.9414 0.322511 55.2043 0.0888973 55.6391 0.0206738C55.6568 0.0186064 55.6745 0.00826951 55.69 0C56.317 0 56.9441 0 57.5712 0C57.739 0.0392801 57.8825 0.115773 58.0017 0.233613C58.0017 0.487901 58.0017 0.742189 58.0017 0.996475V0.998543Z" fill="#FFA800"/>
<path d="M58.0018 0.235567C57.8826 0.117726 57.7391 0.0412332 57.5713 0.00195312H58.0018V0.235567Z" fill="white"/>
<path d="M51.5852 9.3072C51.4484 9.77857 51.3203 10.2293 51.188 10.68C51.1416 10.8391 51.1018 11.0025 51.0422 11.1575C50.8853 11.5627 50.5807 11.8273 50.1369 11.9472C50.0905 11.9597 50.0397 11.9638 49.9933 11.9638C47.7986 11.9638 45.6061 11.9679 43.4115 11.9597C43.014 11.9597 42.6541 11.8067 42.3251 11.6041C41.5214 11.1058 41.1108 10.3967 41.0864 9.49741C41.0776 9.16249 41.1924 8.84412 41.2851 8.52574C41.5854 7.48171 41.8569 6.43148 42.1948 5.39779C42.6386 4.04574 43.6388 3.2436 45.1292 2.99137C45.3058 2.96036 45.4891 2.95209 45.6702 2.95209C47.0832 2.95002 48.4942 2.95209 49.9072 2.95209C51.2165 2.95209 52.2765 3.75217 52.5459 4.94917C52.6318 5.32957 52.6143 5.70584 52.5105 6.08004C52.4112 6.43769 52.3117 6.79535 52.2035 7.15093C51.9651 7.93447 51.2232 8.50506 50.3599 8.57949C50.2362 8.58983 50.1103 8.59603 49.9868 8.59603C48.4722 8.59603 46.9597 8.59603 45.4449 8.59603C45.4008 8.59603 45.3544 8.59603 45.3015 8.59603C45.3058 8.56502 45.3058 8.54021 45.3125 8.51953C45.4118 8.17222 45.509 7.82489 45.6128 7.47965C45.7695 6.9504 46.2332 6.60309 46.8205 6.59067C47.4653 6.57828 48.1121 6.58862 48.7569 6.58447C48.8431 6.58447 48.9357 6.57828 49.0108 6.54726C49.2604 6.44595 49.364 5.95806 49.1853 5.76786C49.0948 5.67275 48.9799 5.64796 48.8496 5.64796C48.0636 5.64796 47.2798 5.64796 46.4938 5.64796C46.3194 5.64796 46.1449 5.65622 45.9727 5.64796C45.5995 5.62934 45.2705 5.93945 45.1977 6.1958C44.9592 7.0393 44.7163 7.88279 44.4801 8.72627C44.3918 9.04052 44.6302 9.30514 44.99 9.30514C47.1341 9.30514 49.2802 9.30514 51.4242 9.30514H51.5876L51.5852 9.3072Z" fill="#FFA800"/>
<path d="M25.7678 6.55811C25.7369 6.66974 25.7127 6.75658 25.6884 6.8434C25.6133 7.11216 25.5361 7.38093 25.461 7.64968C25.3086 8.1934 24.7676 8.59241 24.1627 8.58207C23.5246 8.57173 22.8864 8.57794 22.2484 8.58207C21.9769 8.58207 21.7979 8.77639 21.8554 9.01002C21.8884 9.14646 21.9834 9.23122 22.1269 9.26637C22.1844 9.28084 22.2461 9.28292 22.3057 9.28292C23.3016 9.28292 24.2996 9.28292 25.2954 9.28292C25.3947 9.28292 25.5007 9.26843 25.5934 9.23743C25.7326 9.19194 25.8164 9.09065 25.8563 8.95419C26.1389 7.96806 26.4258 6.98398 26.7107 5.99785C26.7792 5.76216 26.6732 5.63192 26.4081 5.63192C24.708 5.63192 23.0101 5.63192 21.31 5.63192C20.6807 5.63192 20.1795 5.30114 20.0007 4.76983C19.9189 4.52794 19.9101 4.28606 19.9808 4.04004C20.0735 3.7072 20.1706 3.37228 20.2613 3.03943C20.2811 2.96915 20.3142 2.94434 20.3936 2.94434C22.7385 2.94639 25.0834 2.95053 27.4283 2.94639C28.5896 2.94639 29.8128 3.81676 29.9961 5.10267C30.0513 5.49754 29.9939 5.88001 29.8814 6.26247C29.4685 7.67862 29.0754 9.09891 28.6515 10.513C28.413 11.311 27.8235 11.7865 26.9601 11.9602C26.9161 11.9684 26.8697 11.9684 26.8254 11.9684C25.0128 11.9684 23.2001 11.9684 21.3895 11.9684C19.9586 11.9684 18.8414 11.0981 18.5876 9.78321C18.5014 9.33667 18.5744 8.90251 18.7067 8.46836C19.0225 7.4326 19.9057 6.71109 21.045 6.58084C21.1598 6.56845 21.2791 6.56017 21.3962 6.56017C22.8048 6.56017 24.2135 6.56017 25.6221 6.56017H25.7701L25.7678 6.55811Z" fill="#FFA800"/>
<path d="M38.0003 11.966C37.6801 11.966 37.3578 11.966 37.0376 11.966C36.7594 11.966 36.5342 11.7675 36.5275 11.505C36.5254 11.4182 36.5386 11.3293 36.5629 11.2445C36.8786 10.1219 37.1987 8.99933 37.5145 7.87467C37.7552 7.01672 37.159 6.11327 36.2316 5.93134C36.0992 5.90447 35.9623 5.88999 35.8276 5.88999C35.2756 5.88586 34.7258 5.88999 34.1738 5.88586C34.0811 5.88586 34.0436 5.91274 34.0215 5.99543C33.5181 7.76717 33.0125 9.53891 32.5091 11.3127C32.4472 11.5298 32.3347 11.7097 32.1359 11.8378C32.0057 11.9226 31.8709 11.9702 31.7054 11.9681C31.0629 11.9619 30.4226 11.966 29.7799 11.966C29.4466 11.966 29.1905 11.6704 29.2743 11.3644C29.4311 10.7835 29.5967 10.2067 29.7601 9.62781C30.3783 7.44672 30.9966 5.26564 31.6147 3.08456C31.6346 3.01427 31.6501 2.9688 31.7494 2.97086C33.2267 2.97499 34.7016 2.96465 36.1787 2.97706C37.265 2.98533 38.2211 3.34918 39.0512 3.99628C39.9918 4.72812 40.535 5.67293 40.7072 6.79964C40.8066 7.45293 40.7161 8.08969 40.5261 8.7223C40.2679 9.58233 40.0294 10.4486 39.7865 11.3127C39.7224 11.5422 39.5966 11.7241 39.3824 11.8544C39.2589 11.9288 39.133 11.9722 38.9806 11.9702C38.656 11.9619 38.3315 11.9681 38.007 11.9681L38.0003 11.966Z" fill="#FFA800"/>
<path d="M8.41327 2.97075C8.34263 3.22711 8.27859 3.46899 8.21014 3.71088C8.09974 4.10575 7.98713 4.50062 7.87673 4.89548C7.70452 5.51569 7.20551 5.87956 6.51883 5.88162C5.97567 5.88162 5.43251 5.88783 4.88715 5.88162C4.07681 5.86922 3.46962 6.4088 3.2665 6.98974C2.93309 7.94073 3.58223 8.93101 4.64206 9.06745C4.85844 9.09433 5.07924 9.08399 5.29782 9.08605C5.50096 9.08812 5.7063 9.08399 5.90944 9.08605C6.31791 9.09639 6.57403 9.41064 6.47026 9.78069C6.27376 10.4774 6.07062 11.1741 5.8719 11.8708C5.85203 11.939 5.82332 11.9659 5.74163 11.9638C5.22055 11.9597 4.69946 11.9763 4.17838 11.9576C3.73017 11.9411 3.30182 11.8212 2.89334 11.6496C1.35218 11.0046 0.39834 9.91094 0.0737672 8.35628C-0.065335 7.69058 0.00311217 7.03315 0.188582 6.37779C0.645631 4.75283 1.72974 3.684 3.42988 3.15681C3.82952 3.03278 4.24242 2.97075 4.66414 2.96869C5.87632 2.96662 7.0885 2.96869 8.30066 2.96869C8.33158 2.96869 8.36029 2.96869 8.41327 2.96869V2.97075Z" fill="#FFA800"/>
</svg>
