<svg width="58" height="17" viewBox="0 0 58 17" fill="none" xmlns="http://www.w3.org/2000/svg">
<path fill-rule="evenodd" clip-rule="evenodd" d="M1.62125 16.758C0.729548 16.758 0 16.0317 0 15.1439V1.61411C0 0.726306 0.729548 0 1.62125 0H3.91548L7.79408 4.4812C7.87278 4.57178 7.98363 4.61818 8.09518 4.61828L23.1655 4.61945V15.1439C23.1655 16.0317 22.4359 16.758 21.5443 16.758H1.62125ZM6.59008 1.87553L8.27665 3.82414H23.1655V3.48973C23.1655 2.60193 22.436 1.87553 21.5443 1.87553H6.59008ZM8.43914 13.7877L10.5164 11.142H9.54925V7.19204H7.32898V11.142H6.36181L8.43914 13.7877ZM14.7263 7.19209L12.649 9.8379H13.6162V13.7878H15.8365V9.8379H16.8037L14.7263 7.19209Z" fill="#2A77FF"/>
<path d="M28.0259 16.5468C27.1696 16.5468 26.4746 15.8518 26.4746 14.9955V7.75632C26.4746 5.76037 28.0983 4.13672 30.0942 4.13672H33.1967C34.053 4.13672 34.748 4.83168 34.748 5.68798C34.748 6.54427 34.053 7.23924 33.1967 7.23924H30.0942C29.8088 7.23924 29.5771 7.47089 29.5771 7.75632V14.9955C29.5771 15.8518 28.8822 16.5468 28.0259 16.5468Z" fill="#2A77FF"/>
<path d="M50.7778 16.5468C49.9215 16.5468 49.2266 15.8518 49.2266 14.9955V5.68798C49.2266 4.83168 49.9215 4.13672 50.7778 4.13672H53.3633C55.6446 4.13672 57.4999 5.99202 57.4999 8.27341C57.4999 10.5548 55.6446 12.4101 53.3633 12.4101H52.3291V14.9955C52.3291 15.8518 51.6341 16.5468 50.7778 16.5468ZM52.3291 9.30758H53.3633C53.932 9.30758 54.3974 8.8422 54.3974 8.27341C54.3974 7.70461 53.932 7.23924 53.3633 7.23924H52.3291V9.30758Z" fill="#2A77FF"/>
<path d="M33.1967 12.4101H28.0259C27.1696 12.4101 26.4746 11.7152 26.4746 10.8589C26.4746 10.0026 27.1696 9.30762 28.0259 9.30762H33.1967C34.053 9.30762 34.748 10.0026 34.748 10.8589C34.748 11.7152 34.053 12.4101 33.1967 12.4101Z" fill="#2A77FF"/>
<path d="M41.9873 16.5468C41.131 16.5468 40.436 15.8518 40.436 14.9955V5.68798C40.436 4.83168 41.131 4.13672 41.9873 4.13672C42.8436 4.13672 43.5386 4.83168 43.5386 5.68798V14.9955C43.5386 15.8518 42.8436 16.5468 41.9873 16.5468Z" fill="#2A77FF"/>
<path d="M45.6069 7.23924H38.3677C37.5114 7.23924 36.8164 6.54427 36.8164 5.68798C36.8164 4.83168 37.5114 4.13672 38.3677 4.13672H45.6069C46.4632 4.13672 47.1581 4.83168 47.1581 5.68798C47.1581 6.54427 46.4632 7.23924 45.6069 7.23924Z" fill="#2A77FF"/>
</svg>
