<svg width="20" height="20" viewBox="0 0 20 20" fill="none" xmlns="http://www.w3.org/2000/svg">
<path d="M11.4746 13.6371C11.7337 13.8961 11.7522 14.3045 11.5302 14.5849L8.94927 17.1726C7.27559 18.8463 4.56203 18.8463 2.88835 17.1726C1.25272 15.537 1.21554 12.9082 2.77683 11.2274L5.41373 8.5863C5.69268 8.30735 6.14494 8.30735 6.42389 8.5863C6.68291 8.84532 6.70141 9.25378 6.47939 9.53415L3.89851 12.1218C2.78272 13.2376 2.78272 15.0467 3.89851 16.1624C4.98048 17.2444 6.71433 17.2772 7.83581 16.2608L10.4645 13.6371C10.7434 13.3581 11.1957 13.3581 11.4746 13.6371ZM17.0305 3.03046C18.6661 4.6661 18.7033 7.29489 17.142 8.97567L14.5051 11.6168C14.2262 11.8957 13.7739 11.8957 13.495 11.6168C13.2359 11.3577 13.2174 10.9493 13.4394 10.6689L16.0203 8.08122C17.1361 6.96544 17.1361 5.15639 16.0203 4.04061C14.9384 2.95864 13.2045 2.92585 12.083 3.94225L9.45434 6.56599C9.1754 6.84494 8.72314 6.84494 8.44419 6.56599C8.18517 6.30697 8.16667 5.89851 8.38869 5.61814L10.9696 3.03046C12.6432 1.35678 15.3568 1.35678 17.0305 3.03046Z" fill="white"/>
<path d="M13.495 6.56599C13.754 6.82501 13.7725 7.23347 13.5505 7.51384L7.43406 13.6371C7.15511 13.916 6.70285 13.916 6.42391 13.6371C6.16489 13.378 6.14638 12.9696 6.3684 12.6892L12.4848 6.56599C12.7638 6.28704 13.216 6.28704 13.495 6.56599Z" fill="white"/>
</svg>
