<svg width="18" height="18" viewBox="0 0 18 18" fill="none" xmlns="http://www.w3.org/2000/svg">
<path d="M8.75 0C7.01942 0 5.32769 0.513179 3.88876 1.47464C2.44983 2.4361 1.32832 3.80267 0.666058 5.40152C0.00379123 7.00037 -0.169488 8.75971 0.168133 10.457C0.505753 12.1544 1.33911 13.7135 2.56282 14.9372C3.78653 16.1609 5.34563 16.9942 7.04296 17.3319C8.7403 17.6695 10.4996 17.4962 12.0985 16.8339C13.6973 16.1717 15.0639 15.0502 16.0254 13.6112C16.9868 12.1723 17.5 10.4806 17.5 8.75C17.4974 6.43015 16.5747 4.20607 14.9343 2.56569C13.2939 0.925308 11.0698 0.00260048 8.75 0ZM15.4533 5.40573C14.4091 5.29469 13.2291 5.18971 11.9346 5.1136C11.6771 3.91369 11.3416 2.73184 10.9304 1.57554C11.9042 1.87477 12.8072 2.36851 13.5846 3.02687C14.362 3.68524 14.9978 4.49452 15.4533 5.40573ZM8.0037 1.28781C8.49989 1.23778 8.99985 1.23778 9.49604 1.28781C9.97091 2.51169 10.3559 3.76856 10.6481 5.04843C9.44553 4.99941 8.17254 4.97977 6.86207 5.00218C7.15294 3.73825 7.53447 2.49692 8.0037 1.28781ZM6.57002 1.57543C6.16732 2.70758 5.83722 3.86426 5.58171 5.03841C4.43474 5.08316 3.26634 5.17506 2.09702 5.30144C2.55803 4.41463 3.19097 3.62845 3.95892 2.98875C4.72687 2.34904 5.61448 1.8686 6.57 1.57543H6.57002ZM1.55939 6.63219C2.82144 6.4764 4.08895 6.36207 5.33865 6.30863C5.06994 7.9168 4.97699 9.54944 5.06144 11.1777C3.90161 11.1221 2.7284 11.0138 1.55992 10.8699C1.15044 9.48704 1.15026 8.01516 1.55942 6.63219H1.55939ZM2.09799 12.2006C3.12792 12.3116 4.15716 12.3964 5.17149 12.4434C5.30559 13.5395 5.54018 14.6208 5.87229 15.6739C4.247 14.9927 2.91162 13.7638 2.09801 12.2006H2.09799ZM10.1514 16.1139C9.22563 16.2934 8.27401 16.2933 7.34826 16.1139C6.90668 14.9438 6.59936 13.7274 6.4322 12.4879C6.93334 12.5001 7.43095 12.5079 7.92024 12.5079C9.0138 12.5079 10.0696 12.4782 11.0765 12.431C10.9107 13.6901 10.6002 14.9259 10.1514 16.1139H10.1514ZM11.1912 11.1594C9.66488 11.2348 8.01622 11.2687 6.31241 11.2252C6.21618 9.56764 6.31483 7.90454 6.60634 6.27C8.09952 6.23948 9.54821 6.26573 10.9044 6.32722C11.1839 7.92174 11.2801 9.54299 11.1912 11.1594ZM11.6276 15.674C11.9673 14.5946 12.2049 13.4858 12.3373 12.362C13.4754 12.2888 14.5188 12.1945 15.4529 12.0952C14.6466 13.707 13.2895 14.9766 11.6276 15.6739V15.674ZM12.4438 11.0875C12.5182 9.51852 12.4279 7.94602 12.1744 6.39584C13.5984 6.48529 14.8745 6.6074 15.9661 6.73111C16.3406 8.05138 16.3405 9.44982 15.9658 10.77C14.9439 10.8858 13.7592 11.0001 12.4438 11.0875Z" fill="white"/>
</svg>
