<svg width="24" height="24" viewBox="0 0 24 24" fill="none" xmlns="http://www.w3.org/2000/svg">
<path d="M14.1988 11.9803L23.5439 21.3257C24.1521 21.9336 24.1521 22.9164 23.5439 23.5243C22.936 24.1322 21.9532 24.1322 21.3453 23.5243L11.9999 14.1789L2.65474 23.5243C2.04658 24.1322 1.064 24.1322 0.456124 23.5243C-0.152041 22.9164 -0.152041 21.9336 0.456124 21.3257L9.80125 11.9803L0.456124 2.63488C-0.152041 2.027 -0.152041 1.04414 0.456124 0.43626C0.759067 0.133032 1.15739 -0.0192928 1.55543 -0.0192928C1.95347 -0.0192928 2.35151 0.133032 2.65474 0.43626L11.9999 9.78167L21.3453 0.43626C21.6485 0.133032 22.0465 -0.0192928 22.4446 -0.0192928C22.8426 -0.0192928 23.2407 0.133032 23.5439 0.43626C24.1521 1.04414 24.1521 2.027 23.5439 2.63488L14.1988 11.9803Z" fill="#E9E9F0"/>
</svg>
