<svg width="17" height="20" viewBox="0 0 17 20" fill="none" xmlns="http://www.w3.org/2000/svg">
<path d="M8.6129 -7.33223e-07C12.7806 -3.68868e-07 17 1.10839 17 3.22581L17 16.7742C17 18.8916 12.7806 20 8.6129 20C4.44516 20 0.225804 18.8916 0.225804 16.7742L0.225805 3.2258C0.225805 1.10839 4.44516 -1.09758e-06 8.6129 -7.33223e-07ZM1.51613 16.7742C1.51613 17.4316 4.02129 18.7097 8.6129 18.7097C13.2045 18.7097 15.7097 17.4316 15.7097 16.7742L15.7097 14.0535C14.1445 14.9955 11.371 15.4839 8.6129 15.4839C5.85484 15.4839 3.08129 14.9955 1.51613 14.0535L1.51613 16.7742ZM1.51613 12.2581C1.51613 12.9155 4.02129 14.1935 8.6129 14.1935C13.2045 14.1935 15.7097 12.9155 15.7097 12.2581L15.7097 9.53742C14.1445 10.4794 11.371 10.9677 8.6129 10.9677C5.85484 10.9677 3.08129 10.4794 1.51613 9.53742L1.51613 12.2581ZM1.51613 7.74193C1.51613 8.39935 4.02129 9.67742 8.6129 9.67742C13.2045 9.67742 15.7097 8.39935 15.7097 7.74194L15.7097 5.02129C14.1445 5.96323 11.371 6.45161 8.6129 6.45161C5.85484 6.45161 3.08129 5.96322 1.51613 5.02129L1.51613 7.74193ZM8.6129 5.16129C13.2045 5.16129 15.7097 3.88323 15.7097 3.22581C15.7097 2.56839 13.2045 1.29032 8.6129 1.29032C4.02129 1.29032 1.51613 2.56839 1.51613 3.2258C1.51613 3.88322 4.02129 5.16129 8.6129 5.16129Z" fill="white"/>
</svg>
