<svg width="278" height="225" viewBox="0 0 278 225" fill="none" xmlns="http://www.w3.org/2000/svg">
<g clip-path="url(#clip0_351_7229)">
<path d="M277.5 199.629H0.5V199.767H277.5V199.629Z" fill="#E9E9F0"/>
<path d="M249.744 208.549H231.396V208.687H249.744V208.549Z" fill="#E9E9F0"/>
<path d="M151.864 206.809H144.723V206.947H151.864V206.809Z" fill="#E9E9F0"/>
<path d="M194.217 207.396H179.182V207.535H194.217V207.396Z" fill="#E9E9F0"/>
<path d="M230.842 203.401H199.757V203.54H230.842V203.401Z" fill="#E9E9F0"/>
<path d="M44.2606 209.812H29.563V209.95H44.2606V209.812Z" fill="#E9E9F0"/>
<path d="M61.9329 209.812H49.1909V209.95H61.9329V209.812Z" fill="#E9E9F0"/>
<path d="M106.763 206.742H73.0742V206.881H106.763V206.742Z" fill="#E9E9F0"/>
<path d="M131.803 174.921H24.8259C23.0808 174.921 21.6626 173.502 21.6626 171.757V21.385C21.6626 19.6399 23.0808 18.2217 24.8259 18.2217H131.803C133.548 18.2217 134.967 19.6399 134.967 21.385V171.757C134.967 173.502 133.548 174.921 131.803 174.921ZM24.8259 18.3602C23.1584 18.3602 21.8011 19.7175 21.8011 21.385V171.757C21.8011 173.425 23.1584 174.782 24.8259 174.782H131.803C133.471 174.782 134.828 173.425 134.828 171.757V21.385C134.828 19.7175 133.471 18.3602 131.803 18.3602H24.8259Z" fill="#E9E9F0"/>
<path d="M251.634 174.921H144.656C142.911 174.921 141.493 173.502 141.493 171.757V21.385C141.493 19.6399 142.911 18.2217 144.656 18.2217H251.634C253.379 18.2217 254.797 19.6399 254.797 21.385V171.757C254.797 173.502 253.379 174.921 251.634 174.921ZM144.656 18.3602C142.989 18.3602 141.632 19.7175 141.632 21.385V171.757C141.632 173.425 142.989 174.782 144.656 174.782H251.634C253.301 174.782 254.659 173.425 254.659 171.757V21.385C254.659 19.7175 253.301 18.3602 251.634 18.3602H144.656Z" fill="#E9E9F0"/>
<path d="M259.251 95.3496C261.051 89.1005 260.725 82.7406 258.702 77.0455C260.281 74.7852 261.528 72.2312 262.337 69.4335C266.048 56.5696 259.284 43.1739 247.08 38.3486C244.725 21.4959 232.764 6.77058 215.363 1.75134C201.602 -2.2153 187.491 0.765217 176.766 8.6154C174.079 5.80662 170.644 3.64048 166.644 2.48816C154.578 -0.990963 141.975 5.96728 138.496 18.0334C137.914 20.05 137.631 22.0831 137.609 24.0886C125.465 26.5373 115.067 35.4844 111.399 48.2098C108.103 59.6388 111.023 71.3891 118.153 79.8487C117.233 81.5163 116.474 83.3057 115.926 85.2114C111.976 98.9118 119.876 113.216 133.576 117.166C138.091 118.468 142.673 118.474 146.927 117.421C151.963 124.363 159.259 129.747 168.135 132.307C179.564 135.603 191.258 133.553 200.566 127.648C204.732 137.337 208.155 151.874 200.787 166.129C227.568 163.503 246.913 137.814 242.969 114.274C250.614 110.756 256.741 104.07 259.256 95.3496H259.251Z" fill="#E9E9F0"/>
<path d="M207.873 160.81C207.729 160.81 207.585 160.754 207.48 160.649C207.336 160.505 207.28 160.3 207.336 160.101C211.108 146.96 207.668 134.362 204.123 126.107L202.322 121.925L198.477 124.362C192.677 128.046 186.001 129.991 179.181 129.991C175.819 129.991 172.461 129.514 169.198 128.573C161.426 126.329 154.805 121.681 150.052 115.133L148.518 113.016L145.98 113.648C142.257 114.573 138.341 114.501 134.634 113.432C129.006 111.809 124.347 108.091 121.51 102.961C118.679 97.8311 118.014 91.9089 119.638 86.2747C120.092 84.7013 120.729 83.1668 121.532 81.7153L122.823 79.3774L121.1 77.3387C114.53 69.5439 112.286 59.0511 115.106 49.273C118.264 38.3315 127.172 30.1323 138.357 27.8775L141.432 27.2571L141.465 24.1214C141.482 22.4151 141.731 20.7254 142.202 19.0966C144.518 11.0636 151.963 5.45717 160.312 5.45717C162.074 5.45717 163.836 5.70647 165.548 6.19953C168.744 7.12471 171.647 8.88089 173.941 11.2797L176.29 13.7395L179.032 11.734C185.968 6.65935 194.483 3.86719 203.009 3.86719C206.798 3.86719 210.582 4.40457 214.261 5.46825C229.634 9.90025 240.997 23.0134 243.213 38.8744L243.523 41.1126L245.628 41.9436C256.154 46.1041 261.727 57.4556 258.586 68.3473C257.916 70.663 256.88 72.8346 255.5 74.8124L254.359 76.4467L255.024 78.3303C256.858 83.4881 257.018 89.0004 255.5 94.2634C253.395 101.554 248.226 107.559 241.318 110.739L238.626 111.98L239.113 114.905C240.797 124.949 237.772 135.919 230.814 145.004C225.019 152.572 216.92 158.173 208.001 160.777C207.951 160.793 207.895 160.799 207.845 160.799L207.873 160.81ZM202.582 120.562C202.638 120.562 202.693 120.567 202.749 120.584C202.904 120.634 203.031 120.745 203.092 120.894L205.147 125.67C208.682 133.885 212.1 146.328 208.676 159.425C216.992 156.771 224.521 151.442 229.967 144.334C236.737 135.492 239.684 124.833 238.055 115.094L237.495 111.753C237.457 111.504 237.584 111.266 237.811 111.16L240.892 109.742C247.512 106.695 252.459 100.945 254.476 93.9642C255.927 88.9228 255.772 83.6487 254.016 78.7071L253.251 76.5575C253.19 76.3913 253.218 76.203 253.318 76.0534L254.625 74.1809C255.938 72.3028 256.924 70.2364 257.556 68.0425C260.536 57.7049 255.251 46.9296 245.257 42.9796L242.853 42.0322C242.67 41.9602 242.537 41.794 242.509 41.5946L242.149 39.0351C239.994 23.6062 228.942 10.8476 213.989 6.53747C210.41 5.50703 206.726 4.98073 203.042 4.98073C194.743 4.98073 186.461 7.70087 179.719 12.6315L176.583 14.925C176.356 15.0912 176.046 15.0635 175.857 14.8585L173.171 12.0498C171.01 9.78945 168.279 8.13853 165.271 7.26875C163.658 6.80339 162.002 6.56517 160.34 6.56517C152.484 6.56517 145.471 11.8448 143.293 19.4069C142.85 20.9415 142.617 22.5314 142.601 24.1325L142.562 27.7169C142.562 27.9773 142.374 28.2044 142.119 28.2543L138.601 28.9634C127.82 31.1351 119.239 39.0351 116.197 49.5777C113.483 59.0013 115.638 69.1062 121.975 76.6185L123.942 78.9508C124.092 79.1281 124.114 79.3774 124.003 79.5768L122.524 82.2471C121.759 83.6266 121.155 85.0836 120.723 86.5794C119.183 91.9255 119.815 97.5486 122.502 102.418C125.194 107.288 129.615 110.822 134.961 112.363C138.479 113.376 142.196 113.443 145.731 112.568L148.634 111.847C148.85 111.792 149.083 111.875 149.216 112.058L150.972 114.479C155.575 120.828 161.991 125.332 169.525 127.503C172.689 128.417 175.946 128.877 179.204 128.877C185.813 128.877 192.278 126.988 197.907 123.42L202.3 120.634C202.389 120.578 202.494 120.545 202.599 120.545L202.582 120.562Z" fill="white"/>
<path d="M169.021 68.7684L154.174 66.4583L154.406 64.9735C154.8 62.4473 155.404 60.4418 156.224 58.9516C157.043 57.4613 158.118 56.1594 159.453 55.0292C160.788 53.9046 163.691 52.0099 168.162 49.3396C170.539 47.9491 171.841 46.5364 172.062 45.1071C172.284 43.6722 172.035 42.4922 171.314 41.567C170.589 40.6419 169.37 40.0435 167.653 39.7776C165.802 39.4895 164.179 39.8663 162.777 40.8967C161.376 41.9327 160.268 43.9492 159.453 46.9464L144.584 42.7083C145.975 37.2126 148.695 33.041 152.755 30.1934C156.816 27.3403 162.489 26.4872 169.785 27.6229C175.464 28.5093 179.863 30.4095 182.987 33.318C187.231 37.2625 188.937 41.905 188.106 47.24C187.763 49.456 186.815 51.4947 185.27 53.3617C183.724 55.2287 180.832 57.356 176.594 59.7327C173.636 61.4058 171.719 62.824 170.833 63.9763C169.946 65.1342 169.342 66.7242 169.026 68.7574L169.021 68.7684ZM153.049 70.3252L168.954 72.8016L166.772 86.8288L150.866 84.3525L153.049 70.3252Z" fill="white"/>
<path d="M206.915 90.5075L198.671 83.8318L199.342 83.0064C200.477 81.6048 201.558 80.5909 202.588 79.976C203.613 79.3611 204.738 78.9456 205.951 78.7295C207.164 78.5134 209.613 78.386 213.286 78.3472C215.23 78.3417 216.527 77.9428 217.169 77.1451C217.812 76.3473 218.078 75.5385 217.967 74.7185C217.856 73.8986 217.319 73.1009 216.366 72.3253C215.341 71.4943 214.216 71.1452 212.992 71.2782C211.768 71.4112 210.377 72.2477 208.821 73.7934L201.247 65.9321C204.045 63.0735 207.186 61.489 210.676 61.1899C214.167 60.8907 217.934 62.381 221.984 65.6606C225.136 68.2146 227.147 70.9347 228.022 73.8211C229.213 77.7323 228.609 81.1726 226.205 84.1365C225.208 85.3664 223.906 86.275 222.305 86.8678C220.698 87.4605 218.183 87.732 214.748 87.6821C212.349 87.6544 210.676 87.8373 209.724 88.2306C208.771 88.6239 207.84 89.3829 206.926 90.5075H206.915ZM196.61 85.793L205.441 92.9451L199.131 100.734L190.3 93.5822L196.61 85.793Z" fill="white"/>
<path d="M209.219 42.5203L205.651 37.6451L206.139 37.2906C206.97 36.6812 207.712 36.2823 208.366 36.0939C209.02 35.9056 209.696 35.8391 210.399 35.8945C211.097 35.9554 212.466 36.238 214.493 36.7477C215.562 37.0247 216.332 36.997 216.803 36.6479C217.274 36.3045 217.535 35.8945 217.596 35.4291C217.651 34.9582 217.474 34.443 217.064 33.8779C216.621 33.2685 216.05 32.914 215.357 32.8143C214.665 32.709 213.779 32.9694 212.698 33.5899L209.668 28.1662C211.623 26.9973 213.579 26.5818 215.546 26.9252C217.513 27.2687 219.368 28.6316 221.119 31.0248C222.482 32.8863 223.197 34.6757 223.257 36.3931C223.346 38.7199 222.515 40.5259 220.759 41.8057C220.033 42.3375 219.186 42.6478 218.216 42.7419C217.247 42.8361 215.823 42.6201 213.939 42.0938C212.621 41.7337 211.673 41.5896 211.092 41.6672C210.51 41.7447 209.889 42.0273 209.219 42.5148V42.5203ZM204.233 38.4318L208.056 43.6505L203.452 47.0188L199.629 41.8001L204.233 38.4318Z" fill="white"/>
<path d="M71.6002 111.642C67.0186 111.642 62.4093 110.39 58.3264 107.953C52.7033 104.601 48.7311 99.4101 47.3849 93.6651C42.8199 93.3383 38.615 91.0946 35.8118 87.4825C33.7786 84.8676 32.6208 81.7541 32.449 78.4523C31.2468 77.6324 30.1832 76.6352 29.2857 75.4884C24.9146 69.8653 25.4631 61.9708 30.5322 57.018C28.4214 48.01 31.751 38.5643 39.0582 32.8858C44.7921 28.4316 52.0939 26.8638 59.1518 28.5646C59.9717 26.6921 61.2515 25.0522 62.8692 23.7947C65.4674 21.7726 68.7028 20.8862 71.9714 21.2961C75.24 21.7061 78.154 23.3625 80.1706 25.9663C80.78 26.7475 81.2897 27.6062 81.6996 28.5147C88.3642 27.4234 95.0399 30.0272 99.1894 35.3733C102.901 40.1487 104.02 46.4089 102.203 52.1761C102.929 52.7966 103.588 53.4835 104.164 54.2259C108.879 60.2922 107.782 69.0675 101.71 73.7821C99.8597 75.2225 97.6659 76.1698 95.3502 76.541C94.1425 81.0616 91.5553 84.9673 87.849 87.8426C83.1733 91.4768 77.1845 92.9948 71.3454 92.0419C71.2844 97.4213 72.5365 104.717 78.5584 109.936C78.6803 110.041 78.7302 110.202 78.6969 110.357C78.6637 110.512 78.5474 110.64 78.3922 110.684C76.1762 111.327 73.8827 111.642 71.5836 111.642H71.6002ZM53.5343 28.764C48.5316 28.764 43.6509 30.415 39.5845 33.5728C32.4823 39.0961 29.2801 48.3147 31.4297 57.0568C31.4684 57.2064 31.4186 57.3671 31.3078 57.4779C26.3993 62.1093 25.8232 69.6215 29.9671 74.9566C30.848 76.0923 31.9061 77.0673 33.1027 77.854C33.2191 77.9315 33.2911 78.059 33.2966 78.203C33.4185 81.3996 34.5265 84.4244 36.4877 86.9562C39.2078 90.4575 43.313 92.5959 47.7505 92.8231C47.9444 92.8341 48.1106 92.9726 48.1549 93.1665C49.3793 98.8007 53.2462 103.92 58.7696 107.21C64.4647 110.601 71.2069 111.626 77.4006 110.058C71.4562 104.496 70.3482 96.9504 70.4922 91.5156C70.4922 91.3882 70.5531 91.2663 70.6529 91.1888C70.7526 91.1112 70.88 91.078 71.0074 91.1001C76.7635 92.1804 82.7079 90.7456 87.3227 87.1612C90.9459 84.3413 93.461 80.5021 94.5857 76.0479C94.63 75.8762 94.774 75.7488 94.9458 75.7266C97.2116 75.4164 99.3667 74.5078 101.178 73.1007C106.868 68.6797 107.898 60.4528 103.477 54.7633C102.879 53.9932 102.187 53.2896 101.422 52.6581C101.284 52.5417 101.228 52.3534 101.284 52.1872C103.134 46.6195 102.092 40.5365 98.4969 35.9106C94.4749 30.7363 87.9654 28.2544 81.5057 29.4344C81.3007 29.4732 81.1013 29.3624 81.0237 29.174C80.6304 28.2156 80.1096 27.3181 79.4781 26.5037C77.6 24.0883 74.891 22.5426 71.855 22.1659C68.8191 21.7836 65.8109 22.6091 63.3955 24.4872C61.7999 25.7281 60.5534 27.3735 59.8 29.246C59.7169 29.451 59.4953 29.5563 59.2903 29.5064C57.379 29.0133 55.4456 28.7751 53.5287 28.7751L53.5343 28.764Z" fill="#E9E9F0"/>
<path d="M56.2269 65.3174L48.5762 67.1179L48.3933 66.3534C48.0886 65.0515 47.9834 63.9601 48.0886 63.0793C48.1939 62.1984 48.4598 61.3508 48.8864 60.5419C49.313 59.7331 50.349 58.2428 51.9888 56.0712C52.8697 54.9299 53.2187 53.9881 53.0469 53.2513C52.8752 52.5145 52.5206 51.9882 51.9888 51.6835C51.457 51.3788 50.7478 51.3289 49.8614 51.5339C48.9086 51.761 48.1939 52.2596 47.7175 53.0352C47.241 53.8108 47.1025 55.0075 47.2964 56.6196L39.2579 57.4949C38.8479 54.5587 39.3465 51.9993 40.7537 49.822C42.1608 47.6393 44.7425 46.1102 48.5041 45.2238C51.4293 44.5369 53.9389 44.5923 56.0219 45.39C58.8529 46.4648 60.5924 48.3816 61.2406 51.1295C61.5121 52.2707 61.4511 53.4452 61.0744 54.6529C60.6921 55.8606 59.7116 57.4617 58.1216 59.4506C57.0191 60.8466 56.3654 61.9103 56.166 62.6416C55.961 63.3784 55.9831 64.2648 56.2324 65.3119L56.2269 65.3174ZM48.7922 69.2176L56.9859 67.2897L58.6867 74.5194L50.493 76.4473L48.7922 69.2176Z" fill="#E9E9F0"/>
<path d="M75.7055 49.1565L70.3927 47.5443L70.5533 47.0125C70.8303 46.1095 71.1516 45.4059 71.5284 44.9073C71.9051 44.4032 72.3649 43.9821 72.9134 43.6386C73.4618 43.2952 74.6197 42.7522 76.3925 42.0099C77.3343 41.6221 77.8827 41.1733 78.0379 40.6637C78.193 40.154 78.1653 39.7052 77.9492 39.3285C77.7332 38.9518 77.3177 38.6693 76.7027 38.4864C76.0435 38.287 75.4285 38.3369 74.8634 38.6416C74.2984 38.9463 73.7887 39.6277 73.3344 40.6803L68.1157 38.359C68.9079 36.42 70.1212 35.035 71.75 34.204C73.3843 33.373 75.5005 33.3509 78.1099 34.1431C80.1431 34.758 81.6499 35.6832 82.6416 36.9131C83.9878 38.5751 84.3701 40.359 83.7939 42.2703C83.5557 43.0625 83.1014 43.7605 82.4422 44.3644C81.7829 44.9683 80.614 45.5943 78.9409 46.248C77.7719 46.7078 76.9963 47.1233 76.6141 47.5C76.2318 47.8767 75.9271 48.4308 75.7055 49.1565ZM69.7833 48.8961L75.4728 50.6246L73.9493 55.6438L68.2598 53.9153L69.7833 48.8961Z" fill="#E9E9F0"/>
<path d="M139 224.647C198.324 224.647 246.415 221.839 246.415 218.376C246.415 214.912 198.324 212.104 139 212.104C79.6763 212.104 31.585 214.912 31.585 218.376C31.585 221.839 79.6763 224.647 139 224.647Z" fill="#E9E9F0"/>
<path d="M87.8156 124.86L87.3059 124.644C87.7657 123.564 88.0261 122.661 88.1092 121.896L88.6577 121.957C88.569 122.777 88.292 123.724 87.81 124.86H87.8156ZM87.5995 118.511C86.5248 116.151 84.5248 114.661 81.8213 114.207L81.9155 113.658C84.8129 114.146 86.9513 115.747 88.1037 118.284L87.5995 118.511Z" fill="#2A77FF"/>
<path d="M84.6966 130.433L79.2452 132.915L78.9959 132.372C78.5749 131.447 78.3367 130.644 78.2813 129.968C78.2259 129.292 78.3034 128.622 78.4973 127.957C78.6968 127.292 79.2452 126.023 80.1538 124.156C80.6413 123.17 80.7632 122.417 80.525 121.891C80.2868 121.364 79.9433 121.026 79.5001 120.877C79.0569 120.727 78.5195 120.794 77.8879 121.082C77.2065 121.392 76.7522 121.874 76.5085 122.522C76.2703 123.176 76.3423 124.09 76.7245 125.264L70.8466 127.109C70.1042 124.976 70.0987 122.993 70.83 121.154C71.5557 119.314 73.262 117.785 75.9379 116.567C78.0209 115.619 79.9045 115.287 81.5831 115.575C83.8601 115.957 85.4445 117.132 86.3364 119.093C86.7076 119.907 86.8406 120.794 86.7353 121.752C86.6301 122.711 86.1315 124.051 85.2395 125.774C84.6246 126.976 84.2922 127.868 84.2479 128.45C84.2035 129.032 84.3531 129.691 84.6911 130.439L84.6966 130.433ZM79.7217 134.45L85.5608 131.791L87.9043 136.937L82.0651 139.596L79.7217 134.45Z" fill="#2A77FF"/>
<path d="M71.2124 142.749L68.4368 146.511L68.0601 146.234C67.4175 145.763 66.9521 145.309 66.6585 144.865C66.3649 144.428 66.1599 143.94 66.0435 143.408C65.9272 142.877 65.8219 141.802 65.7278 140.19C65.6834 139.331 65.484 138.771 65.1184 138.505C64.7527 138.24 64.3926 138.14 64.0325 138.201C63.6724 138.267 63.3345 138.517 63.0132 138.954C62.6697 139.425 62.5367 139.924 62.6198 140.461C62.7029 140.998 63.1018 141.591 63.8109 142.245L60.5035 145.741C59.185 144.566 58.426 143.214 58.2266 141.685C58.0216 140.156 58.6033 138.467 59.9662 136.616C61.0243 135.176 62.1822 134.234 63.4342 133.791C65.1294 133.187 66.6585 133.387 68.0102 134.384C68.5698 134.799 68.9964 135.353 69.29 136.046C69.5836 136.738 69.7553 137.846 69.7997 139.353C69.8384 140.411 69.9492 141.143 70.1431 141.552C70.337 141.962 70.6861 142.356 71.2013 142.738L71.2124 142.749ZM69.3454 147.381L72.3148 143.347L75.8715 145.968L72.9021 150.001L69.3454 147.381Z" fill="#2A77FF"/>
<path d="M130.186 216.381C129.288 216.381 128.419 215.894 127.975 215.041C125.748 210.742 122.951 205.695 117.92 200.232C117.333 199.595 117.117 198.692 117.361 197.861C119.228 191.374 122.164 182.504 122.192 182.416C122.624 181.114 124.031 180.405 125.333 180.837C126.635 181.269 127.344 182.676 126.912 183.978C126.884 184.061 124.358 191.701 122.524 197.916C127.15 203.163 130.003 208.143 132.396 212.758C133.028 213.977 132.552 215.478 131.333 216.104C130.967 216.293 130.579 216.381 130.191 216.381H130.186Z" fill="#2A77FF"/>
<path d="M134.324 218.376H115.051L125.267 212.581L133.826 212.913L134.324 218.376Z" fill="#28293D"/>
<path d="M132.483 195.023C141.256 192.281 146.525 184.163 144.251 176.891C141.978 169.62 133.024 165.948 124.251 168.691C115.479 171.433 110.21 179.551 112.483 186.822C114.756 194.094 123.711 197.766 132.483 195.023Z" fill="#28293D"/>
<path d="M84.5142 172.804C83.5391 172.804 82.6139 172.228 82.2151 171.269C81.6888 170 82.2926 168.549 83.5613 168.023C85.0072 167.424 85.2067 165.951 85.2067 165.934C85.3119 164.826 86.1429 163.918 87.2398 163.718C87.8326 163.613 88.4032 163.441 89.068 163.253C92.4364 162.267 96.6024 161.048 109.738 164.726C122.69 157.48 122.84 143.896 122.84 143.309C122.84 141.94 123.948 140.821 125.316 140.821H125.327C126.69 140.821 127.804 141.918 127.809 143.287C127.809 144.007 127.732 161.059 111.167 169.602C110.602 169.895 109.948 169.956 109.339 169.779C96.824 166.161 93.2951 167.192 90.4641 168.023C90.2148 168.095 89.96 168.172 89.6996 168.244C89.0847 169.823 87.8105 171.646 85.467 172.615C85.1568 172.743 84.8355 172.804 84.5197 172.804H84.5142Z" fill="#28293D"/>
<path d="M113.56 155.026C108.846 136.289 96.2865 87.9584 136.535 85.0056C172.644 82.3575 182.555 130.417 184.96 147.07C186.361 156.776 186.838 165.574 186.915 172.455C187.021 181.324 180.788 188.975 172.09 190.742C152.418 194.736 133.798 195.307 121.261 190.36C117.87 189.019 115.821 185.568 116.147 181.939C116.629 176.554 116.64 167.297 113.555 155.037L113.56 155.026Z" fill="#2A77FF"/>
<path opacity="0.1" d="M184.96 147.065C182.688 131.375 173.758 87.7644 142.49 85.0387C138.85 84.723 135.26 86.5124 133.587 89.7588C132.191 92.4623 132.235 95.7365 134.324 98.9774C141.216 109.664 157.653 146.599 155.171 166.726C154.041 175.884 148.296 183.196 153.293 193.49C159.326 192.991 165.653 192.055 172.096 190.742C180.794 188.98 187.026 181.329 186.921 172.454C186.838 165.579 186.367 156.776 184.96 147.07V147.065Z" fill="#28293D"/>
<path d="M179.575 172.698C179.436 172.698 179.325 172.587 179.325 172.454C179.226 163.895 178.566 155.363 177.37 147.103C171.387 105.747 155.276 84.8279 130.778 86.634C130.645 86.6506 130.524 86.5398 130.513 86.4068C130.501 86.2683 130.607 86.152 130.74 86.1409C155.531 84.3127 171.83 105.376 177.857 147.037C179.054 155.319 179.713 163.873 179.819 172.454C179.819 172.593 179.708 172.703 179.575 172.703V172.698Z" fill="#28293D"/>
<path d="M179.198 196.348C187.97 193.606 193.239 185.488 190.966 178.217C188.693 170.945 179.738 167.273 170.966 170.016C162.193 172.758 156.924 180.876 159.198 188.148C161.471 195.419 170.425 199.091 179.198 196.348Z" fill="#28293D"/>
<path d="M180.716 216.381C179.819 216.381 178.949 215.894 178.506 215.041C176.279 210.742 173.481 205.695 168.451 200.232C167.863 199.595 167.647 198.692 167.891 197.861C169.758 191.374 172.694 182.504 172.722 182.416C173.154 181.114 174.556 180.405 175.863 180.837C177.165 181.269 177.874 182.676 177.442 183.978C177.414 184.061 174.888 191.701 173.054 197.916C177.68 203.163 180.533 208.143 182.927 212.758C183.558 213.977 183.082 215.478 181.863 216.104C181.497 216.293 181.11 216.381 180.722 216.381H180.716Z" fill="#2A77FF"/>
<path d="M175.498 140.633C174.606 140.633 173.741 140.151 173.293 139.303C172.656 138.09 173.121 136.589 174.334 135.951C174.811 135.697 185.63 129.785 188.672 115.581C181.459 112.562 168.495 105.753 165.659 102.329C165.382 101.997 165.199 101.598 165.127 101.177C165.06 100.806 164.595 97.8639 165.681 95.0828L164.373 92.5566C163.742 91.3378 164.218 89.8365 165.437 89.2049C166.656 88.5733 168.157 89.0498 168.789 90.2686L170.672 93.9028C171.077 94.6784 171.038 95.6091 170.578 96.357C169.985 97.3155 169.908 98.7171 169.958 99.6312C173.149 102.518 186.046 109.348 192.356 111.692C193.464 112.102 194.129 113.237 193.946 114.401C191.137 132.555 177.248 140.034 176.656 140.345C176.29 140.539 175.891 140.627 175.503 140.627L175.498 140.633Z" fill="#28293D"/>
<path d="M167.57 101.985C167.337 101.985 167.099 101.919 166.888 101.78C166.312 101.404 166.152 100.634 166.528 100.063C166.611 99.93 168.667 96.8331 171.791 95.9966C172.451 95.8193 173.138 96.2127 173.315 96.8775C173.492 97.5423 173.099 98.2237 172.434 98.401C170.251 98.9882 168.622 101.404 168.606 101.426C168.368 101.791 167.969 101.991 167.564 101.991L167.57 101.985Z" fill="#28293D"/>
<path d="M184.855 218.376H165.581L175.797 212.581L184.356 212.913L184.855 218.376Z" fill="#28293D"/>
<path d="M144.496 144.144C151.787 143.499 157.225 137.656 156.644 131.094C156.063 124.533 149.683 119.736 142.392 120.382C135.102 121.027 129.663 126.87 130.244 133.432C130.825 139.994 137.206 144.79 144.496 144.144Z" fill="white"/>
<path d="M143.709 132.439C144.711 135.957 143.958 139.259 142.019 139.807C140.085 140.356 137.703 137.951 136.701 134.433C135.698 130.916 136.451 127.614 138.39 127.065C140.329 126.517 142.706 128.921 143.709 132.439Z" fill="#28293D"/>
<path d="M128.363 134.511C136.728 133.436 153.299 128.71 156.03 126.805C153.875 120.511 143.864 115.126 134.906 118.157C126.834 120.888 128.363 134.505 128.363 134.505V134.511Z" fill="#28293D"/>
<path d="M129.986 138.555C140.368 136.583 153.869 133.27 157.73 131.143C157.492 137.918 155.525 144.782 144.922 147.098C136.257 148.992 129.98 138.55 129.98 138.55L129.986 138.555Z" fill="#28293D"/>
<path d="M121.428 145.065C125.185 142.58 125.68 136.711 122.534 131.958C119.389 127.204 113.794 125.365 110.038 127.85C106.282 130.335 105.787 136.203 108.932 140.957C112.078 145.711 117.672 147.55 121.428 145.065Z" fill="white"/>
<path d="M115.92 136.627C116.552 139.597 116.009 142.073 114.707 142.156C113.405 142.245 111.837 139.907 111.211 136.938C110.58 133.968 111.123 131.492 112.424 131.409C113.726 131.32 115.294 133.658 115.92 136.627Z" fill="#28293D"/>
<path d="M105.621 135.492C111.233 136.157 122.38 135.415 124.23 134.401C122.862 129.027 116.225 122.95 110.192 123.725C104.757 124.429 105.621 135.487 105.621 135.487V135.492Z" fill="#28293D"/>
<path d="M106.663 138.988C113.637 139.303 122.712 139.126 125.321 138.146C125.083 143.469 123.687 148.544 116.563 148.461C110.74 148.395 106.663 138.988 106.663 138.988Z" fill="#28293D"/>
<path d="M146.806 114.81C136.341 114.81 129.388 109.642 129.044 109.381C127.953 108.55 127.737 106.994 128.568 105.897C129.393 104.805 130.95 104.589 132.042 105.415C132.163 105.503 140.424 111.531 151.897 109.354C153.249 109.099 154.545 109.985 154.8 111.331C155.055 112.678 154.168 113.979 152.822 114.234C150.711 114.633 148.7 114.805 146.806 114.805V114.81Z" fill="#28293D"/>
<path d="M102.369 110.529C102.092 110.529 101.804 110.485 101.527 110.385C100.237 109.919 99.5662 108.496 100.032 107.205C101.35 103.537 103.533 101.155 106.524 100.13C111.948 98.2633 117.787 101.892 118.031 102.047C119.189 102.778 119.538 104.313 118.807 105.476C118.075 106.634 116.546 106.983 115.383 106.252C114.253 105.548 110.746 103.92 108.126 104.834C106.619 105.36 105.5 106.684 104.707 108.883C104.342 109.897 103.389 110.529 102.369 110.529Z" fill="#28293D"/>
<path d="M121.953 152.455C121.887 152.455 121.815 152.444 121.748 152.427C121.355 152.311 121.128 151.912 121.239 151.519C121.255 151.452 121.726 149.84 123.765 148.788C126.618 147.32 130.961 147.624 136.678 149.691C137.066 149.829 137.266 150.261 137.127 150.644C136.989 151.031 136.562 151.231 136.174 151.092C129.621 148.716 126.213 149.231 124.513 150.078C123.028 150.821 122.69 151.879 122.673 151.923C122.574 152.245 122.28 152.455 121.959 152.455H121.953Z" fill="#28293D"/>
<path d="M98.4914 149.725C84.032 151.021 73.6777 157.01 73.6777 157.01C77.9602 156.201 93.2672 175.142 97.2006 189.746C104.458 187.053 112.923 185.219 121.953 183.79C116.485 168.732 106.486 151.68 98.4914 149.725Z" fill="#FF00FF"/>
<path opacity="0.6" d="M98.4914 149.725C84.032 151.021 73.6777 157.01 73.6777 157.01C77.9602 156.201 93.2672 175.142 97.2006 189.746C104.458 187.053 112.923 185.219 121.953 183.79C116.485 168.732 106.486 151.68 98.4914 149.725Z" fill="white"/>
<path d="M98.4915 149.724C89.0292 148.655 73.6667 156.577 73.6667 156.577C70.9466 158.311 71.6834 161.569 73.1681 162.943C74.5919 160.898 90.4695 155.58 96.4417 154.865C93.4722 152.118 96.2312 150.123 98.4915 149.724Z" fill="#FF00FF"/>
<path opacity="0.2" d="M98.4915 149.724C89.0292 148.655 73.6667 156.577 73.6667 156.577C70.9466 158.311 71.6834 161.569 73.1681 162.943C74.5919 160.898 90.4695 155.58 96.4417 154.865C93.4722 152.118 96.2312 150.123 98.4915 149.724Z" fill="white"/>
<path d="M84.5194 172.803C83.705 172.803 82.9128 172.404 82.4364 171.673C80.6359 168.914 81.7605 164.698 82.0042 163.884C82.3976 162.571 83.7826 161.823 85.0956 162.216C86.4085 162.61 87.1564 163.989 86.7686 165.302C86.3642 166.692 86.2811 168.471 86.6024 168.958C87.3503 170.105 87.029 171.645 85.8767 172.399C85.4557 172.67 84.9848 172.803 84.5194 172.803Z" fill="#28293D"/>
</g>
<defs>
<clipPath id="clip0_351_7229">
<rect width="277" height="224.647" fill="white" transform="translate(0.5)"/>
</clipPath>
</defs>
</svg>
