<svg width="20" height="17" viewBox="0 0 20 17" fill="none" xmlns="http://www.w3.org/2000/svg">
<path d="M0.7684 10.5554C0.999162 10.5554 1.22761 10.4523 1.37838 10.2554L1.71298 9.82083C2.21373 12.7915 4.29443 15.3329 7.24817 16.3583C8.15737 16.6737 9.09042 16.8252 10.0112 16.8252C12.768 16.8252 15.421 15.4652 17.0094 13.0707C17.244 12.7169 17.1471 12.2392 16.7932 12.0046C16.4379 11.7685 15.9625 11.8669 15.7263 12.2207C13.9964 14.8314 10.7173 15.936 7.75354 14.9053C5.2944 14.0514 3.57907 11.9108 3.21293 9.42469L3.87137 9.93159C4.20905 10.1893 4.69134 10.1277 4.94979 9.79083C5.20901 9.45392 5.14671 8.97163 4.8098 8.71241C4.8098 8.71241 2.99063 7.31169 2.98602 7.30861C2.60372 7.014 2.05989 6.84862 1.71375 7.30015L0.15996 9.31777C-0.0992617 9.65468 -0.0369561 10.137 0.299955 10.3962C0.439181 10.5031 0.60456 10.5554 0.7684 10.5554Z" fill="white"/>
<path d="M3.20676 4.82101C3.55983 5.05562 4.0375 4.9587 4.27365 4.60486C6.00359 1.99496 9.28578 0.890379 12.2464 1.92034C14.7056 2.77416 16.4209 4.91485 16.7871 7.40092L16.1286 6.89401C15.7909 6.63556 15.3086 6.6971 15.0502 7.03478C14.791 7.37169 14.8533 7.85398 15.1902 8.1132C15.1902 8.1132 17.0094 9.51315 17.014 9.517C17.4032 9.81622 17.9347 9.98391 18.2862 9.52546L19.84 7.50784C20.0992 7.17093 20.0369 6.68864 19.7 6.42942C19.3631 6.17019 18.8801 6.23327 18.6216 6.57018L18.287 7.00478C17.7863 4.03411 15.7056 1.49267 12.7518 0.467317C9.12117 -0.792639 5.109 0.558852 2.99062 3.75412C2.75601 4.10873 2.85293 4.58563 3.20676 4.82101Z" fill="white"/>
</svg>
