<svg width="24" height="24" viewBox="0 0 24 24" fill="none" xmlns="http://www.w3.org/2000/svg">
<path d="M23.5129 18.0282L15.0254 2.40301C14.3848 1.3246 13.2535 0.680542 11.9991 0.680542C10.7447 0.680542 9.61333 1.3246 8.97274 2.40301C8.96791 2.41126 8.96383 2.41951 8.959 2.42776L0.499754 18.0035C-0.154574 19.1047 -0.166949 20.4271 0.466051 21.5406C1.1005 22.6547 2.2435 23.3194 3.52539 23.3194H20.4259C21.7078 23.3194 22.8978 22.6547 23.5322 21.5406C24.1652 20.4271 24.1528 19.1046 23.5129 18.0282ZM10.5914 7.83503C10.5914 7.05756 11.2217 6.42737 11.9991 6.42737C12.7766 6.42737 13.4067 7.0576 13.4067 7.83503V13.4657C13.4067 14.2431 12.7765 14.8734 11.9991 14.8734C11.2217 14.8734 10.5914 14.243 10.5914 13.4657V7.83503ZM11.9991 20.5041C10.8348 20.5041 9.88755 19.5569 9.88755 18.3925C9.88755 17.2282 10.8347 16.2811 11.9991 16.2811C13.1634 16.2811 14.1106 17.2282 14.1106 18.3925C14.1106 19.5569 13.1635 20.5041 11.9991 20.5041Z" fill="#F54336"/>
</svg>
