<svg width="228" height="145" viewBox="0 0 228 145" fill="none" xmlns="http://www.w3.org/2000/svg">
<g clip-path="url(#clip0_356_8968)">
<path d="M199.502 67.4588C200.155 67.0664 200.847 66.7675 201.565 66.5659L201.99 64.528L205.438 64.4668L205.936 66.4867C206.658 66.6631 207.364 66.9367 208.028 67.3076L209.77 66.1662L212.251 68.557L211.169 70.3356C211.563 70.9873 211.862 71.6786 212.064 72.3951L214.105 72.82L214.167 76.262L212.143 76.7589C211.967 77.479 211.692 78.1847 211.321 78.8472L212.464 80.5862L210.069 83.0634L208.288 81.9832C207.635 82.3757 206.942 82.6745 206.225 82.8761L205.799 84.914L202.351 84.9752L201.853 82.9554C201.132 82.7789 200.425 82.5053 199.762 82.1344L198.02 83.2758L195.538 80.8851L196.62 79.1064C196.227 78.4547 195.928 77.7634 195.726 77.0469L193.684 76.6221L193.623 73.18L195.646 72.6831C195.823 71.963 196.097 71.2573 196.469 70.5948L195.325 68.8558L197.72 66.3787L199.502 67.4588ZM201.341 72.0458C199.92 73.5149 199.964 75.8516 201.435 77.2702C202.907 78.6888 205.247 78.6456 206.668 77.1766C208.086 75.7076 208.046 73.3708 206.578 71.9522C205.107 70.5336 202.766 70.5768 201.345 72.0458H201.341Z" fill="#EBEBEB"/>
<path d="M90.2476 68.6937C91.3837 68.0096 92.5955 67.4875 93.8434 67.1347L94.5828 63.581L100.595 63.4766L101.461 67.0014C102.719 67.3111 103.949 67.79 105.107 68.4345L108.144 66.447L112.468 70.6164L110.586 73.7164C111.274 74.8505 111.794 76.0603 112.147 77.3061L115.703 78.0442L115.808 84.0462L112.277 84.9103C111.967 86.1669 111.487 87.3947 110.842 88.5504L112.833 91.5821L108.656 95.8991L105.551 94.0196C104.415 94.7037 103.203 95.2258 101.955 95.5786L101.215 99.1323L95.2032 99.2367L94.3376 95.7118C93.0788 95.4022 91.849 94.9233 90.6912 94.2788L87.6544 96.2663L83.33 92.0969L85.2127 88.9969C84.5274 87.8627 84.0045 86.653 83.651 85.4072L80.0948 84.6691L79.9902 78.6671L83.5212 77.8029C83.8313 76.5464 84.311 75.3186 84.9566 74.1628L82.9657 71.1312L87.1423 66.8142L90.2476 68.6937ZM93.4503 76.6868C90.9761 79.2467 91.0483 83.3225 93.609 85.7925C96.1734 88.2624 100.256 88.1904 102.73 85.634C105.204 83.0741 105.132 78.9983 102.572 76.5284C100.007 74.0584 95.9245 74.1304 93.4503 76.6868Z" fill="#EBEBEB"/>
<path d="M128.099 33.4632C128.651 33.1283 129.243 32.8763 129.849 32.7035L130.209 30.9752L133.134 30.9248L133.556 32.6386C134.169 32.7899 134.768 33.0203 135.331 33.3371L136.809 32.3686L138.916 34.3957L138 35.9043C138.335 36.4552 138.588 37.0457 138.761 37.6505L140.492 38.0106L140.542 40.9306L138.826 41.3518C138.674 41.9639 138.443 42.5616 138.126 43.1233L139.096 44.5995L137.066 46.7022L135.554 45.7877C135.003 46.1225 134.411 46.3745 133.805 46.5474L133.444 48.2756L130.519 48.326L130.097 46.6122C129.484 46.461 128.886 46.2305 128.323 45.9137L126.844 46.8822L124.738 44.8551L125.654 43.3465C125.319 42.7956 125.066 42.2052 124.893 41.6003L123.162 41.2402L123.111 38.3202L124.828 37.899C124.98 37.2869 125.21 36.6892 125.528 36.1275L124.558 34.6513L126.588 32.5486L128.099 33.4632ZM129.657 37.3517C128.453 38.5975 128.489 40.5813 129.737 41.7803C130.985 42.9829 132.972 42.9469 134.173 41.7011C135.378 40.4553 135.342 38.4714 134.094 37.2725C132.846 36.0699 130.858 36.1059 129.657 37.3517Z" fill="#F5F5F5"/>
<path d="M146.079 41.6397C147.049 41.0564 148.081 40.6099 149.145 40.3111L149.776 37.2795L154.905 37.1895L155.644 40.1959C156.719 40.4587 157.765 40.8656 158.757 41.4164L161.35 39.7206L165.04 43.2779L163.435 45.9243C164.022 46.8928 164.466 47.9225 164.765 48.9847L167.799 49.6148L167.889 54.7347L164.877 55.4728C164.614 56.5457 164.206 57.5899 163.655 58.58L165.353 61.1688L161.79 64.8521L159.139 63.2499C158.169 63.8331 157.137 64.2796 156.073 64.5784L155.442 67.6101L150.313 67.7001L149.574 64.6937C148.499 64.4308 147.453 64.0204 146.462 63.4731L143.868 65.1689L140.179 61.6116L141.784 58.9653C141.199 57.9967 140.752 56.967 140.449 55.9048L137.412 55.2748L137.322 50.1549L140.334 49.4167C140.597 48.3438 141.008 47.2997 141.556 46.3095L139.858 43.7208L143.421 40.0374L146.072 41.6397H146.079ZM148.813 48.459C146.703 50.6409 146.765 54.119 148.95 56.2253C151.136 58.3316 154.62 58.2704 156.73 56.0885C158.84 53.9066 158.778 50.4285 156.593 48.3222C154.407 46.2159 150.923 46.2771 148.813 48.459Z" fill="#EBEBEB"/>
<path d="M148.578 15.439C149.061 15.1473 149.581 14.9241 150.111 14.7729L150.428 13.2571L152.993 13.2139L153.36 14.7153C153.898 14.8485 154.421 15.0501 154.915 15.3274L156.21 14.4776L158.056 16.2563L157.252 17.5777C157.544 18.0601 157.768 18.5786 157.919 19.1079L159.438 19.4247L159.481 21.9847L157.977 22.3519C157.844 22.8884 157.642 23.4105 157.364 23.9037L158.211 25.1963L156.43 27.0398L155.106 26.2369C154.623 26.5285 154.103 26.7517 153.573 26.903L153.256 28.4188L150.692 28.462L150.324 26.9606C149.786 26.8274 149.263 26.6257 148.769 26.3485L147.474 27.1982L145.628 25.4196L146.432 24.0982C146.14 23.6157 145.916 23.0972 145.765 22.568L144.246 22.2511L144.203 19.6912L145.707 19.3239C145.841 18.7874 146.043 18.2654 146.32 17.7721L145.473 16.4795L147.254 14.6361L148.578 15.439ZM149.945 18.8486C148.888 19.9396 148.921 21.6786 150.013 22.7336C151.106 23.7885 152.848 23.7561 153.905 22.6652C154.962 21.5742 154.929 19.8352 153.837 18.7802C152.744 17.7253 151.002 17.7577 149.945 18.8486Z" fill="#EBEBEB"/>
<path d="M117.933 53.1686C119.185 52.4125 120.516 51.8436 121.89 51.4511L122.705 47.541L129.32 47.4258L130.272 51.3035C131.657 51.6456 133.009 52.1712 134.286 52.8805L137.629 50.6914L142.39 55.2785L140.316 58.6917C141.074 59.9411 141.644 61.2697 142.037 62.6415L145.95 63.4552L146.065 70.0585L142.181 71.009C141.838 72.3916 141.312 73.7418 140.601 75.0164L142.791 78.3541L138.196 83.1067L134.777 81.0364C133.525 81.7925 132.194 82.3614 130.82 82.7539L130.005 86.664L123.39 86.7792L122.438 82.9015C121.053 82.5594 119.701 82.0338 118.424 81.3245L115.081 83.5136L110.32 78.9265L112.394 75.5133C111.636 74.2639 111.063 72.9353 110.673 71.5635L106.76 70.7498L106.645 64.1465L110.529 63.196C110.872 61.8134 111.398 60.4632 112.109 59.1886L109.916 55.8509L114.511 51.0983L117.93 53.1686H117.933Z" fill="#2A77FF"/>
<path d="M122.196 60.8306H118.561V72.1613H122.196V60.8306Z" fill="white"/>
<path d="M127.624 63.4194H123.988V72.1614H127.624V63.4194Z" fill="white"/>
<path d="M132.647 66.9692H129.012V72.1612H132.647V66.9692Z" fill="white"/>
<path d="M63.4549 52.3693C64.7064 51.6132 66.0373 51.0443 67.4114 50.6518L68.2265 46.7417L74.8411 46.6265L75.7933 50.5042C77.1782 50.8463 78.5307 51.3719 79.8075 52.0812L83.1509 49.8921L87.9117 54.4792L85.8379 57.8924C86.5953 59.1418 87.1651 60.4704 87.5582 61.8422L91.4715 62.6559L91.5869 69.2592L87.7025 70.2097C87.3599 71.5923 86.8333 72.9425 86.1228 74.2171L88.312 77.5547L83.7171 82.3074L80.298 80.2371C79.0465 80.9932 77.7156 81.5621 76.3415 81.9546L75.5264 85.8647L68.9118 85.9799L67.9596 82.1022C66.5746 81.7601 65.2221 81.2345 63.9454 80.5252L60.602 82.7143L55.8412 78.1272L57.915 74.714C57.1576 73.4646 56.5842 72.136 56.1947 70.7642L52.2814 69.9505L52.166 63.3472L56.0504 62.3967C56.393 61.0141 56.9196 59.6639 57.6301 58.3893L55.4373 55.0516L60.0322 50.299L63.4513 52.3693H63.4549Z" fill="#FF00FF"/>
<path d="M72.9297 77.3674C67.9958 77.3674 63.5632 74.0729 62.1566 69.3563C62.1278 69.2627 62.1819 69.1618 62.2792 69.133C62.373 69.1042 62.474 69.1583 62.5029 69.2555C63.8662 73.8209 68.1545 77.0073 72.9297 77.0073C78.9312 77.0073 83.811 72.1359 83.811 66.1446C83.811 60.1534 78.9312 55.2819 72.9297 55.2819C67.9165 55.2819 63.5704 58.67 62.3658 63.5235C62.3406 63.6207 62.2432 63.6783 62.1458 63.6567C62.0484 63.6315 61.9907 63.5343 62.0123 63.4371C63.2566 58.4252 67.7433 54.9219 72.9261 54.9219C79.126 54.9219 84.1681 59.9554 84.1681 66.1446C84.1681 72.3339 79.126 77.3674 72.9261 77.3674H72.9297Z" fill="white"/>
<path d="M72.8676 73.9432C69.3799 73.9432 66.2854 71.5993 65.3441 68.2473C65.3188 68.15 65.3729 68.0528 65.4703 68.024C65.5641 67.9988 65.6651 68.0528 65.6939 68.15C66.592 71.3473 69.5422 73.5832 72.8712 73.5832C76.9792 73.5832 80.3226 70.2455 80.3226 66.1446C80.3226 62.0436 76.9792 58.7059 72.8712 58.7059C69.5458 58.7059 66.5956 60.9382 65.6975 64.1355C65.6723 64.2327 65.5713 64.2867 65.4739 64.2615C65.3765 64.2363 65.3224 64.1355 65.3477 64.0383C66.289 60.6862 69.3835 58.3423 72.8712 58.3423C77.1775 58.3423 80.6832 61.842 80.6832 66.141C80.6832 70.44 77.1775 73.9396 72.8712 73.9396L72.8676 73.9432Z" fill="white"/>
<path d="M72.8676 67.8943C72.4672 67.8943 72.0813 67.7754 71.7531 67.5522C71.6702 67.4982 71.6485 67.3866 71.7062 67.3038C71.7603 67.221 71.8757 67.1994 71.9551 67.257C72.2256 67.4406 72.543 67.5342 72.8676 67.5342C73.7692 67.5342 74.5014 66.8033 74.5014 65.9032C74.5014 65.0031 73.7692 64.2722 72.8676 64.2722C72.5971 64.2722 72.3302 64.3406 72.0958 64.4666C72.0092 64.5134 71.8974 64.481 71.8505 64.3946C71.8036 64.3082 71.8361 64.1966 71.9226 64.1497C72.2112 63.9949 72.5358 63.9121 72.8676 63.9121C73.9676 63.9121 74.8621 64.805 74.8621 65.9032C74.8621 67.0013 73.9676 67.8943 72.8676 67.8943Z" fill="white"/>
<path d="M72.9301 65.8351L70.0159 64.4165L70.0736 65.6803L62.3301 65.8603L62.4166 66.4292L70.1674 66.3032L70.189 67.5849L72.9301 65.8351Z" fill="white"/>
<path d="M64.4606 66.0513L64.4174 65.9684C64.2118 65.5688 63.8042 65.3095 63.3498 65.2915L60.7891 65.1943L61.8999 66.1989L60.9153 67.4122L63.3678 67.3618C63.9196 67.351 64.3993 66.9766 64.5508 66.4473L64.4643 66.0513H64.4606Z" fill="white"/>
<path d="M72.9286 70.8507C70.8476 70.8507 68.9866 69.4573 68.4023 67.4626C68.3734 67.369 68.4275 67.2682 68.5249 67.2394C68.6223 67.2106 68.7197 67.2646 68.7485 67.3618C69.2859 69.2052 71.0063 70.4906 72.9286 70.4906C75.3307 70.4906 77.2819 68.5392 77.2819 66.1448C77.2819 63.7505 75.3307 61.799 72.9286 61.799C71.0243 61.799 69.3112 63.07 68.7593 64.8918C68.7305 64.9855 68.6295 65.0431 68.5357 65.0107C68.442 64.9819 68.3879 64.881 68.4167 64.7874C69.0118 62.818 70.8692 61.439 72.9323 61.439C75.5327 61.439 77.6462 63.5489 77.6462 66.1448C77.6462 68.7408 75.5327 70.8507 72.9323 70.8507H72.9286Z" fill="white"/>
<path d="M171.824 52.067C173.076 51.3109 174.406 50.742 175.781 50.3496L176.596 46.4394L183.21 46.3242L184.162 50.202C185.547 50.544 186.9 51.0697 188.177 51.779L191.52 49.5899L196.281 54.1769L194.207 57.5902C194.964 58.8396 195.534 60.1681 195.927 61.5399L199.841 62.3536L199.956 68.957L196.072 69.9075C195.729 71.2901 195.202 72.6403 194.492 73.9148L196.681 77.2525L192.086 82.0052L188.667 79.9349C187.416 80.691 186.085 81.2599 184.711 81.6523L183.896 85.5625L177.281 85.6777L176.329 81.7999C174.944 81.4579 173.591 80.9322 172.315 80.2229L168.971 82.412L164.21 77.825L166.284 74.4117C165.527 73.1623 164.953 71.8337 164.564 70.462L160.651 69.6482L160.535 63.0449L164.42 62.0944C164.762 60.7118 165.289 59.3616 165.999 58.087L163.806 54.7494L168.401 49.9967L171.82 52.067H171.824Z" fill="#2A77FF"/>
<path d="M170.559 66.5697L173.094 64.0385L177.985 68.3771L187.582 59.1562L189.934 61.6874L177.62 73.2558L170.559 66.5697Z" fill="white"/>
<path d="M105.043 54.1229C105.043 54.1229 105.053 54.0833 105.086 54.0113C105.122 53.9284 105.169 53.8204 105.23 53.6872C105.295 53.5396 105.374 53.3668 105.468 53.1615C105.558 52.9527 105.67 52.7115 105.822 52.4558C105.966 52.1966 106.125 51.905 106.301 51.5917C106.485 51.2821 106.709 50.958 106.94 50.6052C107.16 50.2451 107.452 49.8959 107.737 49.5142C108.015 49.1254 108.361 48.7545 108.711 48.3513C109.05 47.9408 109.468 47.57 109.872 47.1523C110.07 46.9399 110.305 46.7562 110.532 46.5582C110.763 46.3638 110.99 46.155 111.232 45.9569C111.481 45.7661 111.733 45.5753 111.993 45.3809C112.123 45.2836 112.249 45.1828 112.386 45.0892C112.523 44.9992 112.66 44.9092 112.801 44.8156C113.082 44.6356 113.36 44.4411 113.652 44.2611C113.951 44.0919 114.254 43.9191 114.557 43.7462C114.86 43.5626 115.185 43.4222 115.509 43.2602C115.834 43.1053 116.158 42.9325 116.505 42.8065C116.847 42.6697 117.194 42.5293 117.543 42.3888C117.9 42.2736 118.265 42.1548 118.629 42.0396C120.097 41.6039 121.666 41.3015 123.289 41.1935C124.915 41.1107 126.51 41.2259 128.021 41.4851C128.396 41.5607 128.771 41.6327 129.139 41.7048C129.503 41.802 129.864 41.8992 130.217 41.9964C130.578 42.0828 130.917 42.216 131.26 42.3276C131.599 42.4465 131.941 42.5509 132.262 42.6949C132.587 42.8317 132.908 42.9649 133.225 43.0981C133.535 43.2422 133.835 43.4006 134.134 43.5482C134.282 43.6238 134.43 43.6958 134.578 43.7714C134.722 43.847 134.863 43.9335 135 44.0163C135.277 44.1783 135.555 44.3403 135.822 44.4987C136.085 44.6644 136.338 44.8444 136.587 45.0136C136.835 45.1864 137.088 45.3413 137.312 45.5285C137.762 45.8921 138.224 46.2126 138.606 46.5798C138.999 46.9363 139.389 47.2639 139.71 47.6204C140.038 47.9696 140.37 48.2793 140.63 48.6105C140.9 48.9345 141.16 49.2298 141.38 49.5178C141.589 49.8095 141.784 50.0795 141.957 50.3207C142.137 50.5584 142.274 50.7816 142.39 50.9796C142.505 51.1741 142.606 51.3361 142.689 51.4729C142.765 51.5989 142.822 51.6997 142.869 51.7789C142.909 51.8474 142.927 51.8834 142.923 51.887C142.923 51.887 142.895 51.8546 142.851 51.7897C142.801 51.7141 142.736 51.6169 142.657 51.4945C142.57 51.3613 142.465 51.1993 142.343 51.012C142.224 50.8176 142.08 50.598 141.896 50.364C141.719 50.1263 141.52 49.8635 141.308 49.5754C141.084 49.2946 140.821 49.003 140.55 48.6825C140.287 48.3549 139.955 48.0488 139.623 47.7068C139.299 47.3575 138.909 47.0335 138.516 46.6842C138.13 46.3206 137.672 46.0073 137.221 45.6473C136.998 45.4637 136.745 45.3124 136.496 45.1432C136.248 44.9776 135.995 44.8012 135.732 44.6392C135.461 44.4843 135.191 44.3259 134.913 44.1639C134.772 44.0847 134.635 43.9983 134.491 43.9227C134.343 43.8506 134.199 43.7786 134.047 43.703C133.748 43.559 133.452 43.4006 133.142 43.2602C132.828 43.1305 132.507 42.9973 132.186 42.8641C131.869 42.7201 131.526 42.6193 131.191 42.5005C130.852 42.3888 130.513 42.2556 130.156 42.1728C129.802 42.0792 129.445 41.982 129.085 41.8884C128.717 41.8164 128.349 41.7444 127.974 41.6723C126.477 41.4167 124.897 41.3051 123.285 41.3879C121.677 41.4959 120.122 41.7948 118.665 42.2232C118.304 42.3384 117.944 42.4537 117.59 42.5689C117.244 42.7057 116.901 42.8425 116.562 42.9793C116.22 43.1053 115.899 43.2746 115.574 43.4258C115.253 43.5842 114.929 43.721 114.629 43.9047C114.326 44.0775 114.023 44.2467 113.728 44.4123C113.435 44.5887 113.161 44.7796 112.88 44.956C112.743 45.046 112.602 45.136 112.469 45.226C112.335 45.3197 112.209 45.4205 112.079 45.5141C111.823 45.7085 111.571 45.8957 111.322 46.083C111.08 46.2774 110.853 46.4826 110.622 46.677C110.399 46.8751 110.164 47.0551 109.962 47.2639C109.558 47.6744 109.14 48.038 108.801 48.4449C108.451 48.8409 108.105 49.2046 107.823 49.5934C107.535 49.9715 107.243 50.3135 107.019 50.67C106.788 51.0192 106.561 51.3397 106.37 51.6457C106.19 51.9554 106.027 52.2434 105.879 52.499C105.724 52.7511 105.609 52.9887 105.512 53.1939C105.414 53.3956 105.328 53.5684 105.259 53.7124C105.194 53.8456 105.14 53.95 105.1 54.0293C105.064 54.1013 105.043 54.1373 105.039 54.1337L105.043 54.1229Z" fill="#263238"/>
<path d="M112.512 42.2157C112.512 42.2157 112.652 42.1041 112.923 41.9313C113.193 41.7548 113.597 41.528 114.106 41.2652C115.127 40.7431 116.605 40.1382 118.315 39.7386C120.024 39.3425 121.619 39.2309 122.765 39.2489C123.339 39.2561 123.804 39.2849 124.122 39.3209C124.439 39.3569 124.616 39.3821 124.616 39.3929C124.616 39.4073 124.435 39.4037 124.118 39.3929C123.801 39.3785 123.335 39.3713 122.769 39.3785C121.629 39.3929 120.053 39.5261 118.362 39.9186C116.67 40.3146 115.199 40.8907 114.171 41.3804C113.655 41.6252 113.244 41.8341 112.966 41.9889C112.685 42.1401 112.526 42.2193 112.519 42.2085L112.512 42.2157Z" fill="#263238"/>
<path d="M199.192 78.8294C199.192 78.8294 199.181 78.869 199.149 78.941C199.112 79.0238 199.066 79.1318 199.004 79.2651C198.939 79.4127 198.86 79.5855 198.766 79.7907C198.676 79.9996 198.564 80.2408 198.413 80.4964C198.269 80.7557 198.11 81.0473 197.933 81.3606C197.749 81.6702 197.526 81.9942 197.295 82.3507C197.075 82.7107 196.783 83.06 196.498 83.4416C196.22 83.8305 195.874 84.2013 195.524 84.6046C195.185 85.0151 194.766 85.3859 194.362 85.8036C194.164 86.016 193.93 86.1996 193.702 86.3977C193.472 86.5921 193.244 86.8009 193.003 86.9989C192.754 87.1898 192.501 87.3806 192.242 87.575C192.112 87.6722 191.986 87.773 191.849 87.8667C191.712 87.9567 191.575 88.0467 191.434 88.1403C191.153 88.3203 190.875 88.5147 190.583 88.6948C190.283 88.864 189.98 89.0368 189.677 89.2096C189.374 89.3933 189.05 89.5337 188.725 89.6921C188.401 89.8469 188.076 90.0198 187.73 90.1458C187.387 90.2826 187.041 90.423 186.691 90.5634C186.334 90.6786 185.97 90.7975 185.605 90.9127C184.138 91.3483 182.569 91.6508 180.946 91.7588C179.319 91.8416 177.725 91.7264 176.214 91.4672C175.839 91.3915 175.464 91.3195 175.096 91.2475C174.731 91.1503 174.371 91.0531 174.017 90.9559C173.657 90.8695 173.318 90.7363 172.975 90.6246C172.636 90.5058 172.293 90.4014 171.972 90.2574C171.648 90.1206 171.327 89.9874 171.009 89.8541C170.699 89.7101 170.4 89.5517 170.1 89.4041C169.953 89.3285 169.805 89.2565 169.657 89.1808C169.513 89.1052 169.372 89.0188 169.235 88.936C168.957 88.774 168.679 88.612 168.413 88.4535C168.149 88.2879 167.897 88.1079 167.648 87.9387C167.399 87.7658 167.147 87.611 166.923 87.4238C166.472 87.0601 166.01 86.7397 165.628 86.3724C165.235 86.016 164.846 85.6884 164.525 85.3319C164.196 84.9827 163.865 84.673 163.605 84.3418C163.334 84.0177 163.075 83.7225 162.855 83.4344C162.645 83.1428 162.451 82.8728 162.278 82.6315C162.097 82.3939 161.96 82.1707 161.845 81.9726C161.729 81.7782 161.628 81.6162 161.545 81.4794C161.47 81.3534 161.412 81.2525 161.365 81.1733C161.325 81.1049 161.307 81.0689 161.311 81.0653C161.311 81.0653 161.34 81.0977 161.383 81.1625C161.434 81.2381 161.499 81.3354 161.578 81.4578C161.664 81.591 161.769 81.753 161.892 81.9402C162.011 82.1347 162.155 82.3543 162.339 82.5883C162.516 82.826 162.714 83.0888 162.927 83.3768C163.15 83.6577 163.414 83.9493 163.684 84.2698C163.947 84.5974 164.279 84.9034 164.611 85.2455C164.936 85.5947 165.325 85.9188 165.718 86.268C166.104 86.6317 166.562 86.9449 167.013 87.305C167.237 87.4886 167.489 87.6398 167.738 87.8091C167.987 87.9747 168.239 88.1511 168.503 88.3131C168.773 88.4679 169.044 88.6264 169.321 88.7884C169.462 88.8676 169.599 88.954 169.743 89.0296C169.891 89.1016 170.036 89.1736 170.187 89.2493C170.486 89.3933 170.782 89.5517 171.092 89.6921C171.406 89.8217 171.727 89.9549 172.048 90.0882C172.365 90.2322 172.708 90.333 173.043 90.4518C173.383 90.5634 173.722 90.6967 174.079 90.7795C174.432 90.8731 174.789 90.9703 175.15 91.0639C175.518 91.1359 175.886 91.2079 176.261 91.2799C177.757 91.5356 179.337 91.6472 180.949 91.5644C182.558 91.4564 184.112 91.1575 185.569 90.7291C185.93 90.6138 186.291 90.4986 186.644 90.3834C186.99 90.2466 187.333 90.1098 187.672 89.9729C188.015 89.8469 188.336 89.6777 188.66 89.5265C188.981 89.3681 189.306 89.2312 189.605 89.0476C189.908 88.8748 190.211 88.7056 190.507 88.54C190.799 88.3635 191.073 88.1727 191.355 87.9963C191.492 87.9063 191.632 87.8162 191.766 87.7262C191.899 87.6326 192.025 87.5318 192.155 87.4382C192.411 87.2474 192.664 87.0565 192.913 86.8693C193.154 86.6749 193.381 86.4697 193.612 86.2752C193.836 86.0772 194.07 85.8972 194.272 85.6884C194.676 85.2779 195.095 84.9143 195.434 84.5074C195.784 84.1113 196.13 83.7477 196.411 83.3588C196.7 82.9808 196.992 82.6387 197.215 82.2823C197.446 81.933 197.673 81.6126 197.865 81.3066C198.045 80.9969 198.207 80.7089 198.355 80.4532C198.51 80.2012 198.626 79.9636 198.723 79.7583C198.82 79.5567 198.907 79.3839 198.975 79.2399C199.04 79.1066 199.094 79.0022 199.134 78.923C199.17 78.851 199.192 78.815 199.195 78.8186L199.192 78.8294Z" fill="#263238"/>
<path d="M191.87 91.8306C191.87 91.8306 191.729 91.9422 191.458 92.115C191.188 92.2914 190.784 92.5183 190.275 92.7811C189.255 93.3032 187.776 93.9081 186.066 94.3077C184.357 94.7038 182.763 94.8154 181.616 94.7974C181.042 94.7902 180.577 94.7614 180.26 94.7254C179.942 94.6894 179.766 94.6642 179.766 94.6534C179.766 94.6426 179.946 94.6426 180.263 94.6534C180.581 94.6678 181.046 94.675 181.612 94.6678C182.752 94.6534 184.328 94.5201 186.02 94.1277C187.711 93.7316 189.183 93.1555 190.211 92.6659C190.726 92.421 191.137 92.2122 191.415 92.0574C191.696 91.9062 191.855 91.827 191.862 91.8378L191.87 91.8306Z" fill="#263238"/>
<path d="M91.2699 78.0262C91.2699 78.0262 91.2591 78.0658 91.2267 78.1378C91.1906 78.2206 91.1437 78.3286 91.0824 78.4618C91.0175 78.6095 90.9381 78.7823 90.8444 78.9875C90.7542 79.1964 90.6424 79.4376 90.4909 79.6932C90.3466 79.9525 90.1879 80.2441 90.0112 80.5573C89.8273 80.867 89.6037 81.191 89.3728 81.5439C89.1528 81.9039 88.8607 82.2532 88.5758 82.6348C88.298 83.0237 87.9518 83.3945 87.602 83.7978C87.2629 84.2082 86.8446 84.5791 86.4406 84.9968C86.2422 85.2092 86.0078 85.3928 85.7806 85.5908C85.5498 85.7853 85.3225 85.9941 85.0809 86.1921C84.832 86.3829 84.5796 86.5738 84.3199 86.7682C84.1901 86.8654 84.0638 86.9662 83.9268 87.0598C83.7897 87.1499 83.6527 87.2399 83.512 87.3335C83.2307 87.5135 82.953 87.7079 82.6608 87.888C82.3615 88.0572 82.0585 88.23 81.7556 88.4028C81.4526 88.5864 81.128 88.7269 80.8034 88.8889C80.4788 89.0437 80.1542 89.2165 79.808 89.3426C79.4653 89.4794 79.1191 89.6198 78.7692 89.7602C78.4122 89.8754 78.0479 89.9942 77.6836 90.1095C76.2157 90.5451 74.6468 90.8476 73.0238 90.9556C71.3972 91.0384 69.8031 90.9232 68.2919 90.6639C67.9168 90.5883 67.5417 90.5163 67.1738 90.4443C66.8095 90.3471 66.4489 90.2499 66.0954 90.1527C65.7347 90.0663 65.3957 89.933 65.0531 89.8214C64.7141 89.7026 64.3714 89.5982 64.0504 89.4542C63.7258 89.3173 63.4048 89.1841 63.0874 89.0509C62.7773 88.9069 62.4779 88.7485 62.1786 88.6009C62.0307 88.5252 61.8828 88.4532 61.7349 88.3776C61.5907 88.302 61.45 88.2156 61.313 88.1328C61.0353 87.9708 60.7575 87.8087 60.4906 87.6503C60.2274 87.4847 59.9749 87.3047 59.726 87.1354C59.4772 86.9626 59.2247 86.8078 59.0011 86.6206C58.5503 86.2569 58.0886 85.9365 57.7063 85.5692C57.3132 85.2128 56.9237 84.8851 56.6027 84.5287C56.2745 84.1794 55.9426 83.8698 55.683 83.5386C55.4125 83.2145 55.1528 82.9193 54.9328 82.6312C54.7236 82.3396 54.5288 82.0695 54.3557 81.8283C54.1754 81.5907 54.0383 81.3675 53.9229 81.1694C53.8075 80.975 53.7065 80.813 53.6236 80.6762C53.5478 80.5501 53.4901 80.4493 53.4432 80.3701C53.4035 80.3017 53.3855 80.2657 53.3891 80.2621C53.3891 80.2621 53.418 80.2945 53.4613 80.3593C53.5117 80.4349 53.5767 80.5321 53.656 80.6545C53.7426 80.7878 53.8472 80.9498 53.9698 81.137C54.0888 81.3314 54.2331 81.5511 54.417 81.7851C54.5938 82.0227 54.7921 82.2856 55.0049 82.5736C55.2285 82.8545 55.4918 83.1461 55.7623 83.4665C56.0256 83.7942 56.3574 84.1002 56.6892 84.4423C57.0138 84.7915 57.4033 85.1156 57.7965 85.4648C58.1824 85.8285 58.6404 86.1417 59.0913 86.5018C59.3149 86.6854 59.5673 86.8366 59.8162 87.0058C60.0651 87.1715 60.3175 87.3479 60.5808 87.5099C60.8513 87.6647 61.1218 87.8231 61.3995 87.9852C61.5402 88.0644 61.6772 88.1508 61.8215 88.2264C61.9694 88.2984 62.1136 88.3704 62.2651 88.446C62.5645 88.59 62.8602 88.7485 63.1704 88.8889C63.4842 89.0185 63.8052 89.1517 64.1262 89.2849C64.4436 89.429 64.7862 89.5298 65.1216 89.6486C65.4606 89.7602 65.7997 89.8934 66.1567 89.9762C66.5102 90.0699 66.8672 90.1671 67.2279 90.2607C67.5958 90.3327 67.9637 90.4047 68.3388 90.4767C69.8355 90.7323 71.4152 90.844 73.0274 90.7612C74.636 90.6531 76.1905 90.3543 77.6476 89.9258C78.0082 89.8106 78.3689 89.6954 78.7223 89.5802C79.0686 89.4434 79.4112 89.3066 79.7502 89.1697C80.0929 89.0437 80.4139 88.8745 80.7385 88.7233C81.0595 88.5648 81.3841 88.428 81.6834 88.2444C81.9864 88.0716 82.2893 87.9024 82.5851 87.7367C82.8772 87.5603 83.1513 87.3695 83.4327 87.1931C83.5697 87.103 83.7104 87.013 83.8438 86.923C83.9773 86.8294 84.1035 86.7286 84.2333 86.635C84.4894 86.4441 84.7419 86.2533 84.9907 86.0661C85.2324 85.8717 85.4596 85.6664 85.6904 85.472C85.914 85.274 86.1485 85.094 86.3504 84.8851C86.7544 84.4747 87.1728 84.111 87.5118 83.7042C87.8616 83.3081 88.2079 82.9445 88.4892 82.5556C88.7777 82.1776 89.0699 81.8355 89.2935 81.4791C89.5243 81.1298 89.7515 80.8094 89.9427 80.5033C90.123 80.1937 90.2853 79.9056 90.4332 79.65C90.5883 79.398 90.7037 79.1603 90.8011 78.9551C90.8985 78.7535 90.985 78.5807 91.0535 78.4366C91.1185 78.3034 91.1726 78.199 91.2122 78.1198C91.2483 78.0478 91.2699 78.0118 91.2735 78.0154L91.2699 78.0262Z" fill="#263238"/>
<path d="M83.9516 91.0278C83.9516 91.0278 83.811 91.1394 83.5405 91.3123C83.27 91.4887 82.866 91.7155 82.3575 91.9784C81.3368 92.5004 79.8581 93.1053 78.1485 93.505C76.4389 93.901 74.8448 94.0126 73.6979 93.9946C73.1244 93.9874 72.6592 93.9586 72.3418 93.9226C72.0244 93.8866 71.8477 93.8614 71.8477 93.8506C71.8477 93.8362 72.028 93.8398 72.3454 93.8506C72.6628 93.865 73.128 93.8722 73.6943 93.865C74.834 93.8506 76.4101 93.7174 78.1016 93.325C79.7931 92.9289 81.2647 92.3528 82.2926 91.8631C82.8083 91.6183 83.2195 91.4095 83.4972 91.2547C83.7785 91.1034 83.9372 91.0242 83.9444 91.035L83.9516 91.0278Z" fill="#263238"/>
<path d="M168.101 34.1399H95.3581C91.9606 34.1399 89.2051 31.3891 89.2051 27.9974C89.2051 24.6058 91.9606 21.855 95.3581 21.855H168.101C171.498 21.855 174.254 24.6058 174.254 27.9974C174.254 31.3891 171.498 34.1399 168.101 34.1399Z" fill="#FAFAFA"/>
<path d="M168.101 34.1399C168.101 34.1399 168.264 34.1255 168.574 34.1075C168.888 34.0859 169.349 34.0139 169.937 33.8411C170.518 33.6503 171.218 33.3334 171.914 32.7754C172.617 32.2281 173.288 31.4072 173.746 30.345C173.962 29.8085 174.114 29.2145 174.182 28.5772C174.24 27.9399 174.193 27.2594 174.034 26.5753C173.717 25.2143 172.848 23.8245 171.47 22.9244C170.785 22.4743 169.984 22.1467 169.118 22.0027C168.256 21.8622 167.337 21.9307 166.399 21.9126C164.524 21.9126 162.54 21.9162 160.455 21.9199C143.792 21.9271 120.778 21.9379 95.3586 21.9487C93.7897 21.9451 92.246 22.5751 91.1387 23.6553C90.0243 24.7246 89.3571 26.226 89.3066 27.7491C89.238 29.2721 89.7718 30.7951 90.7528 31.9292C91.7266 33.0706 93.126 33.8267 94.5939 33.9959C95.3225 34.0787 96.0763 34.0391 96.8192 34.0499C97.5622 34.0499 98.3016 34.0499 99.0373 34.0499C100.509 34.0499 101.966 34.0499 103.405 34.0499C106.287 34.0499 109.111 34.0499 111.866 34.0499C122.881 34.0571 132.799 34.0643 141.131 34.0715C149.459 34.0823 156.199 34.0931 160.859 34.1003C163.186 34.1075 164.992 34.1147 166.222 34.1183C166.832 34.1219 167.301 34.1255 167.618 34.1291C167.932 34.1291 168.094 34.1399 168.094 34.1399C168.094 34.1399 167.932 34.1471 167.618 34.1507C167.301 34.1507 166.835 34.1543 166.222 34.1615C164.992 34.1651 163.186 34.1723 160.859 34.1795C156.196 34.1867 149.459 34.1976 141.131 34.2084C132.799 34.2156 122.881 34.2192 111.866 34.23C109.111 34.23 106.29 34.23 103.405 34.23C101.962 34.23 100.505 34.23 99.0373 34.23C98.3016 34.23 97.5622 34.23 96.8192 34.23C96.0763 34.2192 95.3333 34.2588 94.5723 34.1759C93.0575 34.0031 91.6148 33.2254 90.6122 32.0481C89.5987 30.8779 89.0505 29.3081 89.119 27.7383C89.1731 26.1684 89.8584 24.6202 91.0089 23.5185C92.1486 22.4059 93.7428 21.7542 95.3586 21.7578C120.778 21.7686 143.792 21.7794 160.455 21.7866C162.536 21.7866 164.52 21.7902 166.399 21.7938C167.337 21.8118 168.253 21.7434 169.137 21.891C170.017 22.0387 170.832 22.3735 171.528 22.8344C172.927 23.7561 173.804 25.1675 174.121 26.5537C174.283 27.2486 174.323 27.9363 174.265 28.5844C174.193 29.2289 174.038 29.8337 173.814 30.3738C173.346 31.4468 172.664 32.2713 171.95 32.8222C171.239 33.3802 170.532 33.6935 169.948 33.8807C169.357 34.0463 168.888 34.1147 168.574 34.1291C168.26 34.1435 168.098 34.1435 168.098 34.1435L168.101 34.1399Z" fill="#263238"/>
<path d="M136.017 32.6781H95.3954C92.8058 32.6781 90.7031 30.5826 90.7031 27.9938C90.7031 25.4087 92.8022 23.3096 95.3954 23.3096H136.017C138.607 23.3096 140.71 25.4051 140.71 27.9938C140.71 30.579 138.61 32.6781 136.017 32.6781Z" fill="#FF00FF"/>
<g opacity="0.4">
<path d="M96.7539 32.6779L102.582 23.313H108.829L103.116 32.6779H96.7539Z" fill="white"/>
</g>
<g opacity="0.4">
<path d="M109.277 32.6779L115.106 23.313H121.352L115.639 32.6779H109.277Z" fill="white"/>
</g>
<g opacity="0.4">
<path d="M122.719 32.6779L128.547 23.313H134.794L129.085 32.6779H122.719Z" fill="white"/>
</g>
<path d="M122.178 17.9341C122.178 18.6434 121.644 19.0862 120.79 19.0862H120.148V19.9648H119.408V16.7783H120.79C121.644 16.7783 122.178 17.2212 122.178 17.9341ZM121.428 17.9341C121.428 17.5848 121.201 17.3796 120.75 17.3796H120.148V18.485H120.75C121.201 18.485 121.428 18.2797 121.428 17.9341Z" fill="#263238"/>
<path d="M124.739 19.9648L124.123 19.0754H123.444V19.9648H122.705V16.7783H124.086C124.941 16.7783 125.475 17.2212 125.475 17.9341C125.475 18.4129 125.233 18.7622 124.819 18.9422L125.536 19.9684H124.743L124.739 19.9648ZM124.047 17.376H123.444V18.4886H124.047C124.498 18.4886 124.725 18.2797 124.725 17.9341C124.725 17.5884 124.498 17.3796 124.047 17.3796V17.376Z" fill="#263238"/>
<path d="M125.854 18.3697C125.854 17.4228 126.593 16.7207 127.599 16.7207C128.605 16.7207 129.345 17.4192 129.345 18.3697C129.345 19.3203 128.602 20.0188 127.599 20.0188C126.596 20.0188 125.854 19.3167 125.854 18.3697ZM128.602 18.3697C128.602 17.7648 128.173 17.3508 127.603 17.3508C127.033 17.3508 126.604 17.7648 126.604 18.3697C126.604 18.9746 127.033 19.3887 127.603 19.3887C128.173 19.3887 128.602 18.9746 128.602 18.3697Z" fill="#263238"/>
<path d="M129.705 18.3697C129.705 17.4084 130.444 16.7207 131.44 16.7207C131.992 16.7207 132.453 16.9223 132.753 17.286L132.277 17.7216C132.064 17.4768 131.793 17.3472 131.472 17.3472C130.874 17.3472 130.452 17.7648 130.452 18.3661C130.452 18.9674 130.877 19.3851 131.472 19.3851C131.793 19.3851 132.06 19.2591 132.277 19.007L132.753 19.4427C132.453 19.8099 131.992 20.0116 131.433 20.0116C130.444 20.0116 129.705 19.3239 129.705 18.3625V18.3697Z" fill="#263238"/>
<path d="M135.72 19.3743V19.9648H133.246V16.7783H135.659V17.3688H133.982V18.0601H135.464V18.6326H133.982V19.3707H135.72V19.3743Z" fill="#263238"/>
<path d="M136.057 19.6515L136.309 19.097C136.58 19.2915 136.98 19.4283 137.362 19.4283C137.799 19.4283 137.979 19.2843 137.979 19.0862C137.979 18.4885 136.122 18.899 136.122 17.7144C136.122 17.1708 136.558 16.7207 137.467 16.7207C137.867 16.7207 138.278 16.8179 138.574 17.0015L138.347 17.5632C138.051 17.394 137.745 17.3112 137.463 17.3112C137.027 17.3112 136.857 17.4768 136.857 17.6748C136.857 18.2617 138.715 17.8585 138.715 19.0286C138.715 19.5615 138.271 20.0188 137.359 20.0188C136.854 20.0188 136.342 19.8675 136.06 19.6515H136.057Z" fill="#263238"/>
<path d="M138.967 19.6515L139.219 19.097C139.49 19.2915 139.89 19.4283 140.272 19.4283C140.709 19.4283 140.889 19.2843 140.889 19.0862C140.889 18.4885 139.032 18.899 139.032 17.7144C139.032 17.1708 139.468 16.7207 140.377 16.7207C140.777 16.7207 141.188 16.8179 141.484 17.0015L141.257 17.5632C140.961 17.394 140.655 17.3112 140.373 17.3112C139.937 17.3112 139.767 17.4768 139.767 17.6748C139.767 18.2617 141.625 17.8585 141.625 19.0286C141.625 19.5615 141.181 20.0188 140.269 20.0188C139.764 20.0188 139.252 19.8675 138.97 19.6515H138.967Z" fill="#263238"/>
<path d="M227.5 139.678C227.5 139.728 176.682 139.771 114.005 139.771C51.3288 139.771 0.5 139.728 0.5 139.678C0.5 139.627 51.3071 139.584 114.005 139.584C176.704 139.584 227.5 139.627 227.5 139.678Z" fill="#263238"/>
<path d="M5.92773 130.842L9.46227 123.288L17.7179 128.012L13.4296 134.932C13.4296 134.932 10.0934 135.523 8.61109 134.612C7.12875 133.701 5.93134 130.838 5.93134 130.838L5.92773 130.842Z" fill="#FFBE9D"/>
<path d="M13.0074 135.638L13.4294 134.936C10.4214 134.385 7.92563 133.01 5.92754 130.846L3.10352 136.03L18.7023 144.592C19.4309 143.055 13.0074 135.638 13.0074 135.638Z" fill="#FF725E"/>
<path d="M3.10322 136.027L3.79209 134.759L18.5181 143.462C18.5181 143.462 19.0447 144.146 18.6984 144.589L3.09961 136.027H3.10322Z" fill="#263238"/>
<path d="M13.3028 135.696C13.2596 135.771 12.8592 135.595 12.3507 135.634C11.8385 135.659 11.467 135.883 11.4129 135.814C11.3516 135.76 11.7159 135.368 12.3326 135.332C12.9494 135.289 13.3605 135.634 13.3064 135.696H13.3028Z" fill="#263238"/>
<path d="M14.5652 137.269C14.5435 137.352 14.1396 137.301 13.7068 137.481C13.2668 137.647 13.0071 137.96 12.935 137.913C12.8556 137.885 13.0504 137.413 13.595 137.201C14.1396 136.985 14.6049 137.201 14.5652 137.269Z" fill="#263238"/>
<path d="M14.417 139.735C14.3377 139.714 14.4423 139.275 14.8679 138.965C15.2898 138.652 15.7407 138.684 15.7371 138.767C15.7443 138.853 15.3908 138.95 15.0446 139.21C14.6947 139.462 14.4964 139.768 14.417 139.735Z" fill="#263238"/>
<path d="M6.79982 134.629C6.66998 134.853 6.38505 134.932 6.16144 134.802C5.93783 134.673 5.85848 134.388 5.98832 134.165C6.11816 133.942 6.40309 133.863 6.6267 133.992C6.85031 134.122 6.92966 134.406 6.79982 134.629Z" fill="#263238"/>
<path d="M43.1191 133.928L47.2091 125.312L55.5405 125.445L51.2702 133.83C51.2702 133.83 48.5147 135.962 46.7294 135.843C44.9441 135.721 43.1191 133.928 43.1191 133.928Z" fill="#FFBE9D"/>
<path d="M51.2236 134.673L51.2705 133.83C48.2662 134.766 45.792 134.712 42.9355 133.693C42.629 134.219 42.4667 134.813 42.4558 135.418L42.3945 139.753L60.6984 140.099C60.6226 138.352 51.22 134.669 51.22 134.669L51.2236 134.673Z" fill="#FF725E"/>
<path d="M42.3945 139.757L42.4162 138.273L59.9951 139.159C59.9951 139.159 60.803 139.53 60.702 140.099L42.3981 139.753L42.3945 139.757Z" fill="#263238"/>
<path d="M51.5201 134.583C51.5165 134.673 51.0692 134.705 50.622 134.983C50.1712 135.249 49.9367 135.631 49.8538 135.595C49.7708 135.577 49.9151 135.044 50.4597 134.716C51.0007 134.385 51.5417 134.5 51.5201 134.583Z" fill="#263238"/>
<path d="M53.4241 135.415C53.4422 135.501 53.0527 135.645 52.7425 136.016C52.4215 136.38 52.3349 136.786 52.2484 136.779C52.1654 136.79 52.1113 136.268 52.508 135.814C52.8976 135.357 53.4241 135.328 53.4241 135.415Z" fill="#263238"/>
<path d="M54.4732 137.726C54.3903 137.744 54.2749 137.294 54.5129 136.811C54.7473 136.325 55.1729 136.142 55.209 136.214C55.2595 136.289 54.9818 136.545 54.7906 136.945C54.5923 137.341 54.5598 137.715 54.4696 137.722L54.4732 137.726Z" fill="#263238"/>
<path d="M45.0887 136.718C45.0779 136.984 44.8579 137.19 44.591 137.179C44.3241 137.168 44.1185 136.948 44.1293 136.682C44.1401 136.416 44.3601 136.21 44.627 136.221C44.8939 136.232 45.0995 136.455 45.0887 136.718Z" fill="#263238"/>
<path d="M91.0068 19.4931C92.435 19.2555 93.6793 18.1142 94.0291 16.7064C94.0688 16.5479 94.1085 16.3715 94.2383 16.2779C94.3501 16.1951 94.5016 16.1951 94.6423 16.1915C95.4069 16.1627 96.1751 15.8458 96.6764 15.2626C97.1778 14.6793 97.3761 13.8296 97.1092 13.1131C98.285 13.2535 99.3778 12.1121 99.3778 10.9276C99.3778 9.74299 98.4726 8.67724 97.3581 8.28119C97.9893 7.92474 98.2129 7.07502 98.0181 6.38012C97.8234 5.68523 97.2968 5.13075 96.7197 4.69869C95.9407 4.11901 94.8659 3.70855 94.0183 4.18742C94.2347 3.63294 93.8813 3.01006 93.4268 2.6248C92.2114 1.59506 90.1844 1.72108 89.0952 2.89484C88.8139 2.35117 88.4424 1.82549 87.8978 1.55186C87.3532 1.27462 86.6066 1.32502 86.2207 1.80029C86.2315 1.19901 85.7446 0.705739 85.2325 0.388895C84.861 0.162064 84.4426 -0.0179613 84.0062 0.00724223C83.5734 0.0324457 83.1298 0.306084 83.018 0.727342C82.4481 0.111657 81.395 0.0288453 80.7314 0.543717C80.0677 1.06219 79.891 2.10633 80.3491 2.80843C79.6169 2.84444 78.9136 3.2837 78.5601 3.92819C78.2067 4.57267 78.2103 5.40079 78.5746 6.03808C78.2355 5.90486 77.8532 6.26491 77.8532 6.62856C77.8532 6.99581 78.1201 7.30905 78.4195 7.51788C77.7306 8.58003 77.0417 9.63858 76.3565 10.7007C75.9129 11.3848 75.462 12.0833 75.2528 12.8718C75.0436 13.6603 75.1122 14.5641 75.6315 15.1905" fill="#263238"/>
<path d="M92.9754 16.4185C94.5047 13.7649 93.4551 9.40834 90.7465 8.00414L81.5026 4.13721L80.6226 5.527L69.1426 23.3819L75.4759 32.8296L80.2619 26.9896C80.2619 26.9896 83.865 28.599 87.3526 24.7969C89.0874 22.9066 91.2767 19.3745 92.9754 16.4257V16.4185Z" fill="#FFBE9D"/>
<path d="M90.1143 18.7301C89.9339 19.0254 89.5372 19.1154 89.227 18.9318C88.9169 18.7517 88.8123 18.3665 88.9926 18.0712C89.1729 17.776 89.5697 17.686 89.8798 17.866C90.19 18.0496 90.2946 18.4349 90.1143 18.7301Z" fill="#263238"/>
<path d="M91.0305 17.7255C90.9151 17.7507 90.7059 17.1746 90.1216 16.7894C89.5446 16.3969 88.9134 16.4149 88.899 16.2997C88.8881 16.2457 89.0432 16.1629 89.3209 16.1521C89.5951 16.1377 89.9954 16.2133 90.3597 16.4545C90.7203 16.6958 90.9403 17.0342 91.0233 17.2898C91.1099 17.5455 91.0882 17.7147 91.0341 17.7255H91.0305Z" fill="#263238"/>
<path d="M84.6553 15.5543C84.475 15.8496 84.0782 15.9396 83.768 15.756C83.4579 15.5759 83.3533 15.1871 83.5336 14.8955C83.7139 14.6002 84.1107 14.5102 84.4208 14.6902C84.731 14.8739 84.8356 15.2591 84.6553 15.5507V15.5543Z" fill="#263238"/>
<path d="M85.1497 14.1684C85.0342 14.1936 84.825 13.6175 84.2408 13.2322C83.6637 12.8398 83.0325 12.8578 83.0181 12.7426C83.0073 12.6886 83.1624 12.6058 83.4401 12.595C83.7142 12.5806 84.1145 12.6562 84.4788 12.8974C84.8431 13.1386 85.0595 13.4771 85.1424 13.7327C85.229 13.9883 85.2074 14.1576 85.1533 14.1684H85.1497Z" fill="#263238"/>
<path d="M84.4557 19.7815C84.4737 19.7455 84.8813 19.9255 85.5197 20.2388C85.6784 20.3216 85.8407 20.3864 85.9344 20.3C86.0426 20.2136 86.0859 20.0119 86.1292 19.7923C86.2302 19.3386 86.3348 18.8598 86.443 18.3593C86.9046 16.3322 87.3483 14.7048 87.4276 14.7228C87.5106 14.7408 87.2004 16.4006 86.7351 18.4277C86.6161 18.9246 86.5043 19.3999 86.3961 19.8535C86.3384 20.0623 86.3095 20.318 86.0859 20.4908C85.9705 20.5772 85.8082 20.5844 85.6964 20.5484C85.581 20.516 85.498 20.462 85.4187 20.4152C84.8056 20.0551 84.4377 19.8139 84.4557 19.7779V19.7815Z" fill="#263238"/>
<path d="M80.2612 26.9826C80.2612 26.9826 77.2929 25.2795 75.6013 21.7114C75.6013 21.7114 74.9341 25.5892 79.4316 27.9979L80.2648 26.9826H80.2612Z" fill="#EB996E"/>
<path d="M83.2739 21.0308C83.2486 20.6132 82.9817 20.2171 82.5922 20.0155C82.3217 19.8751 81.9827 19.8283 81.6906 19.9327C81.3984 20.0371 81.1712 20.3107 81.182 20.5988C81.1928 20.9264 81.4886 21.1965 81.8204 21.3009C82.1522 21.4053 82.5129 21.3801 82.8627 21.3477C82.9601 21.3369 83.0575 21.3297 83.144 21.2865C83.2306 21.2433 83.2991 21.1569 83.2883 21.0668" fill="#EB996E"/>
<path d="M82.4693 19.0469C82.5667 19.1045 82.1483 19.7418 82.39 20.5519C82.6316 21.3621 83.3529 21.7401 83.2988 21.8337C83.2808 21.8805 83.068 21.8589 82.7759 21.6753C82.4909 21.4989 82.1411 21.1388 81.9932 20.642C81.8454 20.1451 81.95 19.6806 82.1014 19.407C82.2529 19.1261 82.4296 19.0145 82.4693 19.0469Z" fill="#263238"/>
<path d="M86.7145 12.1916C86.5522 12.314 86.0184 11.8496 85.2791 11.4787C84.5469 11.0935 83.8616 10.9278 83.8652 10.7262C83.8689 10.6326 84.0672 10.5462 84.3918 10.539C84.7164 10.5318 85.1673 10.6182 85.6073 10.845C86.0473 11.0719 86.3827 11.3887 86.563 11.6551C86.747 11.9252 86.7903 12.134 86.7145 12.1916Z" fill="#263238"/>
<path d="M91.9407 15.8855C91.7495 15.9503 91.4394 15.547 90.9597 15.2194C90.4908 14.8773 90.0075 14.7153 90.0039 14.5137C90.0075 14.4201 90.159 14.3264 90.4223 14.3192C90.682 14.312 91.0462 14.4021 91.3708 14.6325C91.6954 14.8629 91.9046 15.1762 91.9804 15.421C92.0597 15.6694 92.0272 15.8459 91.9371 15.8819L91.9407 15.8855Z" fill="#263238"/>
<path d="M94.4762 10.3694C94.2381 11.3235 93.3797 12.0905 92.4059 12.2237C91.4321 12.3569 90.4042 11.842 89.9282 10.9887C90.0291 11.446 89.654 11.9104 89.2032 12.0328C88.7524 12.1553 88.2691 12.0076 87.8651 11.7736C87.0176 11.2839 86.4008 10.4054 86.2313 9.44048C85.7156 10.0346 84.9113 10.3658 84.1286 10.301C83.346 10.2362 82.6066 9.77893 82.2027 9.10564C82.4119 10.0274 81.9827 11.0643 81.1784 11.5684C80.3741 12.0724 79.256 12.004 78.5239 11.41C77.7917 10.8159 77.4924 9.73572 77.8206 8.8464C77.3878 8.19111 77.2832 7.33419 77.5429 6.58889C77.8025 5.84359 78.4229 5.2387 79.1659 4.99387C78.8268 4.57981 78.8052 3.96773 79.0036 3.46726C79.2019 2.96679 79.5951 2.56713 80.017 2.23589C81.0485 1.41857 82.383 0.921705 83.6814 1.11253C84.9798 1.29976 86.188 2.27189 86.4441 3.55727C86.473 3.70129 86.4946 3.86331 86.6028 3.96413C86.7507 4.10094 86.9851 4.06494 87.1835 4.02173C88.0599 3.81651 88.9868 3.58607 89.838 3.86331C90.8695 4.19816 91.5728 5.32871 91.4249 6.40526C92.5033 5.86879 93.9532 6.03081 94.7358 6.94534C95.5185 7.85987 95.3562 9.48729 94.3066 10.085" fill="#263238"/>
<path d="M79.3681 11.0498C78.755 11.8815 78.0192 12.6268 77.1969 13.2569C76.8471 13.5233 76.4035 13.779 75.9923 13.6241C75.6208 13.4837 75.4369 13.0337 75.4838 12.6376C75.527 12.2416 75.747 11.8851 75.9743 11.5575C76.7785 10.3837 77.7307 9.32515 78.6829 8.2666" fill="#263238"/>
<path d="M77.9968 11.1111C77.9607 11.0499 76.3557 8.94719 74.8842 11.0931C73.4127 13.2354 75.8616 14.2651 75.9049 14.2075C75.9518 14.1499 77.9932 11.1147 77.9932 11.1147L77.9968 11.1111Z" fill="#FFBE9D"/>
<path d="M75.8146 12.9474C75.8146 12.9474 75.7605 12.9474 75.6776 12.933C75.5982 12.9186 75.4792 12.8646 75.3962 12.7494C75.2267 12.5118 75.2844 12.0221 75.5405 11.6296C75.6704 11.4316 75.8363 11.2732 76.013 11.1652C76.1861 11.0536 76.3628 11.0139 76.4891 11.0716C76.6189 11.122 76.655 11.248 76.6369 11.3236C76.6261 11.4028 76.5828 11.4352 76.5901 11.4496C76.5901 11.4604 76.6622 11.446 76.7055 11.3452C76.7271 11.2984 76.7343 11.23 76.7127 11.1544C76.691 11.0788 76.6297 11.0031 76.5432 10.9599C76.37 10.8591 76.1176 10.9095 75.9264 11.0247C75.7245 11.1364 75.5297 11.3092 75.389 11.5324C75.1077 11.9753 75.05 12.5298 75.2953 12.8322C75.4179 12.9762 75.5766 13.0158 75.674 13.0086C75.7749 13.0014 75.8218 12.9618 75.8146 12.951V12.9474Z" fill="#EB996E"/>
<path d="M86.4082 8.94C86.4082 8.94 86.4262 8.9616 86.4623 9.0012C86.502 9.04081 86.5597 9.09482 86.6426 9.16323C86.8049 9.30005 87.0502 9.49447 87.4109 9.6673C87.5912 9.75371 87.8004 9.83292 88.0384 9.87613C88.2765 9.92293 88.5434 9.93733 88.8211 9.87613C89.0952 9.81492 89.3765 9.6853 89.6217 9.48007C89.8598 9.27124 90.0618 8.9724 90.1014 8.61595L89.9932 8.63035C90.2313 9.26404 90.7037 9.87973 91.371 10.2938C91.7028 10.5026 92.0815 10.6574 92.4854 10.7438C92.6874 10.7835 92.9002 10.8051 93.1166 10.7799C93.3294 10.7582 93.5494 10.679 93.7225 10.5422C93.9317 10.3838 94.0796 10.1678 94.1914 9.94814C94.3032 9.7285 94.3861 9.49807 94.4619 9.27484C94.5376 9.04801 94.5953 8.81398 94.6025 8.57635C94.6098 8.34231 94.5376 8.08308 94.3537 7.92466L94.2635 8.01107C94.5629 8.37832 94.9812 8.60875 95.4032 8.70236C95.8252 8.79958 96.2508 8.76717 96.6223 8.64115C96.9902 8.51154 97.3003 8.2811 97.5023 8.00387C97.7079 7.73023 97.8269 7.43139 97.8846 7.15415C98 6.59247 97.881 6.13521 97.7584 5.85797C97.6285 5.57713 97.5059 5.46191 97.5059 5.46191C97.4951 5.46912 97.6033 5.59513 97.7187 5.87597C97.8269 6.14961 97.9315 6.59967 97.8089 7.13975C97.7476 7.40618 97.6285 7.69062 97.4266 7.94986C97.2318 8.20909 96.9361 8.42152 96.5862 8.54394C96.2364 8.66276 95.8288 8.68796 95.4285 8.59075C95.0281 8.50074 94.6386 8.2775 94.3573 7.93546L94.2671 8.02187C94.4186 8.15149 94.4799 8.36392 94.4727 8.57995C94.4691 8.79598 94.4114 9.01921 94.3393 9.23884C94.1878 9.6745 94.0147 10.1498 93.6432 10.4414C93.3258 10.6934 92.893 10.697 92.5107 10.6178C92.1212 10.5386 91.7569 10.391 91.4395 10.1894C90.7975 9.78971 90.3359 9.19923 90.1014 8.59075L90.0185 8.37472L89.9932 8.60515C89.9572 8.92919 89.7768 9.20643 89.5568 9.40446C89.3296 9.60249 89.0663 9.72851 88.8066 9.78971C88.547 9.85452 88.2909 9.84372 88.0601 9.80412C87.8292 9.76451 87.6237 9.6925 87.4469 9.61329C87.0899 9.45127 86.841 9.26764 86.6715 9.14162C86.5056 9.01201 86.419 8.94 86.4154 8.9436L86.4082 8.94Z" fill="white"/>
<path d="M93.7109 12.4071C93.7109 12.4071 93.7326 12.4755 93.8119 12.5728C93.8877 12.67 94.0211 12.7996 94.2159 12.9076C94.4106 13.012 94.6739 13.1092 94.9841 13.0768C95.1356 13.0588 95.3051 12.994 95.4169 12.85C95.5251 12.7168 95.5864 12.5043 95.4854 12.3207L95.3772 12.3927C95.3772 12.3927 95.3989 12.4143 95.4061 12.4287C95.8677 12.976 96.5386 13.1488 96.9858 13.1344C97.213 13.1308 97.3933 13.0876 97.5124 13.048C97.6314 13.0048 97.6927 12.9724 97.6891 12.9652C97.6819 12.94 97.4222 13.0552 96.9858 13.0444C96.5602 13.0372 95.9326 12.8536 95.5071 12.3459C95.4962 12.3351 95.489 12.3243 95.4782 12.3135L95.0562 11.8311L95.37 12.3855C95.4349 12.5043 95.3989 12.6628 95.3159 12.7708C95.233 12.8788 95.0959 12.9364 94.9661 12.958C94.6956 12.994 94.4431 12.9148 94.2555 12.8284C93.8732 12.6376 93.729 12.3927 93.7109 12.4107V12.4071Z" fill="white"/>
<path d="M88.7051 16.062C88.7051 16.0836 88.8962 16.0512 89.1992 16.0656C89.4985 16.08 89.9169 16.1664 90.3137 16.3968C90.7104 16.6273 90.9881 16.9513 91.1504 17.207C91.3127 17.4626 91.3776 17.6426 91.3993 17.6354C91.4137 17.6354 91.3812 17.4374 91.2334 17.1601C91.0855 16.8829 90.8042 16.5301 90.3858 16.2852C89.9674 16.0404 89.5202 15.9684 89.2064 15.9756C88.889 15.9828 88.7051 16.0476 88.7087 16.062H88.7051Z" fill="#EB996E"/>
<path d="M82.9844 12.2561C82.9844 12.2777 83.1431 12.2561 83.3848 12.2705C83.6264 12.2849 83.9618 12.3533 84.2828 12.5405C84.6002 12.7277 84.8274 12.9834 84.9609 13.185C85.0943 13.3866 85.152 13.5342 85.1701 13.527C85.1845 13.5234 85.1593 13.365 85.0402 13.1382C84.9212 12.915 84.6904 12.6269 84.3478 12.4253C84.0051 12.2273 83.6409 12.1697 83.3884 12.1769C83.1323 12.1841 82.9808 12.2417 82.9844 12.2561Z" fill="#EB996E"/>
<path d="M81.8062 18.9244C81.8062 18.9244 81.8712 18.91 81.9577 18.8956C82.0443 18.8776 82.1669 18.874 82.2967 18.91C82.5564 18.9856 82.7656 19.1188 82.7873 19.0828C82.8017 19.0612 82.6358 18.8776 82.3292 18.784C82.1741 18.7444 82.0226 18.7624 81.9253 18.8092C81.8279 18.856 81.7918 18.9136 81.8026 18.928L81.8062 18.9244Z" fill="#EB996E"/>
<path d="M81.1894 18.9709C81.2183 18.9961 81.3697 18.8629 81.5753 18.7333C81.7809 18.6001 81.9648 18.5173 81.954 18.4812C81.9468 18.4488 81.7268 18.4776 81.5032 18.6217C81.2796 18.7657 81.157 18.9493 81.1858 18.9709H81.1894Z" fill="#EB996E"/>
<path d="M74.0151 12.6522C74.0151 12.6522 73.8312 12.6162 73.4994 12.6738C73.1748 12.7314 72.6915 12.8791 72.2262 13.2751C71.7646 13.6604 71.3678 14.3589 71.4003 15.1834C71.4111 16.0007 71.9701 16.8792 72.8574 17.2357C73.2974 17.4193 73.7879 17.4301 74.2171 17.3185C74.6499 17.2105 75.025 16.9944 75.3316 16.7316C75.9483 16.2023 76.2441 15.4606 76.2116 14.8485C76.19 14.2328 75.9267 13.7828 75.7067 13.5343C75.483 13.2787 75.3099 13.2031 75.3027 13.2103C75.2883 13.2283 75.4398 13.3363 75.6273 13.5956C75.8113 13.8512 76.0277 14.2833 76.0277 14.8485C76.0349 15.4066 75.7463 16.0727 75.1765 16.548C74.6211 17.016 73.7446 17.3257 72.9548 16.9944C72.1649 16.6776 71.66 15.9035 71.6383 15.1726C71.5987 14.4309 71.9341 13.7864 72.3489 13.4119C72.7672 13.0267 73.2181 12.8611 73.5246 12.7746C73.8348 12.6882 74.0187 12.6774 74.0151 12.6558V12.6522Z" fill="#455A64"/>
<path d="M36.1949 55.959C29.6416 61.0393 28.6425 69.0972 28.1953 73.7202C27.7481 78.3433 24.163 96.8282 24.163 96.8282C24.163 96.8282 16.672 108.44 13.985 113.362C11.2981 118.28 5.92773 128.559 5.92773 128.559L14.9047 134.101C14.9047 134.101 31.0337 112.188 33.8686 107.864C36.707 103.54 51.177 67.1349 51.177 67.1349L36.1913 55.9662L36.1949 55.959Z" fill="#28293D"/>
<path d="M57.5352 67.9412C57.986 68.8054 69.888 98.1278 69.5779 101.059C69.2677 103.989 54.4263 134.097 54.4263 134.097L43.4512 129.456L54.7364 104.454L55.0466 101.019L44.5332 81.1515L47.9343 66.4902L57.5316 67.9412H57.5352Z" fill="#28293D"/>
<path d="M49.7156 71.7903C49.7625 71.8119 48.5218 74.7607 46.9421 78.3756C45.3624 81.9941 44.0423 84.9105 43.9954 84.8889C43.9485 84.8673 45.1892 81.9185 46.769 78.3C48.3487 74.6815 49.6687 71.7687 49.7156 71.7867V71.7903Z" fill="#455A64"/>
<path d="M59.1592 102.031C59.1772 102.074 58.225 102.301 57.0853 102.02C55.942 101.75 55.199 101.117 55.2315 101.088C55.264 101.037 56.0286 101.581 57.1286 101.84C58.225 102.11 59.1555 101.977 59.1592 102.035V102.031Z" fill="#455A64"/>
<path d="M58.6854 104.911C58.6638 104.965 57.8739 104.673 56.8532 104.493C55.8362 104.306 54.9922 104.303 54.9922 104.249C54.9886 104.202 55.847 104.119 56.8893 104.31C57.9316 104.493 58.7071 104.872 58.6854 104.915V104.911Z" fill="#455A64"/>
<path d="M39.0909 61.4533C39.0909 61.4533 39.0224 61.5289 38.8781 61.6405C38.7339 61.7521 38.5139 61.9034 38.2361 62.0726C37.6771 62.411 36.862 62.8143 35.9026 63.1023C34.9433 63.3868 34.038 63.502 33.3852 63.5236C33.057 63.5344 32.7937 63.5308 32.6134 63.5164C32.4294 63.502 32.332 63.4912 32.332 63.4768C32.332 63.4444 32.736 63.448 33.378 63.3904C34.02 63.3364 34.9072 63.1995 35.8485 62.9187C36.7899 62.6343 37.6014 62.2634 38.1712 61.9538C38.7411 61.6477 39.0729 61.4245 39.0909 61.4497V61.4533Z" fill="#455A64"/>
<path d="M77.6215 31.562L87.2261 43.9405L107.373 52.1785L105.231 56.4703L79.4754 47.6923L71.043 30.4351L77.6215 31.562Z" fill="#2A77FF"/>
<g opacity="0.2">
<path d="M77.6215 31.562L87.2261 43.9405L107.373 52.1785L105.231 56.4703L79.4754 47.6923L71.043 30.4351L77.6215 31.562Z" fill="black"/>
</g>
<path d="M68.2775 24.2348C67.8664 23.8207 67.8483 23.1582 68.2378 22.7226L69.5507 21.2572C69.7274 21.0231 70.0556 20.9727 70.2936 21.1419C72.1222 22.4633 79.0434 27.7093 79.029 29.2107C79.011 30.9137 76.0787 32.6239 76.0787 32.6239L68.2811 24.2312L68.2775 24.2348Z" fill="#2A77FF"/>
<path d="M63.6995 33.3943C63.6995 33.3943 76.5609 51.1376 79.9151 53.1863C83.2693 55.235 104.332 58.1225 104.332 58.1225L105.151 51.9045L84.8346 45.402C84.8346 45.402 71.5801 25.9017 71.2411 25.34C70.902 24.7783 68.2872 22.672 65.4019 23.0393C62.5165 23.4065 61.0522 27.954 62.0477 30.2043C62.4264 31.0612 63.7031 33.3979 63.7031 33.3979L63.6995 33.3943Z" fill="#2A77FF"/>
<path d="M68.3633 23.0574C68.3633 23.0574 64.6629 21.4659 61.1103 24.7748C59.2096 26.5462 41.811 50.882 40.5848 52.513L35.5859 55.9587C43.9462 63.6422 50.4238 70.0691 59.343 72.3014L63.9884 57.2621L78.26 44.2931L68.3669 23.0538L68.3633 23.0574Z" fill="#2A77FF"/>
<path d="M62.3086 31.562C62.3086 31.562 62.3591 31.616 62.4384 31.7276C62.5286 31.8573 62.6404 32.0229 62.7775 32.2245C63.066 32.6566 63.4952 33.2794 64.0326 34.0392C65.1038 35.5622 66.6546 37.618 68.4544 39.818C70.2541 42.0179 71.9384 43.9657 73.1574 45.3807C73.7525 46.0756 74.2394 46.6409 74.5929 47.0586C74.748 47.2458 74.8778 47.397 74.9788 47.5194C75.0654 47.6274 75.1087 47.685 75.1014 47.6886C75.0942 47.6922 75.0437 47.6418 74.95 47.5446C74.8418 47.4294 74.7047 47.2854 74.5388 47.1054C74.1709 46.6985 73.6696 46.144 73.0565 45.4671C71.8158 44.0773 70.1134 42.1403 68.3101 39.9368C66.5104 37.7333 64.9703 35.6594 63.9244 34.1148C63.4014 33.3443 62.9903 32.7106 62.7198 32.2641C62.5935 32.0553 62.4925 31.8861 62.4096 31.7492C62.3411 31.6304 62.3086 31.5656 62.3122 31.562H62.3086Z" fill="#263238"/>
<path d="M105.148 51.901C105.148 51.901 105.112 51.8938 105.047 51.8758C104.971 51.8542 104.874 51.8218 104.751 51.7858C104.484 51.6994 104.102 51.5734 103.611 51.4149C102.612 51.0837 101.17 50.6048 99.3664 50.0071C95.7417 48.7902 90.6635 47.0835 84.8027 45.1141L84.7738 45.1033L84.7558 45.0781C83.4394 43.1374 82.0292 41.0599 80.5757 38.914C78.3395 35.6124 76.2116 32.4655 74.2748 29.6031C73.3082 28.1701 72.3885 26.8127 71.5302 25.5382C71.3102 25.2213 71.119 24.8973 70.8774 24.6272C70.7619 24.4868 70.6213 24.3716 70.4842 24.2564C70.3472 24.1448 70.2209 24.0151 70.0731 23.9179C69.496 23.5111 68.854 23.2698 68.2264 23.1366C66.9497 22.935 65.7451 23.2158 64.8614 23.7379C63.967 24.2528 63.3755 24.9513 63.0076 25.5742C62.8633 25.9054 62.6938 26.1862 62.6325 26.4599C62.5532 26.7263 62.4774 26.9532 62.4666 27.1476C62.4197 27.468 62.3981 27.6228 62.38 27.7273C62.3692 27.7273 62.3873 27.5256 62.4269 27.1404C62.4341 26.946 62.5027 26.7155 62.5784 26.4455C62.6325 26.1646 62.7984 25.8802 62.9427 25.5418C63.3034 24.9045 63.8985 24.1844 64.8073 23.6515C65.7018 23.1114 66.9353 22.8126 68.2481 23.0106C68.8973 23.1438 69.5573 23.3887 70.156 23.8063C70.3075 23.9035 70.4373 24.0368 70.5816 24.152C70.7223 24.2708 70.8665 24.3896 70.9892 24.5372C71.2452 24.8217 71.4364 25.1493 71.6564 25.4625C72.522 26.7335 73.4453 28.0909 74.4155 29.5203C76.3559 32.3791 78.4874 35.5223 80.7272 38.824C82.1806 40.9699 83.5872 43.051 84.9037 44.9917L84.8568 44.9556C90.7068 46.9503 95.7778 48.6786 99.3989 49.9135C101.195 50.5328 102.63 51.0297 103.626 51.3717C104.113 51.5446 104.488 51.6778 104.755 51.7714C104.877 51.8146 104.971 51.8506 105.043 51.8794C105.108 51.9046 105.141 51.919 105.141 51.919L105.148 51.901Z" fill="#263238"/>
<path d="M71.0432 43.9404C71.0432 43.9404 70.9855 44.034 70.8557 44.1852C70.7294 44.3364 70.5275 44.5417 70.2714 44.7829C69.7556 45.269 68.9838 45.8774 68.0389 46.4103C67.0939 46.9396 66.1706 47.2816 65.489 47.4689C65.1463 47.5625 64.8686 47.6273 64.6738 47.6561C64.4791 47.6885 64.3709 47.7029 64.3673 47.6885C64.3601 47.6597 64.7857 47.5589 65.4493 47.3393C66.1129 47.1232 67.0146 46.7632 67.9487 46.2411C68.8792 45.719 69.651 45.1321 70.1848 44.6785C70.7186 44.2248 71.0216 43.9116 71.0432 43.9332V43.9404Z" fill="#263238"/>
<path d="M62.7546 54.6699C62.7546 54.6699 62.5345 54.7131 62.127 54.7527C61.723 54.7995 61.1352 54.8355 60.4066 54.8607C58.9531 54.9075 56.9334 54.8391 54.7333 54.4934C52.5369 54.1442 50.5929 53.5825 49.2259 53.0856C48.5407 52.8372 47.9961 52.6212 47.6246 52.4519C47.2531 52.2863 47.0511 52.1891 47.0547 52.1783C47.0583 52.1675 47.2711 52.2395 47.6534 52.3835C48.0321 52.5312 48.584 52.7292 49.2728 52.9596C50.647 53.4205 52.5802 53.957 54.7658 54.3062C56.9514 54.6518 58.9567 54.7383 60.4066 54.7239C61.1316 54.7167 61.7194 54.6987 62.1234 54.6771C62.5273 54.6591 62.7546 54.6518 62.7546 54.6663V54.6699Z" fill="#263238"/>
<path d="M63.25 52.4881C63.2536 52.5097 62.8749 52.6285 62.2438 52.7366C61.6126 52.8446 60.7254 52.931 59.748 52.8914C58.767 52.8518 57.8905 52.697 57.2702 52.5385C56.6498 52.3801 56.282 52.2325 56.2892 52.2109C56.2964 52.1821 56.6787 52.2865 57.3026 52.4089C57.923 52.5349 58.7922 52.6645 59.7588 52.7042C60.7254 52.7402 61.5982 52.679 62.2293 52.6033C62.8605 52.5277 63.2464 52.4557 63.2536 52.4845L63.25 52.4881Z" fill="#263238"/>
<g opacity="0.2">
<path d="M64.5469 34.8921L70.3139 44.6602C70.3139 44.6602 67.0715 46.9682 65.719 47.3318C65.719 47.3318 68.6909 46.5073 71.0425 45.3407L74.0829 46.7161L64.5469 34.8957V34.8921Z" fill="black"/>
</g>
<g opacity="0.2">
<path d="M61.0565 54.7348C59.1486 55.7645 56.7358 56.1714 54.4744 55.8545C52.2094 55.5341 50.1175 54.4935 48.7578 53.0029C48.7578 53.0029 53.4645 54.2811 55.2715 54.4827C57.0784 54.6844 61.0565 54.7348 61.0565 54.7348Z" fill="black"/>
</g>
<path d="M41.8907 56.9272C41.9051 56.9848 40.989 57.1108 40.0729 57.7229C39.4345 58.1333 39.0017 58.641 38.7889 58.8931L38.7168 58.8426C38.8214 58.7238 38.8863 58.6626 38.9007 58.6734C38.9152 58.6842 38.8755 58.7598 38.7889 58.8967L38.7168 58.8462C38.8827 58.5582 39.3047 57.9965 39.9683 57.5717C40.9313 56.9308 41.8979 56.884 41.8907 56.9308V56.9272Z" fill="#263238"/>
<path d="M46.641 60.78C46.6806 60.8052 46.2226 61.5289 45.4544 62.2418C44.6862 62.9583 43.9324 63.3615 43.9071 63.3183C43.8783 63.2715 44.5744 62.8034 45.3245 62.1049C46.0783 61.4064 46.5941 60.7476 46.641 60.78Z" fill="#263238"/>
<path d="M51.6607 64.9998C51.7039 65.0214 51.3144 65.8208 50.5931 66.6345C49.879 67.4554 49.136 67.945 49.1108 67.9054C49.0747 67.8622 49.7527 67.315 50.4524 66.512C51.1557 65.7127 51.6102 64.971 51.6607 64.9998Z" fill="#263238"/>
<path d="M56.9369 67.1025C56.9838 67.1025 56.9116 67.9847 56.4644 68.964C56.0208 69.9469 55.4041 70.577 55.3716 70.5446C55.3283 70.5086 55.8657 69.8389 56.2949 68.8884C56.7313 67.9379 56.8828 67.0953 56.9405 67.1061L56.9369 67.1025Z" fill="#263238"/>
<path d="M69.6228 23.5398C69.6012 23.529 69.6409 23.3886 69.7563 23.1798C69.8717 22.9745 70.0881 22.7081 70.3983 22.5101C70.7084 22.3084 71.0222 22.2112 71.2494 22.1536C71.4767 22.0996 71.6209 22.0888 71.6281 22.114C71.6498 22.1752 71.0763 22.3084 70.4993 22.6685C69.9258 23.0393 69.6769 23.5758 69.6228 23.5434V23.5398Z" fill="#263238"/>
<path d="M72.1436 26.0096C72.1004 25.9916 72.3384 25.4227 72.9083 24.9366C73.4745 24.447 74.0768 24.2957 74.084 24.3426C74.1057 24.3966 73.5611 24.6162 73.0309 25.0807C72.4935 25.5379 72.1905 26.0384 72.1436 26.0096Z" fill="#263238"/>
<path d="M77.0987 27.0541C77.142 27.0721 76.7813 27.8354 76.0492 28.5591C75.3206 29.2864 74.556 29.6428 74.538 29.5996C74.5091 29.5492 75.2124 29.1316 75.9157 28.4259C76.6262 27.7274 77.0482 27.0253 77.0987 27.0541Z" fill="#263238"/>
<path d="M104.869 52.175L107.783 48.1857L109.94 47.714L114.603 46.7671C114.603 46.7671 115.148 47.0911 114.488 47.9048L114.113 48.2109L115.92 48.1641C115.92 48.1641 116.024 49.0174 115.094 49.4963L112.05 50.3784L110.903 50.724C110.903 50.724 113.305 50.8897 114.138 50.5908C114.975 50.292 115.718 50.328 115.718 50.328C115.718 50.328 116.219 50.8393 115.599 51.5017C114.978 52.1642 113.153 52.3659 112.721 52.4739C112.288 52.5819 110.748 52.6179 110.748 52.6179C110.748 52.6179 111.357 53.0248 112.396 53.014C113.435 53.0032 114.506 53.0356 114.506 53.0356C114.506 53.0356 114.56 54.0221 113.925 54.2165C113.29 54.4073 110.495 54.3569 110.495 54.3569L109.723 54.7782C109.723 54.7782 107.664 56.9457 106.939 57.2553C106.218 57.565 104.324 58.1231 104.324 58.1231L104.865 52.175H104.869Z" fill="#FFBE9D"/>
<path d="M114.354 48.2648C114.361 48.2864 114.102 48.4232 113.655 48.5853C113.207 48.7473 112.573 48.9273 111.855 49.0425C111.137 49.1541 110.473 49.1757 110.001 49.1577C109.525 49.1397 109.233 49.0893 109.236 49.0677C109.236 49.0101 110.409 49.0857 111.826 48.8589C113.243 48.6429 114.336 48.2108 114.358 48.2684L114.354 48.2648Z" fill="#EB996E"/>
<path d="M151.8 125.124C151.8 125.124 144.125 116.307 141.229 107.486C138.332 98.668 139.707 99.6798 139.707 99.6798C139.707 99.6798 143.616 108.245 146.585 112.382C149.553 116.519 154.84 122.593 154.84 122.593L151.8 125.124Z" fill="#455A64"/>
<path d="M153.329 101.055C153.08 100.623 152.424 100.85 152.496 101.34C152.965 104.436 153.974 111.705 153.935 116.422C153.884 122.547 153.935 124.916 153.935 124.916H157.13C157.13 124.916 156.564 112.256 155.843 108.393C155.338 105.685 154.263 102.683 153.329 101.055Z" fill="#455A64"/>
<path d="M155.07 123.883C155.07 123.883 157.079 119.663 157.7 114.359C157.963 112.105 157.494 109.059 156.794 104.991C156.455 103.021 156.38 101.524 156.39 100.483C156.398 99.6981 157.436 99.4425 157.822 100.127C158.208 100.814 159.323 103.158 159.607 104.631C160.379 108.645 161.256 110.651 160.589 114.46C159.918 118.269 157.443 124.135 157.443 124.135L155.07 123.879V123.883Z" fill="#455A64"/>
<path d="M157.949 124.142C157.949 124.142 166.378 106.063 166.958 103.381C167.543 100.699 169.53 94.5166 169.761 94.8695C169.995 95.2187 170.345 98.4844 168.827 102.214C167.308 105.945 160.823 124.692 160.823 124.692H157.945" fill="#455A64"/>
<path d="M154.149 123.332C154.149 123.332 154.062 123.281 153.914 123.169C153.766 123.058 153.539 122.896 153.261 122.673C152.699 122.233 151.913 121.564 150.996 120.678C149.157 118.914 146.867 116.195 144.883 112.843C142.896 109.495 141.558 106.218 140.71 103.82C140.285 102.621 139.978 101.639 139.776 100.954C139.671 100.612 139.603 100.346 139.552 100.166C139.506 99.9859 139.48 99.8887 139.488 99.8887C139.495 99.8887 139.527 99.9787 139.589 100.155C139.653 100.35 139.736 100.609 139.845 100.933C140.065 101.61 140.393 102.585 140.833 103.777C141.709 106.161 143.062 109.416 145.042 112.753C147.018 116.091 149.28 118.809 151.09 120.588C151.992 121.484 152.764 122.165 153.308 122.619C153.579 122.853 153.795 123.018 153.939 123.141C154.084 123.26 154.156 123.328 154.152 123.332H154.149Z" fill="#263238"/>
<path d="M155.07 114.658C155.07 114.658 155.03 114.471 154.994 114.129C154.955 113.754 154.901 113.268 154.839 112.678C154.706 111.453 154.497 109.768 154.201 107.914C153.902 106.06 153.57 104.393 153.314 103.19C153.187 102.614 153.086 102.135 153.007 101.764C152.935 101.43 152.899 101.239 152.913 101.239C152.924 101.239 152.982 101.419 153.076 101.75C153.169 102.081 153.296 102.564 153.44 103.165C153.728 104.364 154.082 106.031 154.381 107.889C154.681 109.747 154.868 111.439 154.969 112.667C155.02 113.282 155.052 113.779 155.066 114.121C155.081 114.467 155.085 114.658 155.074 114.658H155.07Z" fill="#263238"/>
<path d="M157.043 99.9897C157.043 99.9897 157.083 100.065 157.144 100.22C157.209 100.389 157.292 100.613 157.397 100.893C157.508 101.185 157.635 101.545 157.757 101.97C157.883 102.395 158.046 102.874 158.168 103.417C158.233 103.687 158.305 103.972 158.378 104.267C158.45 104.562 158.5 104.876 158.561 105.196C158.699 105.837 158.785 106.535 158.886 107.263C159.052 108.728 159.142 110.352 159.088 112.055C159.02 113.758 158.814 115.371 158.543 116.822C158.388 117.542 158.255 118.233 158.071 118.864C157.984 119.18 157.912 119.49 157.818 119.778C157.725 120.066 157.635 120.347 157.548 120.61C157.386 121.143 157.191 121.611 157.036 122.025C156.884 122.442 156.729 122.792 156.599 123.073C156.477 123.343 156.376 123.559 156.3 123.724C156.232 123.872 156.192 123.947 156.185 123.947C156.177 123.947 156.206 123.865 156.268 123.71C156.336 123.541 156.426 123.321 156.535 123.047C156.657 122.763 156.801 122.41 156.942 121.992C157.086 121.575 157.274 121.11 157.429 120.574C157.512 120.307 157.598 120.03 157.685 119.742C157.772 119.45 157.84 119.144 157.927 118.828C158.103 118.197 158.233 117.513 158.381 116.793C158.641 115.349 158.839 113.744 158.908 112.051C158.962 110.359 158.875 108.746 158.72 107.284C158.623 106.557 158.543 105.862 158.414 105.225C158.352 104.904 158.305 104.591 158.24 104.296C158.172 104.001 158.107 103.716 158.046 103.446C157.934 102.903 157.779 102.424 157.663 101.999C157.552 101.57 157.433 101.21 157.332 100.915C157.241 100.634 157.166 100.407 157.112 100.235C157.065 100.076 157.039 99.9934 157.047 99.9934L157.043 99.9897Z" fill="#263238"/>
<path d="M169.666 95.2295C169.666 95.2295 169.666 95.2583 169.659 95.3123C169.648 95.3771 169.638 95.4527 169.623 95.5463C169.587 95.7516 169.54 96.0576 169.457 96.4465C169.295 97.2242 169.024 98.3439 168.603 99.7013C168.184 101.059 167.607 102.654 166.925 104.4C166.247 106.15 165.454 108.058 164.707 110.089C163.946 112.116 163.362 114.093 162.814 115.889C162.269 117.686 161.753 119.299 161.252 120.627C160.758 121.96 160.282 123.011 159.921 123.72C159.748 124.077 159.593 124.347 159.492 124.53C159.445 124.613 159.406 124.682 159.373 124.736C159.344 124.782 159.33 124.804 159.326 124.804C159.326 124.804 159.333 124.775 159.355 124.728C159.384 124.671 159.416 124.599 159.456 124.512C159.546 124.325 159.69 124.051 159.853 123.691C160.192 122.975 160.65 121.92 161.126 120.588C161.609 119.256 162.111 117.643 162.648 115.842C163.189 114.046 163.77 112.062 164.534 110.028C165.284 107.993 166.078 106.089 166.767 104.342C167.456 102.6 168.043 101.015 168.476 99.6653C168.913 98.3151 169.201 97.2062 169.385 96.4321C169.479 96.0468 169.537 95.7444 169.584 95.5391C169.605 95.4455 169.623 95.3699 169.638 95.3087C169.652 95.2583 169.659 95.2295 169.663 95.2295H169.666Z" fill="#263238"/>
<path d="M143.681 91.2368C143.151 90.7111 142.268 91.262 142.488 91.9749C142.711 92.6986 143.047 93.6347 143.548 94.6933C144.706 97.1524 148.11 105.97 149.701 110.813C151.295 115.655 153.538 124.693 153.538 124.693L156.94 124.142C156.94 124.142 153.827 109.297 150.787 103.947C148.345 99.6476 145.9 93.4367 143.681 91.2368Z" fill="#455A64"/>
<path d="M150.631 113.844C150.631 113.844 150.703 113.985 150.808 114.251C150.909 114.518 151.046 114.906 151.201 115.392C151.514 116.361 151.897 117.715 152.283 119.216C152.669 120.721 152.99 122.089 153.213 123.08C153.314 123.548 153.401 123.944 153.469 124.257C153.527 124.534 153.552 124.693 153.538 124.693C153.527 124.693 153.477 124.545 153.401 124.271C153.318 123.962 153.213 123.573 153.091 123.108C152.831 122.086 152.488 120.743 152.11 119.259C151.724 117.758 151.359 116.404 151.078 115.428C150.945 114.968 150.829 114.582 150.743 114.273C150.66 113.999 150.624 113.848 150.634 113.844H150.631Z" fill="#263238"/>
<path d="M155.248 124.415C155.248 124.415 155.237 124.386 155.23 124.325C155.219 124.253 155.209 124.167 155.191 124.059C155.154 123.825 155.122 123.475 155.05 123.029C154.924 122.136 154.704 120.851 154.336 119.285C153.972 117.715 153.441 115.871 152.745 113.859C152.049 111.846 151.173 109.671 150.181 107.424C148.179 102.931 146.181 98.9453 144.868 95.9965C144.205 94.5275 143.689 93.3249 143.35 92.4896C143.177 92.0719 143.054 91.7443 142.968 91.5247C142.928 91.4202 142.899 91.3374 142.874 91.2726C142.852 91.215 142.845 91.1862 142.849 91.1826C142.849 91.1826 142.867 91.2078 142.892 91.2654C142.921 91.3302 142.957 91.4131 143.004 91.5103C143.105 91.7407 143.242 92.0575 143.418 92.4644C143.775 93.2925 144.309 94.4843 144.987 95.9461C146.329 98.8769 148.345 102.852 150.35 107.356C151.342 109.61 152.215 111.788 152.908 113.812C153.6 115.832 154.119 117.686 154.466 119.263C154.815 120.84 155.021 122.133 155.126 123.029C155.187 123.475 155.209 123.828 155.23 124.062C155.237 124.17 155.245 124.26 155.252 124.332C155.255 124.394 155.255 124.426 155.252 124.426L155.248 124.415Z" fill="#263238"/>
<path d="M156.94 124.142C156.94 124.142 156.886 123.94 156.825 123.573C156.756 123.173 156.67 122.647 156.561 122.01C156.327 120.696 155.97 118.881 155.454 116.908C154.946 114.935 154.372 113.178 153.928 111.914C153.712 111.306 153.532 110.805 153.398 110.424C153.272 110.071 153.207 109.876 153.218 109.869C153.229 109.866 153.315 110.053 153.463 110.398C153.611 110.744 153.813 111.245 154.051 111.871C154.524 113.124 155.119 114.881 155.631 116.861C156.147 118.842 156.486 120.663 156.688 121.985C156.785 122.647 156.857 123.184 156.897 123.558C156.936 123.929 156.954 124.138 156.944 124.138L156.94 124.142Z" fill="#263238"/>
<path d="M163.919 123.652H150.643V139.8H163.919V123.652Z" fill="#FF725E"/>
<g opacity="0.3">
<path d="M163.919 123.652H150.643V139.8H163.919V123.652Z" fill="black"/>
</g>
<path d="M159.684 123.652H147.904V139.8H159.684V123.652Z" fill="#FF725E"/>
</g>
<defs>
<clipPath id="clip0_356_8968">
<rect width="227" height="144.592" fill="white" transform="translate(0.5)"/>
</clipPath>
</defs>
</svg>
