<svg width="20" height="23" viewBox="0 0 20 23" fill="none" xmlns="http://www.w3.org/2000/svg">
<path d="M11.3291 22.5L11.0541 19.475H9.95405C7.33239 19.475 5.09572 18.5492 3.24405 16.6975C1.39239 14.8458 0.466553 12.6092 0.466553 9.9875C0.466553 7.36583 1.39697 5.12917 3.2578 3.2775C5.11864 1.42583 7.36905 0.5 10.0091 0.5C11.3107 0.5 12.5161 0.73375 13.6253 1.20125C14.7345 1.66875 15.7016 2.32417 16.5266 3.1675C17.3516 4.01083 17.9978 5.00542 18.4653 6.15125C18.9328 7.29708 19.1666 8.54833 19.1666 9.905C19.1666 11.115 18.9878 12.325 18.6303 13.535C18.2728 14.745 17.7549 15.9 17.0766 17C16.3982 18.1 15.5732 19.1175 14.6016 20.0525C13.6299 20.9875 12.5391 21.8033 11.3291 22.5ZM12.7041 19.53C14.2074 18.265 15.3853 16.7754 16.2378 15.0613C17.0903 13.3471 17.5166 11.6283 17.5166 9.905C17.5166 7.63167 16.8061 5.77083 15.3853 4.3225C13.9645 2.87417 12.1724 2.15 10.0091 2.15C7.80905 2.15 5.94364 2.91542 4.4128 4.44625C2.88197 5.97708 2.11655 7.82417 2.11655 9.9875C2.11655 12.1508 2.88197 13.9979 4.4128 15.5288C5.94364 17.0596 7.79072 17.825 9.95405 17.825H12.7041V19.53ZM10.0091 16.3675C10.3024 16.3675 10.5499 16.2667 10.7516 16.065C10.9532 15.8633 11.0541 15.6158 11.0541 15.3225C11.0541 15.0292 10.9532 14.7817 10.7516 14.58C10.5499 14.3783 10.3024 14.2775 10.0091 14.2775C9.71572 14.2775 9.46822 14.3783 9.26655 14.58C9.06489 14.7817 8.96405 15.0292 8.96405 15.3225C8.96405 15.6158 9.06489 15.8633 9.26655 16.065C9.46822 16.2667 9.71572 16.3675 10.0091 16.3675ZM9.26655 12.6275H10.6416C10.6416 12.1692 10.7195 11.7888 10.8753 11.4863C11.0311 11.1838 11.3566 10.785 11.8516 10.29C12.3466 9.795 12.6949 9.34125 12.8966 8.92875C13.0982 8.51625 13.1991 8.07167 13.1991 7.595C13.1991 6.77 12.9195 6.09167 12.3603 5.56C11.8011 5.02833 11.0541 4.7625 10.1191 4.7625C9.34905 4.7625 8.66155 4.96417 8.05655 5.3675C7.45155 5.77083 7.00239 6.32083 6.70905 7.0175L7.97405 7.54C8.17572 7.06333 8.4553 6.71042 8.8128 6.48125C9.1703 6.25208 9.57822 6.1375 10.0366 6.1375C10.5866 6.1375 11.0174 6.27042 11.3291 6.53625C11.6407 6.80208 11.7966 7.155 11.7966 7.595C11.7966 7.94333 11.6957 8.29625 11.4941 8.65375C11.2924 9.01125 10.9349 9.45583 10.4216 9.9875C9.92655 10.5008 9.6103 10.9133 9.4728 11.225C9.3353 11.5367 9.26655 12.0042 9.26655 12.6275Z" fill="#8F90A6"/>
</svg>
