<svg width="16" height="20" viewBox="0 0 16 20" fill="none" xmlns="http://www.w3.org/2000/svg">
<path d="M13.625 20H2.375C1.34167 20 0.5 19.1592 0.5 18.125V9.375C0.5 8.34083 1.34167 7.5 2.375 7.5H13.625C14.6583 7.5 15.5 8.34083 15.5 9.375V18.125C15.5 19.1592 14.6583 20 13.625 20ZM2.375 8.75C2.03083 8.75 1.75 9.03 1.75 9.375V18.125C1.75 18.47 2.03083 18.75 2.375 18.75H13.625C13.9692 18.75 14.25 18.47 14.25 18.125V9.375C14.25 9.03 13.9692 8.75 13.625 8.75H2.375Z" fill="white"/>
<path d="M12.375 8.75C12.03 8.75 11.75 8.47 11.75 8.125V5C11.75 2.9325 10.0675 1.25 8 1.25C5.9325 1.25 4.25 2.9325 4.25 5V8.125C4.25 8.47 3.97 8.75 3.625 8.75C3.28 8.75 3 8.47 3 8.125V5C3 2.2425 5.2425 0 8 0C10.7575 0 13 2.2425 13 5V8.125C13 8.47 12.72 8.75 12.375 8.75Z" fill="white"/>
<path d="M7.99998 14.1666C7.08081 14.1666 6.33331 13.4191 6.33331 12.5C6.33331 11.5808 7.08081 10.8333 7.99998 10.8333C8.91915 10.8333 9.66665 11.5808 9.66665 12.5C9.66665 13.4191 8.91915 14.1666 7.99998 14.1666ZM7.99998 12.0833C7.77081 12.0833 7.58331 12.27 7.58331 12.5C7.58331 12.73 7.77081 12.9166 7.99998 12.9166C8.22915 12.9166 8.41665 12.73 8.41665 12.5C8.41665 12.27 8.22915 12.0833 7.99998 12.0833Z" fill="white"/>
<path d="M8 16.6667C7.655 16.6667 7.375 16.3867 7.375 16.0417V13.75C7.375 13.405 7.655 13.125 8 13.125C8.345 13.125 8.625 13.405 8.625 13.75V16.0417C8.625 16.3867 8.345 16.6667 8 16.6667Z" fill="white"/>
</svg>
