<svg width="260" height="194" viewBox="0 0 260 194" fill="none" xmlns="http://www.w3.org/2000/svg">
<g clip-path="url(#clip0_511_10011)">
<path d="M259.5 170.119H0.5V170.249H259.5V170.119Z" fill="#EBEBEB"/>
<path d="M233.549 178.454H216.393V178.584H233.549V178.454Z" fill="#EBEBEB"/>
<path d="M172.072 179.862H167.57V179.992H172.072V179.862Z" fill="#EBEBEB"/>
<path d="M215.874 173.646H205.934V173.776H215.874V173.646Z" fill="#EBEBEB"/>
<path d="M50.0462 174.517H27.6738V174.646H50.0462V174.517Z" fill="#EBEBEB"/>
<path d="M57.9411 174.517H54.6621V174.646H57.9411V174.517Z" fill="#EBEBEB"/>
<path d="M117.128 176.703H68.6016V176.833H117.128V176.703Z" fill="#EBEBEB"/>
<path d="M123.271 147.016H23.2449C21.6132 147.016 20.2871 145.69 20.2871 144.059V3.45778C20.2871 1.82608 21.6132 0.5 23.2449 0.5H123.271C124.902 0.5 126.228 1.82608 126.228 3.45778V144.059C126.228 145.69 124.902 147.016 123.271 147.016ZM23.2449 0.6295C21.6857 0.6295 20.4166 1.8986 20.4166 3.45778V144.059C20.4166 145.618 21.6857 146.887 23.2449 146.887H123.271C124.83 146.887 126.099 145.618 126.099 144.059V3.45778C126.099 1.8986 124.83 0.6295 123.271 0.6295H23.2449Z" fill="#EBEBEB"/>
<path d="M235.314 147.016H135.288C133.656 147.016 132.33 145.69 132.33 144.059V3.45778C132.33 1.82608 133.656 0.5 135.288 0.5H235.314C236.945 0.5 238.271 1.82608 238.271 3.45778V144.059C238.271 145.69 236.945 147.016 235.314 147.016ZM135.288 0.6295C133.729 0.6295 132.46 1.8986 132.46 3.45778V144.059C132.46 145.618 133.729 146.887 135.288 146.887H235.314C236.873 146.887 238.142 145.618 238.142 144.059V3.45778C238.142 1.8986 236.873 0.6295 235.314 0.6295H135.288Z" fill="#EBEBEB"/>
<path d="M204.116 11.4863H52.9688V82.2037H204.116V11.4863Z" fill="#E6E6E6"/>
<path d="M206.391 11.4863H54.0312V82.2037H206.391V11.4863Z" fill="#F0F0F0"/>
<path d="M204.116 82.2041H52.9688V85.8094H204.116V82.2041Z" fill="#E6E6E6"/>
<path d="M210.182 82.2041H57.8223V85.8094H210.182V82.2041Z" fill="#F0F0F0"/>
<path d="M203.199 79.0175V14.6768L57.2164 14.6768V79.0175L203.199 79.0175Z" fill="#FAFAFA"/>
<path d="M72.8809 79.0175L81.7542 14.6768H95.6003L86.727 79.0175H72.8809Z" fill="white"/>
<path d="M58.6928 75.8428C58.5684 75.8428 58.4648 75.7392 58.4648 75.6149V16.7494C58.4648 16.6251 58.5684 16.5215 58.6928 16.5215C58.8171 16.5215 58.9207 16.6251 58.9207 16.7494V75.6149C58.9207 75.7392 58.8171 75.8428 58.6928 75.8428Z" fill="#F0F0F0"/>
<path d="M89.6992 79.0175L98.5726 14.6768H103.97L95.0968 79.0175H89.6992Z" fill="white"/>
<path d="M203.199 79.0175V14.6768H202.795V79.0175H203.199Z" fill="#E6E6E6"/>
<path opacity="0.6" d="M207.14 19.4789H55.9984L55.7031 15.915H206.85L207.14 19.4789Z" fill="#EBEBEB"/>
<path opacity="0.6" d="M207.14 25.3327H55.9984L55.7031 21.7637H206.85L207.14 25.3327Z" fill="#EBEBEB"/>
<path opacity="0.6" d="M207.14 31.181H55.9984L55.7031 27.6172H206.85L207.14 31.181Z" fill="#EBEBEB"/>
<path opacity="0.6" d="M207.14 37.0339H55.9984L55.7031 33.4648H206.85L207.14 37.0339Z" fill="#EBEBEB"/>
<path opacity="0.6" d="M207.14 42.8822H55.9984L55.7031 39.3184H206.85L207.14 42.8822Z" fill="#EBEBEB"/>
<path opacity="0.6" d="M207.14 48.736H55.9984L55.7031 45.167H206.85L207.14 48.736Z" fill="#EBEBEB"/>
<path d="M227.902 99.9814H204.836V170.119H227.902V99.9814Z" fill="#E6E6E6"/>
<path d="M221.743 170.119H227.902V160.438H215.283L221.743 170.119Z" fill="#FAFAFA"/>
<path d="M165.012 99.9814H141.945V170.119H165.012V99.9814Z" fill="#E6E6E6"/>
<path d="M227.902 99.9814H159.635V166.788H227.902V99.9814Z" fill="#FAFAFA"/>
<path d="M165.794 170.119H159.635V160.438H172.253L165.794 170.119Z" fill="#FAFAFA"/>
<path d="M223.12 124.871H164.41V141.587H223.12V124.871Z" fill="#F0F0F0"/>
<path d="M223.12 145.167H164.41V161.883H223.12V145.167Z" fill="#F0F0F0"/>
<path d="M173.637 123.426H213.896V124.239C213.896 125.575 212.813 126.658 211.477 126.658H176.061C174.725 126.658 173.642 125.575 173.642 124.239V123.426H173.637Z" fill="#FAFAFA"/>
<path d="M223.12 104.581H164.41V121.297H223.12V104.581Z" fill="#F0F0F0"/>
<path d="M173.637 103.136H213.896V103.949C213.896 105.285 212.813 106.368 211.477 106.368H176.061C174.725 106.368 173.642 105.285 173.642 103.949V103.136H173.637Z" fill="#FAFAFA"/>
<path d="M173.637 143.716H213.896V144.529C213.896 145.866 212.813 146.948 211.477 146.948H176.061C174.725 146.948 173.642 145.866 173.642 144.529V143.716H173.637Z" fill="#FAFAFA"/>
<path d="M28.1725 114.931C29.4571 111.243 39.5892 116.257 43.7021 122.375C46.4423 126.446 48.1155 130.792 48.8925 136.63C48.7992 129.969 48.6905 122.81 48.5869 116.055C47.7529 114.372 45.857 110.487 44.4895 107.41C39.9311 97.1431 29.0945 93.3203 25.3494 86.8401C20.4439 78.3449 20.4698 65.6073 24.6501 61.0126C28.2812 57.0188 40.2937 84.0325 41.6508 87.0473C46.3077 97.428 47.6596 105.131 48.5351 112.595C48.4366 106.25 48.3382 100.427 48.2605 95.931C48.0067 81.2716 47.6855 76.5578 47.5405 75.1074C47.038 74.3977 46.4475 73.5741 46.1004 73.1286C43.1945 69.3835 36.7402 64.9287 33.513 59.4845C28.8044 51.5384 29.5659 42.0279 32.8655 38.4848C36.3206 34.7811 42.4227 43.5353 45.6653 52.2066C48.908 60.8779 47.5198 69.1763 48.4314 76.3817C48.6231 77.7958 48.8148 83.1571 49.0012 90.6008C49.9854 82.5925 51.9435 77.2312 55.5747 72.2325C60.0398 66.0838 63.8937 58.5987 67.5715 59.5622C71.2493 60.5309 69.2706 70.435 66.3594 77.3918C63.7694 83.587 50.9852 89.7616 49.0997 94.7448C49.3224 104.83 49.5193 117.609 49.6591 129.508C50.6692 123.364 49.9751 122.846 54.1035 113.434C56.5589 107.84 66.6236 100.94 67.8254 104.784C69.0012 108.555 67.2038 115.89 63.4016 120.981C60.3351 125.084 53.5337 125.079 51.959 127.627C51.5912 128.223 50.3791 130.497 49.685 131.808C49.8508 146.332 49.9233 159.158 49.8404 163.53L49.1826 163.577C49.2136 162.447 49.1359 155.061 49.0064 145.281C47.354 140.075 36.2377 137.039 32.8034 131.632C29.2085 125.97 26.6236 119.36 28.1673 114.936L28.1725 114.931Z" fill="#E6E6E6"/>
<path d="M38.6244 170.119H59.966C61.1315 170.119 62.1364 169.296 62.3695 168.156L63.8821 160.687H34.7031L36.2157 168.156C36.4488 169.301 37.4537 170.119 38.6192 170.119H38.6244Z" fill="#F0F0F0"/>
<path d="M34.0978 163.577H64.4941C65.2244 163.577 65.8357 163.027 65.9186 162.307L66.5402 156.786C66.6334 155.936 65.9704 155.195 65.1157 155.195H33.4762C32.6215 155.195 31.9585 155.936 32.0517 156.786L32.6733 162.307C32.7562 163.033 33.3674 163.577 34.0978 163.577Z" fill="#F0F0F0"/>
<path d="M92.6235 136.563H74.3848V170.12H92.6235V136.563Z" fill="#E0E0E0"/>
<path d="M139.108 170.119H78.0411L71.623 124.587H132.69L139.108 170.119Z" fill="#E6E6E6"/>
<path d="M148.018 170.119H80.4656L74.0527 124.587H141.6L148.018 170.119Z" fill="#F0F0F0"/>
<path d="M87.0798 162.996L81.6719 131.704H134.99L140.392 162.996H87.0798Z" fill="white"/>
<path d="M109.987 162.996L91.8672 131.704H97.5496L115.674 162.996H109.987Z" fill="#FAFAFA"/>
<path d="M118.082 162.996L99.957 131.704H109.654L127.774 162.996H118.082Z" fill="#FAFAFA"/>
<path d="M129.999 193.512C185.468 193.512 230.435 190.886 230.435 187.648C230.435 184.409 185.468 181.784 129.999 181.784C74.5307 181.784 29.5645 184.409 29.5645 187.648C29.5645 190.886 74.5307 193.512 129.999 193.512Z" fill="#F5F5F5"/>
<path d="M40.5266 86.7883C40.4126 86.7883 40.3142 86.7003 40.309 86.5863L39.159 72.7557C39.1487 72.6366 39.2367 72.5278 39.3611 72.5174C39.475 72.5071 39.589 72.5951 39.5993 72.7194L40.7493 86.55C40.7597 86.6692 40.6716 86.778 40.5473 86.7883C40.5421 86.7883 40.5369 86.7883 40.5266 86.7883Z" fill="#2A77FF"/>
<path d="M41.21 95.0044C41.096 95.0044 40.9976 94.9163 40.9924 94.8024L40.6454 90.6169C40.635 90.4978 40.7231 90.389 40.8474 90.3786C40.9613 90.3631 41.0753 90.4563 41.0857 90.5807L41.4327 94.7661C41.4431 94.8852 41.355 94.994 41.2307 95.0044C41.2255 95.0044 41.2203 95.0044 41.21 95.0044Z" fill="#2A77FF"/>
<path d="M157.746 134.362H50.7896C48.0598 134.362 45.6407 132.129 45.4128 129.399L39.3884 56.9986C39.1605 54.2687 41.2066 52.0361 43.9365 52.0361H150.888C153.618 52.0361 156.037 54.2687 156.265 56.9986L162.289 129.399C162.517 132.129 160.471 134.362 157.741 134.362H157.746Z" fill="white"/>
<path d="M157.746 134.569H50.789C47.9504 134.569 45.4432 132.259 45.2101 129.42L39.1858 57.0192C39.0718 55.6361 39.507 54.3359 40.4135 53.3517C41.3148 52.3727 42.5683 51.834 43.941 51.834H150.892C153.731 51.834 156.238 54.1443 156.471 56.9881L162.496 129.389C162.61 130.772 162.175 132.072 161.268 133.056C160.367 134.035 159.113 134.574 157.74 134.574L157.746 134.569ZM43.941 52.2432C42.6823 52.2432 41.5375 52.7353 40.7139 53.6263C39.8903 54.5224 39.4914 55.7138 39.595 56.9777L45.6194 129.379C45.8369 132.01 48.1576 134.149 50.789 134.149H157.74C158.999 134.149 160.144 133.657 160.968 132.766C161.791 131.87 162.19 130.679 162.086 129.415L156.062 57.014C155.845 54.3825 153.524 52.2432 150.892 52.2432H43.941Z" fill="#2A77FF"/>
<path d="M150.892 52.0361H43.9404C41.2105 52.0361 39.1644 54.2687 39.3923 56.9986H156.269C156.041 54.2687 153.622 52.0361 150.892 52.0361Z" fill="#2A77FF"/>
<path d="M46.4423 54.5176C46.4889 55.1081 46.0538 55.5898 45.4633 55.5898C44.8728 55.5898 44.3548 55.1133 44.303 54.5176C44.2512 53.9219 44.6915 53.4453 45.282 53.4453C45.8725 53.4453 46.3905 53.9219 46.4423 54.5176Z" fill="white"/>
<path d="M50.7939 54.5176C50.8405 55.1081 50.4054 55.5898 49.8149 55.5898C49.2243 55.5898 48.7063 55.1133 48.6545 54.5176C48.6027 53.9219 49.043 53.4453 49.6336 53.4453C50.2241 53.4453 50.7421 53.9219 50.7939 54.5176Z" fill="white"/>
<path d="M55.1454 54.5176C55.1921 55.1081 54.7569 55.5898 54.1664 55.5898C53.5759 55.5898 53.0579 55.1133 53.0061 54.5176C52.9543 53.9271 53.3946 53.4453 53.9851 53.4453C54.5756 53.4453 55.0936 53.9219 55.1454 54.5176Z" fill="white"/>
<path d="M148.462 124.872H58.4902C56.3198 124.872 54.398 123.095 54.2167 120.93L50.0158 70.4303C49.8345 68.2598 51.461 66.4883 53.6314 66.4883H143.598C145.768 66.4883 147.69 68.265 147.871 70.4303L152.072 120.93C152.253 123.101 150.627 124.872 148.456 124.872H148.462Z" fill="#F0F0F0"/>
<path opacity="0.1" d="M120.636 75.3255L92.7623 108.882C88.9395 113.487 91.3585 120.5 97.2119 121.769L142.418 131.549C148.66 132.901 153.876 126.727 151.504 120.795L134.171 77.4596C131.928 71.8497 124.5 70.679 120.636 75.3255Z" fill="#263238"/>
<path opacity="0.1" d="M58.6005 80.0342L48.8932 106.178C47.5982 109.664 50.4006 113.305 54.1043 112.943L82.4544 110.161C86.4275 109.773 88.3907 105.131 85.8991 102.008L67.2563 78.6459C64.8113 75.5845 59.9628 76.3615 58.6005 80.0342Z" fill="#263238"/>
<path d="M130.25 66.8762L104.194 104.711C100.646 109.865 103.79 116.946 109.991 117.775L157.885 124.151C164.531 125.037 169.478 118.143 166.505 112.129L144.666 67.9226C141.832 62.1883 133.876 61.6133 130.25 66.8814V66.8762Z" fill="#FFCD1A"/>
<path d="M111.131 114.382C109.39 114.149 107.872 113.051 107.08 111.445C106.287 109.84 106.375 108.058 107.323 106.68L133.446 68.7518C134.394 67.3739 136 66.6954 137.74 66.9233C139.481 67.1564 140.998 68.2545 141.791 69.8603L163.687 114.18C164.479 115.786 164.391 117.568 163.443 118.946C162.495 120.324 160.89 121.002 159.149 120.775L111.131 114.382Z" fill="white"/>
<path d="M135.518 80.3337L138.569 80.7378C140.532 80.9968 142.039 82.7839 141.941 84.7212L141.739 88.6994C141.734 88.8445 141.713 88.9895 141.687 89.1346L139.516 101.126C139.206 102.856 137.626 103.97 135.834 103.732C134.036 103.494 132.591 101.965 132.466 100.173L131.586 87.7826C131.576 87.6375 131.576 87.4977 131.586 87.3526L131.793 83.3692C131.892 81.4267 133.565 80.0696 135.528 80.3286L135.518 80.3337ZM135.274 107.042L136.108 107.151C137.864 107.384 139.211 108.979 139.123 110.714C139.035 112.45 137.538 113.667 135.782 113.434L134.948 113.325C133.192 113.092 131.845 111.497 131.933 109.761C132.021 108.026 133.518 106.809 135.274 107.042Z" fill="#FFCD1A"/>
<path d="M68.6177 72.663L61.4641 99.7907C60.5162 103.38 63.6501 106.727 67.2968 106.017L95.0461 100.604C98.9466 99.8425 100.47 95.0769 97.7345 92.1968L77.1388 70.4823C74.4245 67.6177 69.6226 68.8506 68.6125 72.663H68.6177Z" fill="#FFCD1A"/>
<path d="M67.2451 103.821C66.235 104.018 65.1886 103.665 64.4375 102.873C63.6864 102.085 63.3963 101.023 63.6553 100.034L70.8296 72.8339C71.0886 71.8497 71.8501 71.1401 72.855 70.9432C73.8651 70.7464 74.9115 71.0986 75.6626 71.8912L96.31 93.6627C97.0611 94.4501 97.3512 95.512 97.0922 96.5013C96.8332 97.4855 96.0718 98.1952 95.0668 98.392L67.2451 103.821Z" fill="white"/>
<path d="M74.2067 79.2258L75.9731 78.8788C77.1075 78.656 78.2886 79.4123 78.6046 80.5674L79.2572 82.9347C79.2831 83.0228 79.2987 83.1108 79.3142 83.1989L80.4176 90.6374C80.5781 91.7096 79.9151 92.6627 78.8791 92.8699C77.8379 93.072 76.7449 92.4555 76.3305 91.4299L73.4608 84.3437C73.4297 84.2608 73.3987 84.1779 73.3779 84.095L72.7253 81.7226C72.4093 80.5674 73.0723 79.4537 74.2067 79.231V79.2258ZM79.2054 94.9109L79.6872 94.8176C80.7025 94.6208 81.7592 95.2942 82.0441 96.3302C82.329 97.361 81.7333 98.3607 80.718 98.5576L80.2363 98.6508C79.221 98.8477 78.1643 98.1743 77.8794 97.1383C77.5945 96.1074 78.1902 95.1077 79.2054 94.9109Z" fill="#FFCD1A"/>
<path d="M201.67 78.7598L197.65 80.0651L200.883 83.8931C200.883 83.8931 202.406 82.5981 203.234 81.1426C203.581 80.5365 203.379 79.7595 202.779 79.4073L201.67 78.7598Z" fill="#FFD2A9"/>
<path d="M195.801 83.2097L198.209 86.1364L200.882 83.8934L197.65 80.0654L195.801 83.2097Z" fill="#FFD2A9"/>
<path d="M202.971 47.498C203.955 50.1916 204.857 52.8852 205.706 55.6151C206.551 58.3501 207.354 61.0852 208.037 63.9601L208.281 65.0634L208.395 65.6384L208.452 65.9285L208.467 66.001L208.483 66.1098L208.514 66.3273C208.659 67.498 208.535 68.4201 208.374 69.2748C208.037 70.9686 207.488 72.4035 206.882 73.7969C205.649 76.563 204.173 79.0494 202.448 81.4633L199.76 79.9766C200.713 77.397 201.65 74.7397 202.355 72.1756C202.692 70.9013 202.987 69.6115 203.07 68.5029C203.111 67.959 203.08 67.4514 203.008 67.2183L202.785 66.4102L202.495 65.4519C201.681 62.8567 200.754 60.189 199.837 57.5421C198.926 54.8899 198.004 52.2118 197.123 49.5545L202.971 47.5032V47.498Z" fill="#FFD2A9"/>
<path d="M180.598 31.4711C180.665 31.7923 180.551 32.0979 180.344 32.1497C180.137 32.2015 179.909 31.9839 179.842 31.6628C179.774 31.3416 179.888 31.036 180.095 30.9842C180.303 30.9324 180.531 31.1499 180.598 31.4711Z" fill="#263238"/>
<path d="M180.583 32.0928C180.583 32.0928 180.252 34.1389 179.641 35.2422C180.319 35.6307 181.231 35.1438 181.231 35.1438L180.583 32.0928Z" fill="#630F0F"/>
<path d="M179.743 29.5134C179.681 29.5134 179.624 29.4823 179.583 29.4305C179.521 29.3424 179.541 29.2233 179.629 29.1611C179.66 29.1404 180.406 28.6276 181.385 29.0316C181.484 29.0731 181.53 29.187 181.489 29.2855C181.448 29.3839 181.334 29.4305 181.235 29.3891C180.453 29.0679 179.857 29.4771 179.852 29.4823C179.816 29.5082 179.78 29.5186 179.743 29.5186V29.5134Z" fill="#263238"/>
<path d="M191.699 32.4971C192.062 36.2578 191.528 39.8993 192.367 43.1679C192.367 43.1679 191.435 46.2034 185.877 46.2034C179.764 46.2034 183.074 43.1679 183.074 43.1679C186.441 42.3702 186.452 39.8941 185.96 37.5735L191.704 32.4971H191.699Z" fill="#FFD2A9"/>
<path d="M193.553 44.2087C194.029 43.2504 194.345 41.888 193.361 41.5461C192.278 41.168 186.492 41.0437 184.394 41.7533C182.296 42.463 182.809 44.4107 182.809 44.4107L193.558 44.2087H193.553Z" fill="#263238"/>
<path d="M206.042 180.629C206.446 180.536 206.861 180.349 207.14 180.204C207.177 180.184 207.203 180.147 207.197 180.101C207.192 180.054 207.166 180.023 207.125 180.008C206.944 179.945 205.338 179.417 204.913 179.774C204.846 179.831 204.773 179.935 204.804 180.106C204.846 180.339 204.96 180.505 205.146 180.598C205.384 180.717 205.706 180.702 206.037 180.624L206.042 180.629ZM206.809 180.132C206.104 180.453 205.529 180.562 205.245 180.417C205.12 180.355 205.043 180.241 205.017 180.075C205.001 179.992 205.027 179.961 205.053 179.94C205.27 179.754 206.161 179.94 206.809 180.132Z" fill="#FF00FF"/>
<path d="M207.12 180.215C207.12 180.215 207.156 180.2 207.172 180.184C207.198 180.158 207.208 180.117 207.198 180.08C207.182 180.029 206.778 178.801 206.177 178.506C206.022 178.428 205.861 178.418 205.706 178.475C205.468 178.563 205.437 178.728 205.442 178.822C205.463 179.329 206.561 180.075 207.068 180.215C207.084 180.215 207.105 180.215 207.12 180.215ZM205.825 178.661C205.908 178.64 205.996 178.651 206.084 178.697C206.473 178.884 206.784 179.583 206.918 179.935C206.39 179.702 205.665 179.112 205.654 178.811C205.654 178.785 205.654 178.718 205.779 178.671C205.779 178.671 205.81 178.661 205.825 178.656V178.661Z" fill="#FF00FF"/>
<path d="M177.749 183.79C178.164 183.79 178.609 183.702 178.92 183.629C178.962 183.619 178.993 183.588 178.998 183.541C179.003 183.495 178.987 183.458 178.951 183.432C178.791 183.329 177.345 182.443 176.853 182.697C176.776 182.738 176.682 182.821 176.672 182.997C176.656 183.236 176.729 183.422 176.89 183.557C177.092 183.728 177.408 183.785 177.749 183.785V183.79ZM178.609 183.479C177.853 183.629 177.268 183.603 177.024 183.396C176.915 183.308 176.869 183.179 176.879 183.013C176.884 182.93 176.915 182.904 176.947 182.889C177.206 182.759 178.024 183.137 178.609 183.479Z" fill="#FF00FF"/>
<path d="M178.889 183.634C178.889 183.634 178.93 183.629 178.946 183.619C178.977 183.598 178.998 183.562 178.993 183.52C178.993 183.463 178.884 182.179 178.361 181.754C178.226 181.645 178.076 181.598 177.91 181.619C177.656 181.65 177.589 181.806 177.573 181.899C177.48 182.396 178.371 183.375 178.837 183.629C178.853 183.639 178.868 183.639 178.889 183.639V183.634ZM177.988 181.821C178.076 181.821 178.153 181.852 178.231 181.914C178.563 182.184 178.708 182.94 178.759 183.313C178.298 182.966 177.729 182.225 177.786 181.93C177.786 181.904 177.801 181.842 177.941 181.821C177.941 181.821 177.972 181.821 177.988 181.821Z" fill="#FF00FF"/>
<path d="M183.702 183.473H179.61L179.568 174.004H183.661L183.702 183.473Z" fill="#7F3E3B"/>
<path d="M212.186 179.967L208.249 180.692L205.426 171.373L209.363 170.653L212.186 179.967Z" fill="#7F3E3B"/>
<path d="M207.503 179.64L211.973 178.583C212.134 178.547 212.299 178.624 212.367 178.775L213.853 182.157C214.009 182.509 213.786 182.929 213.413 183.007C211.849 183.349 211.072 183.437 209.103 183.903C207.896 184.188 205.426 184.903 203.758 185.302C202.126 185.69 201.541 184.079 202.198 183.768C205.13 182.364 206.104 181.163 206.912 180.039C207.057 179.837 207.27 179.697 207.508 179.64H207.503Z" fill="#263238"/>
<path d="M179.655 182.997H184.12C184.286 182.997 184.426 183.111 184.457 183.277L185.125 186.913C185.193 187.291 184.892 187.649 184.509 187.638C182.898 187.612 180.577 187.514 178.552 187.514C176.185 187.514 175.34 187.644 172.564 187.644C170.886 187.644 170.487 185.944 171.191 185.794C174.418 185.095 175.827 185.017 178.656 183.313C178.961 183.127 179.298 182.997 179.655 182.997Z" fill="#263238"/>
<path d="M201.484 44.2247C205.302 46.9079 206.447 53.8284 206.447 53.8284L197.796 58.2159C197.796 58.2159 195.6 53.9579 194.636 49.6326C193.724 45.5404 198.765 42.3133 201.479 44.2247H201.484Z" fill="#FF00FF"/>
<path opacity="0.2" d="M197.158 48.638L200.566 56.8017L197.8 58.2158C197.8 58.2158 196.593 55.8693 195.562 52.8649L197.158 48.6328V48.638Z" fill="black"/>
<path d="M176.045 62.1834C176.077 66.747 176.351 72.4242 177.03 79.469H198.9C199.169 76.2574 197.827 61.1111 201.08 45.9493C201.324 44.82 200.568 43.7219 199.428 43.5457C198.035 43.3282 196.128 43.0795 194.264 42.9915C191.477 42.8568 187.431 42.7687 184.971 42.9915C183.629 43.1106 182.318 43.3282 181.241 43.5354C179.376 43.898 177.89 45.2914 177.397 47.1303C176.926 48.8863 176.444 51.5851 176.201 55.6514C176.087 57.5266 176.03 59.6866 176.045 62.1782V62.1834Z" fill="#FF00FF"/>
<path opacity="0.2" d="M182.946 53.6C181.5 54.6619 178.734 55.1488 176.217 55.3664C176.258 54.6982 176.31 54.0662 176.367 53.4705C177.046 53.1131 177.698 52.7868 178.315 52.4863L182.946 53.6Z" fill="black"/>
<g opacity="0.2">
<path d="M179.572 174.005L179.593 179.268H183.68L183.659 174.005H179.572Z" fill="black"/>
<path d="M209.368 170.653L205.426 171.373L206.887 176.18L210.823 175.455L209.368 170.653Z" fill="black"/>
</g>
<path d="M191.12 28.0946C191.721 32.1194 192.27 34.4401 190.721 36.9731C188.385 40.7856 183.153 40.1951 181.381 36.4758C179.781 33.1244 179.071 27.1052 182.583 24.5566C186.038 22.0443 190.524 24.0697 191.125 28.0946H191.12Z" fill="#FFD2A9"/>
<path d="M182.753 31.0312C181.241 30.3681 181.381 27.975 181.842 26.9701C180.086 27.5761 177.548 27.918 177.092 26.1361C176.636 24.3542 178.19 23.774 177.237 22.2511C176.289 20.7282 179.309 19.055 180.718 21.184C182.127 23.313 185.608 22.3754 187.856 20.3189C189.493 18.8219 191.886 20.7489 190.933 22.7069C190.933 22.7069 195.854 22.3909 194.875 25.7269C193.896 29.0628 192.513 29.1871 192.834 31.5595C193.046 33.1653 193.238 36.4339 191.311 36.8949C188.98 37.4492 183.168 35.3876 182.753 31.026V31.0312Z" fill="#263238"/>
<path opacity="0.2" d="M182.722 35.3925C182.276 35.7137 181.815 36.0556 181.344 36.4182C181.354 36.4389 181.359 36.4544 181.37 36.4752C181.857 37.4956 182.608 38.283 183.488 38.8113C183.784 38.5264 183.944 37.5681 184.498 37.5837C186.14 37.6251 189.316 36.9414 189.844 35.0869L182.727 35.3925H182.722Z" fill="black"/>
<path d="M184.002 30.9739C184.116 32.0047 183.924 32.9734 183.614 33.6053C183.142 34.5533 182.412 33.9472 182.122 32.7817C181.863 31.7302 181.795 29.9742 182.469 29.4562C183.132 28.9485 183.873 29.7929 184.002 30.9739Z" fill="#7F3E3B"/>
<path d="M184.789 79.4697C184.789 79.4697 188.223 110.715 190.316 122.422C192.611 135.243 204.494 175.476 204.494 175.476L211.818 173.917C211.818 173.917 203.639 136.274 202.536 123.583C201.339 109.809 198.899 79.4697 198.899 79.4697H184.789Z" fill="#2A77FF"/>
<path opacity="0.3" d="M184.789 79.4697C184.789 79.4697 188.223 110.715 190.316 122.422C192.611 135.243 204.494 175.476 204.494 175.476L211.818 173.917C211.818 173.917 203.639 136.274 202.536 123.583C201.779 114.853 200.567 100.148 198.899 79.4697H184.789Z" fill="black"/>
<path d="M202.856 173.005C202.825 173.01 204.104 175.678 204.104 175.678L212.346 173.922L211.755 171.425L202.856 173.005Z" fill="#263238"/>
<path opacity="0.2" d="M187.29 90.6014C192.615 91.6529 191.274 111.663 190.232 121.951C188.969 114.678 187.244 100.682 186.078 90.7464C186.441 90.5703 186.845 90.5133 187.29 90.6014Z" fill="black"/>
<path d="M177.028 79.469C177.028 79.469 175.283 110.036 175.246 122.504C175.21 135.475 178.101 177.936 178.101 177.936H185.026C185.026 177.936 186.891 136.231 187.689 123.494C188.559 109.606 191.403 79.4639 191.403 79.4639H177.028V79.469Z" fill="#2A77FF"/>
<path opacity="0.3" d="M177.028 79.469C177.028 79.469 175.283 110.036 175.246 122.504C175.21 135.475 178.101 177.936 178.101 177.936H185.026C185.026 177.936 186.891 136.231 187.689 123.494C188.559 109.606 191.403 79.4639 191.403 79.4639H177.028V79.469Z" fill="black"/>
<path d="M176.879 175.181C176.848 175.181 177.159 178.056 177.159 178.056H185.587L185.913 175.491L176.879 175.181Z" fill="#263238"/>
<path d="M185.695 50.6379C184.867 50.7208 184.167 50.7622 183.411 50.783C182.665 50.8089 181.924 50.8192 181.178 50.814C179.692 50.7985 178.2 50.7208 176.698 50.555C175.196 50.3945 173.688 50.151 172.17 49.778C170.653 49.4102 169.119 48.9026 167.602 48.1567L167.431 48.0738C166.089 47.4159 165.54 45.7946 166.198 44.4582C166.27 44.3131 166.364 44.1629 166.457 44.0386C167.167 43.0855 167.85 42.4224 168.555 41.7957C169.254 41.1741 169.953 40.6198 170.658 40.0914C172.067 39.0295 173.507 38.092 174.952 37.1803C176.408 36.279 177.874 35.4294 179.36 34.6162C180.857 33.8185 182.344 33.0311 183.898 32.3059C184.67 31.9485 185.587 32.2852 185.949 33.057C186.26 33.7252 186.053 34.5022 185.488 34.9322L185.473 34.9477C184.167 35.9474 182.831 36.9368 181.531 37.9521C180.22 38.957 178.92 39.9671 177.651 40.9928C176.377 42.008 175.133 43.0544 173.958 44.1059C173.372 44.6343 172.808 45.1678 172.305 45.7065C171.808 46.2349 171.336 46.784 171.083 47.1984L169.933 43.0751C170.989 43.4843 172.176 43.7796 173.414 44.0023C174.657 44.2199 175.947 44.3597 177.252 44.4478C178.563 44.5307 179.889 44.5721 181.22 44.5773C181.888 44.5773 182.556 44.5773 183.219 44.5566C183.872 44.5307 184.577 44.51 185.157 44.4789H185.229C186.939 44.3805 188.399 45.6858 188.498 47.3952C188.591 49.058 187.348 50.4877 185.706 50.6535L185.695 50.6379Z" fill="#FFD2A9"/>
<path d="M188.597 31.4616L185.996 32.0365C185.996 32.0365 182.531 31.6066 181.738 34.2173L183.79 35.9682L186.96 36.4706C187.462 36.5483 187.975 36.4706 188.431 36.2323L189.239 35.8128C189.612 35.6211 189.861 35.2533 189.897 34.8337L190.088 32.7773C190.166 31.9485 189.41 31.2803 188.597 31.4616Z" fill="#FFD2A9"/>
<path d="M183.541 53.6622C179.184 54.8692 174.217 53.3618 174.217 53.3618L176.045 43.6079C176.045 43.6079 180.376 43.2297 183.075 43.1727C190.031 43.0277 191.394 51.4866 183.541 53.6674V53.6622Z" fill="#FF00FF"/>
</g>
<defs>
<clipPath id="clip0_511_10011">
<rect width="259" height="193.012" fill="white" transform="translate(0.5 0.5)"/>
</clipPath>
</defs>
</svg>
