<svg width="20" height="16" viewBox="0 0 20 16" fill="none" xmlns="http://www.w3.org/2000/svg">
<path d="M20 3.3125H9.975C9.83465 3.3125 9.6961 3.28093 9.5696 3.22014C9.4431 3.15934 9.3319 3.07087 9.24422 2.96128L7.68125 1.0075C7.47689 0.751227 7.21732 0.544388 6.92189 0.402407C6.62645 0.260426 6.30278 0.186966 5.975 0.187503H1.5625C1.1481 0.187503 0.750671 0.352123 0.457646 0.645149C0.16462 0.938174 0 1.3356 0 1.75L0 14.25C0 14.6644 0.16462 15.0618 0.457646 15.3549C0.750671 15.6479 1.1481 15.8125 1.5625 15.8125H18.4375C18.8519 15.8125 19.2493 15.6479 19.5424 15.3549C19.8354 15.0618 20 14.6644 20 14.25V3.3125Z" fill="#FCD354"/>
</svg>
