<svg width="20" height="23" viewBox="0 0 20 23" fill="none" xmlns="http://www.w3.org/2000/svg">
<path d="M11.8293 22.6465L11.5543 19.6215H10.4543C7.83263 19.6215 5.59596 18.6957 3.7443 16.844C1.89263 14.9923 0.966797 12.7557 0.966797 10.134C0.966797 7.51232 1.89721 5.27565 3.75805 3.42398C5.61888 1.57232 7.8693 0.646484 10.5093 0.646484C11.811 0.646484 13.0164 0.880234 14.1255 1.34773C15.2347 1.81523 16.2018 2.47065 17.0268 3.31398C17.8518 4.15732 18.498 5.1519 18.9655 6.29773C19.433 7.44357 19.6668 8.69482 19.6668 10.0515C19.6668 11.2615 19.4881 12.4715 19.1306 13.6815C18.7731 14.8915 18.2551 16.0465 17.5768 17.1465C16.8985 18.2465 16.0735 19.264 15.1018 20.199C14.1301 21.134 13.0393 21.9498 11.8293 22.6465ZM13.2043 19.6765C14.7076 18.4115 15.8855 16.9219 16.738 15.2077C17.5905 13.4936 18.0168 11.7748 18.0168 10.0515C18.0168 7.77815 17.3064 5.91732 15.8855 4.46898C14.4647 3.02065 12.6726 2.29648 10.5093 2.29648C8.3093 2.29648 6.44388 3.0619 4.91305 4.59273C3.38221 6.12357 2.6168 7.97065 2.6168 10.134C2.6168 12.2973 3.38221 14.1444 4.91305 15.6752C6.44388 17.2061 8.29096 17.9715 10.4543 17.9715H13.2043V19.6765ZM10.5093 16.514C10.8026 16.514 11.0501 16.4132 11.2518 16.2115C11.4535 16.0098 11.5543 15.7623 11.5543 15.469C11.5543 15.1757 11.4535 14.9282 11.2518 14.7265C11.0501 14.5248 10.8026 14.424 10.5093 14.424C10.216 14.424 9.96846 14.5248 9.7668 14.7265C9.56513 14.9282 9.4643 15.1757 9.4643 15.469C9.4643 15.7623 9.56513 16.0098 9.7668 16.2115C9.96846 16.4132 10.216 16.514 10.5093 16.514ZM9.7668 12.774H11.1418C11.1418 12.3157 11.2197 11.9352 11.3755 11.6327C11.5314 11.3302 11.8568 10.9315 12.3518 10.4365C12.8468 9.94148 13.1951 9.48773 13.3968 9.07524C13.5985 8.66273 13.6993 8.21815 13.6993 7.74148C13.6993 6.91648 13.4197 6.23815 12.8605 5.70648C12.3014 5.17482 11.5543 4.90898 10.6193 4.90898C9.8493 4.90898 9.1618 5.11065 8.5568 5.51398C7.9518 5.91732 7.50263 6.46732 7.2093 7.16398L8.4743 7.68648C8.67596 7.20982 8.95555 6.8569 9.31305 6.62773C9.67055 6.39857 10.0785 6.28398 10.5368 6.28398C11.0868 6.28398 11.5176 6.4169 11.8293 6.68273C12.141 6.94857 12.2968 7.30148 12.2968 7.74148C12.2968 8.08982 12.196 8.44274 11.9943 8.80023C11.7926 9.15773 11.4351 9.60232 10.9218 10.134C10.4268 10.6473 10.1105 11.0598 9.97305 11.3715C9.83555 11.6832 9.7668 12.1507 9.7668 12.774Z" fill="#2A77FF"/>
</svg>
