<svg width="20" height="17" viewBox="0 0 20 17" fill="none" xmlns="http://www.w3.org/2000/svg">
<path d="M17.5357 3.08215H11.2057C10.9487 3.08215 10.6978 2.97664 10.5244 2.7973L8.54932 0.716682C8.07456 0.243441 7.42499 -0.00374614 6.7671 4.2914e-05H2.46421C1.10551 3.85161e-06 0 1.10551 0 2.46418V14.4611C0 15.8199 1.10551 16.9254 2.46421 16.9254H17.5448H17.5471C18.905 16.9193 20.006 15.8086 20 14.4536V5.54632C20 4.18761 18.8945 3.08215 17.5357 3.08215ZM18.4928 14.4567C18.4951 14.9842 18.0678 15.416 17.5433 15.4182H2.46421C1.93672 15.4182 1.50718 14.9887 1.50718 14.4612V2.46418C1.50718 1.93668 1.93672 1.50715 2.46421 1.50637H6.78671C6.79499 1.50637 6.80327 1.50637 6.81159 1.50637C7.06327 1.50637 7.30745 1.6066 7.47171 1.76938L9.43627 3.84019C9.89744 4.31644 10.5425 4.58925 11.2057 4.58925H17.5357C18.0632 4.58925 18.4928 5.01878 18.4928 5.54628V14.4567H18.4928Z" fill="white"/>
</svg>
