<svg width="238" height="222" viewBox="0 0 238 222" fill="none" xmlns="http://www.w3.org/2000/svg">
<path d="M119.907 221.543C179.231 221.543 227.322 218.735 227.322 215.271C227.322 211.808 179.231 209 119.907 209C60.5835 209 12.4922 211.808 12.4922 215.271C12.4922 218.735 60.5835 221.543 119.907 221.543Z" fill="#E9E9F0"/>
<path d="M93.1222 74.2019L92.6125 73.9858C93.0724 72.9055 93.3327 72.0025 93.4158 71.238L93.9643 71.2989C93.8757 72.1188 93.5987 73.0662 93.1167 74.2019H93.1222ZM92.9062 67.853C91.8314 65.493 89.8314 64.0027 87.1279 63.5485L87.2221 63C90.1195 63.4875 92.258 65.0886 93.4103 67.6259L92.9062 67.853Z" fill="#2A77FF"/>
<path d="M90.0027 79.7751L84.5514 82.257L84.3021 81.7141C83.8811 80.7889 83.6428 79.9856 83.5874 79.3097C83.532 78.6338 83.6096 77.9635 83.8035 77.2987C84.0029 76.6339 84.5514 75.3652 85.46 73.4983C85.9475 72.5121 86.0694 71.7587 85.8311 71.2324C85.5929 70.7061 85.2494 70.3682 84.8062 70.2186C84.363 70.069 83.8257 70.1355 83.1941 70.4236C82.5127 70.7338 82.0584 71.2158 81.8146 71.864C81.5764 72.5177 81.6484 73.4318 82.0307 74.6063L76.1528 76.4511C75.4104 74.3182 75.4049 72.3349 76.1361 70.4956C76.8619 68.6563 78.5682 67.1273 81.244 65.9085C83.3271 64.9611 85.2107 64.6287 86.8893 64.9168C89.1662 65.299 90.7507 66.4735 91.6426 68.4347C92.0138 69.2491 92.1467 70.1355 92.0415 71.0939C91.9362 72.0523 91.4376 73.393 90.5457 75.1159C89.9307 76.3181 89.5983 77.2101 89.554 77.7918C89.5097 78.3735 89.6593 79.0327 89.9972 79.7806L90.0027 79.7751ZM85.0278 83.7916L90.867 81.1324L93.2104 86.279L87.3713 88.9382L85.0278 83.7916Z" fill="#2A77FF"/>
<path d="M76.518 92.0906L73.7425 95.8522L73.3658 95.5752C72.7231 95.1043 72.2578 94.65 71.9641 94.2068C71.6705 93.7692 71.4655 93.2816 71.3492 92.7498C71.2329 92.218 71.1276 91.1432 71.0334 89.5311C70.9891 88.6724 70.7897 88.1128 70.424 87.8469C70.0584 87.581 69.6983 87.4813 69.3382 87.5422C68.9781 87.6087 68.6401 87.858 68.3188 88.2957C67.9753 88.7666 67.8424 89.2651 67.9255 89.8025C68.0086 90.3399 68.4075 90.9327 69.1166 91.5864L65.8092 95.0822C64.4907 93.9077 63.7317 92.5559 63.5323 91.0269C63.3273 89.4978 63.909 87.8081 65.2718 85.9578C66.33 84.5174 67.4878 83.5756 68.7399 83.1324C70.4351 82.5285 71.9641 82.728 73.3159 83.7252C73.8754 84.1407 74.302 84.6947 74.5956 85.3872C74.8893 86.0797 75.061 87.1876 75.1053 88.6945C75.1441 89.7527 75.2549 90.4839 75.4488 90.8939C75.6427 91.3039 75.9917 91.6972 76.5069 92.0795L76.518 92.0906ZM74.651 96.722L77.6205 92.6889L81.1772 95.3093L78.2077 99.3424L74.651 96.722Z" fill="#2A77FF"/>
<path d="M233.407 95.3487C235.207 89.0995 234.88 82.7396 232.858 77.0445C234.437 74.7842 235.684 72.2302 236.492 69.4325C240.204 56.5687 233.44 43.1729 221.235 38.3476C218.881 21.4949 206.92 6.7696 189.519 1.75036C175.757 -2.21628 161.647 0.764241 150.922 8.61442C148.235 5.80564 144.8 3.6395 140.8 2.48718C128.734 -0.991939 116.13 5.9663 112.651 18.0324C112.07 20.049 111.787 22.0822 111.765 24.0876C99.6212 26.5363 89.2226 35.4834 85.5551 48.2088C82.2588 59.6378 85.1784 71.3882 92.3084 79.8477C91.3888 81.5153 90.6298 83.3047 90.0813 85.2105C86.1313 98.9109 94.0314 113.215 107.732 117.165C112.247 118.467 116.828 118.473 121.083 117.42C126.119 124.362 133.415 129.747 142.29 132.306C153.719 135.602 165.414 133.552 174.721 127.647C178.888 137.336 182.311 151.873 174.943 166.128C201.723 163.502 221.069 137.813 217.125 114.273C224.77 110.755 230.897 104.069 233.412 95.3487H233.407Z" fill="#E9E9F0"/>
<path d="M182.029 160.809C181.885 160.809 181.741 160.754 181.636 160.649C181.491 160.505 181.436 160.3 181.491 160.1C185.264 146.959 181.824 134.361 178.278 126.107L176.478 121.924L172.633 124.362C166.833 128.046 160.157 129.99 153.337 129.99C149.974 129.99 146.617 129.514 143.354 128.572C135.582 126.328 128.961 121.68 124.208 115.132L122.673 113.016L120.136 113.647C116.413 114.573 112.496 114.501 108.79 113.431C103.161 111.808 98.5023 108.091 95.6658 102.961C92.8349 97.8307 92.1701 91.9084 93.7933 86.2742C94.2476 84.7008 94.8847 83.1663 95.688 81.7148L96.9788 79.3769L95.2558 77.3382C88.6854 69.5434 86.4417 59.0506 89.2616 49.2725C92.4194 38.331 101.328 30.1318 112.513 27.8771L115.588 27.2566L115.621 24.1209C115.638 22.4146 115.887 20.7249 116.358 19.0962C118.673 11.0632 126.119 5.45668 134.468 5.45668C136.23 5.45668 137.991 5.70598 139.703 6.19904C142.9 7.12422 145.803 8.8804 148.096 11.2792L150.445 13.739L153.188 11.7335C160.124 6.65886 168.639 3.8667 177.165 3.8667C180.954 3.8667 184.738 4.40408 188.416 5.46776C203.79 9.89976 215.153 23.0129 217.369 38.874L217.679 41.1121L219.784 41.9431C230.31 46.1037 235.883 57.4551 232.742 68.3468C232.072 70.6625 231.036 72.8342 229.656 74.8119L228.515 76.4463L229.18 78.3298C231.014 83.4876 231.174 88.9999 229.656 94.2629C227.551 101.554 222.382 107.559 215.474 110.739L212.781 111.98L213.269 114.905C214.953 124.949 211.928 135.918 204.97 145.004C199.175 152.571 191.076 158.172 182.156 160.776C182.106 160.793 182.051 160.798 182.001 160.798L182.029 160.809ZM176.738 120.561C176.794 120.561 176.849 120.567 176.904 120.583C177.059 120.633 177.187 120.744 177.248 120.894L179.303 125.669C182.838 133.885 186.256 146.328 182.832 159.424C191.148 156.771 198.677 151.441 204.122 144.333C210.892 135.492 213.84 124.833 212.211 115.093L211.651 111.753C211.612 111.503 211.74 111.265 211.967 111.16L215.047 109.742C221.668 106.695 226.615 100.944 228.631 93.9637C230.083 88.9223 229.928 83.6482 228.172 78.7066L227.407 76.557C227.346 76.3908 227.374 76.2025 227.473 76.0529L228.781 74.1804C230.094 72.3023 231.08 70.2359 231.712 68.0421C234.692 57.7044 229.407 46.9291 219.413 42.9791L217.008 42.0318C216.826 41.9597 216.693 41.7935 216.665 41.5941L216.305 39.0346C214.15 23.6057 203.097 10.8471 188.145 6.53698C184.566 5.50654 180.882 4.98024 177.198 4.98024C168.899 4.98024 160.617 7.70038 153.875 12.631L150.739 14.9245C150.512 15.0907 150.202 15.063 150.013 14.8581L147.326 12.0493C145.166 9.78896 142.434 8.13804 139.426 7.26826C137.814 6.8029 136.158 6.56468 134.496 6.56468C126.64 6.56468 119.626 11.8443 117.449 19.4064C117.006 20.941 116.773 22.531 116.757 24.132L116.718 27.7164C116.718 27.9768 116.529 28.2039 116.275 28.2538L112.757 28.9629C101.976 31.1346 93.3944 39.0346 90.3529 49.5772C87.6383 59.0008 89.7934 69.1057 96.1312 76.618L98.0979 78.9503C98.2474 79.1276 98.2696 79.3769 98.1588 79.5763L96.6796 82.2466C95.9151 83.6261 95.3112 85.0831 94.8791 86.5789C93.339 91.925 93.9706 97.5481 96.6575 102.418C99.3499 107.287 103.771 110.822 109.117 112.362C112.635 113.376 116.352 113.442 119.887 112.567L122.79 111.847C123.006 111.791 123.238 111.875 123.371 112.057L125.128 114.478C129.731 120.827 136.147 125.331 143.681 127.503C146.844 128.417 150.102 128.877 153.359 128.877C159.969 128.877 166.434 126.988 172.062 123.42L176.456 120.633C176.544 120.578 176.65 120.545 176.755 120.545L176.738 120.561Z" fill="white"/>
<path d="M143.176 68.7677L128.329 66.4575L128.562 64.9728C128.955 62.4466 129.559 60.4411 130.379 58.9508C131.199 57.4606 132.273 56.1587 133.609 55.0285C134.944 53.9039 137.847 52.0092 142.318 49.3389C144.694 47.9484 145.996 46.5357 146.218 45.1064C146.439 43.6715 146.19 42.4915 145.47 41.5663C144.744 40.6411 143.525 40.0428 141.808 39.7769C139.957 39.4888 138.334 39.8655 136.933 40.896C135.531 41.9319 134.423 43.9485 133.609 46.9456L118.739 42.7075C120.13 37.2119 122.85 33.0402 126.911 30.1927C130.972 27.3396 136.645 26.4864 143.941 27.6221C149.619 28.5085 154.018 30.4087 157.143 33.3172C161.386 37.2617 163.093 41.9042 162.262 47.2393C161.918 49.4553 160.971 51.494 159.425 53.361C157.879 55.2279 154.987 57.3553 150.749 59.732C147.791 61.405 145.874 62.8233 144.988 63.9756C144.101 65.1335 143.498 66.7234 143.182 68.7566L143.176 68.7677ZM127.204 70.3244L143.11 72.8008L140.927 86.8281L125.022 84.3517L127.204 70.3244Z" fill="white"/>
<path d="M181.071 90.5067L172.827 83.831L173.497 83.0055C174.633 81.6039 175.713 80.5901 176.744 79.9751C177.769 79.3602 178.893 78.9447 180.107 78.7286C181.32 78.5126 183.768 78.3852 187.442 78.3464C189.386 78.3408 190.682 77.942 191.325 77.1442C191.968 76.3464 192.234 75.5376 192.123 74.7177C192.012 73.8978 191.475 73.1 190.522 72.3244C189.497 71.4934 188.372 71.1444 187.148 71.2773C185.924 71.4103 184.533 72.2468 182.976 73.7925L175.403 65.9312C178.201 63.0726 181.342 61.4882 184.832 61.189C188.322 60.8898 192.09 62.3801 196.139 65.6598C199.292 68.2137 201.303 70.9339 202.178 73.8202C203.369 77.7314 202.765 81.1718 200.361 84.1357C199.364 85.3656 198.062 86.2741 196.461 86.8669C194.854 87.4597 192.339 87.7311 188.904 87.6813C186.505 87.6536 184.832 87.8364 183.879 88.2297C182.926 88.6231 181.996 89.3821 181.082 90.5067H181.071ZM170.766 85.7921L179.597 92.9443L173.287 100.734L164.456 93.5814L170.766 85.7921Z" fill="white"/>
<path d="M183.375 42.5192L179.807 37.644L180.295 37.2895C181.126 36.6801 181.868 36.2812 182.522 36.0928C183.175 35.9045 183.851 35.838 184.555 35.8934C185.253 35.9543 186.621 36.2369 188.649 36.7466C189.718 37.0236 190.488 36.9959 190.959 36.6468C191.43 36.3034 191.69 35.8934 191.751 35.428C191.807 34.9571 191.629 34.4419 191.22 33.8768C190.776 33.2674 190.206 32.9129 189.513 32.8132C188.821 32.7079 187.934 32.9683 186.854 33.5888L183.824 28.1651C185.779 26.9962 187.735 26.5807 189.702 26.9241C191.668 27.2676 193.524 28.6305 195.275 31.0237C196.638 32.8852 197.352 34.6746 197.413 36.392C197.502 38.7188 196.671 40.5248 194.915 41.8046C194.189 42.3364 193.341 42.6467 192.372 42.7408C191.402 42.835 189.979 42.619 188.095 42.0927C186.776 41.7326 185.829 41.5885 185.247 41.6661C184.666 41.7436 184.045 42.0262 183.375 42.5137V42.5192ZM178.389 38.4307L182.211 43.6494L177.608 47.0177L173.785 41.799L178.389 38.4307Z" fill="white"/>
<path d="M45.7555 111.642C41.1739 111.642 36.5646 110.39 32.4816 107.952C26.8585 104.6 22.8864 99.4095 21.5401 93.6645C16.9752 93.3377 12.7703 91.094 9.96707 87.4819C7.93389 84.867 6.77603 81.7535 6.60429 78.4517C5.40211 77.6318 4.33843 76.6346 3.44095 75.4878C-0.930109 69.8647 -0.381649 61.9702 4.68745 57.0174C2.57671 48.0094 5.90625 38.5637 13.2135 32.8852C18.9474 28.431 26.2491 26.8632 33.3071 28.564C34.127 26.6915 35.4068 25.0516 37.0244 23.7941C39.6227 21.772 42.8581 20.8856 46.1267 21.2955C49.3952 21.7055 52.3093 23.3619 54.3259 25.9657C54.9353 26.7469 55.4449 27.6056 55.8549 28.5141C62.5195 27.4228 69.1952 30.0266 73.3447 35.3727C77.0565 40.1481 78.1756 46.4083 76.3584 52.1755C77.0842 52.796 77.7434 53.4829 78.3196 54.2253C83.0341 60.2916 81.9372 69.0669 75.8654 73.7815C74.015 75.2219 71.8212 76.1692 69.5055 76.5404C68.2977 81.061 65.7106 84.9667 62.0043 87.842C57.3285 91.4762 51.3398 92.9942 45.5006 92.0413C45.4397 97.4207 46.6917 104.717 52.7137 109.936C52.8356 110.041 52.8854 110.201 52.8522 110.357C52.819 110.512 52.7026 110.639 52.5475 110.683C50.3315 111.326 48.038 111.642 45.7389 111.642H45.7555ZM27.6895 28.7634C22.6869 28.7634 17.8062 30.4144 13.7398 33.5722C6.63753 39.0955 3.43541 48.3141 5.58493 57.0562C5.62371 57.2058 5.57385 57.3665 5.46305 57.4773C0.554612 62.1087 -0.0215491 69.6209 4.12237 74.956C5.00323 76.0917 6.06137 77.0667 7.25801 77.8534C7.37435 77.9309 7.44637 78.0584 7.45191 78.2024C7.57379 81.399 8.68179 84.4238 10.643 86.9556C13.3631 90.4569 17.4682 92.5953 21.9058 92.8225C22.0997 92.8335 22.2659 92.972 22.3102 93.1659C23.5345 98.8001 27.4015 103.919 32.9248 107.21C38.62 110.6 45.3621 111.625 51.5559 110.057C45.6114 104.495 44.5034 96.9498 44.6475 91.515C44.6475 91.3876 44.7084 91.2657 44.8081 91.1882C44.9079 91.1106 45.0353 91.0774 45.1627 91.0995C50.9188 92.1798 56.8632 90.745 61.478 87.1606C65.1012 84.3407 67.6163 80.5015 68.7409 76.0473C68.7853 75.8756 68.9293 75.7482 69.101 75.726C71.3669 75.4158 73.522 74.5072 75.3335 73.1001C81.0231 68.6791 82.0536 60.4522 77.6326 54.7627C77.0343 53.9926 76.3418 53.289 75.5773 52.6575C75.4388 52.5411 75.3834 52.3528 75.4388 52.1866C77.2892 46.6189 76.2476 40.5359 72.6522 35.91C68.6301 30.7357 62.1206 28.2538 55.661 29.4338C55.456 29.4726 55.2566 29.3618 55.179 29.1734C54.7857 28.215 54.2649 27.3175 53.6334 26.5031C51.7553 24.0877 49.0462 22.542 46.0103 22.1653C42.9744 21.783 39.9662 22.6085 37.5507 24.4866C35.9552 25.7275 34.7087 27.3729 33.9553 29.2454C33.8722 29.4504 33.6506 29.5557 33.4456 29.5058C31.5343 29.0127 29.6008 28.7745 27.684 28.7745L27.6895 28.7634Z" fill="#E9E9F0"/>
<path d="M30.3822 65.3163L22.7314 67.1168L22.5486 66.3523C22.2439 65.0504 22.1387 63.959 22.2439 63.0782C22.3492 62.1973 22.6151 61.3497 23.0417 60.5408C23.4682 59.732 24.5042 58.2417 26.1441 56.0701C27.0249 54.9288 27.374 53.987 27.2022 53.2502C27.0305 52.5134 26.6759 51.9871 26.1441 51.6824C25.6122 51.3777 24.9031 51.3278 24.0167 51.5328C23.0638 51.7599 22.3492 52.2585 21.8727 53.0341C21.3963 53.8097 21.2578 55.0064 21.4517 56.6185L13.4132 57.4938C13.0032 54.5576 13.5018 51.9982 14.909 49.8209C16.3161 47.6382 18.8978 46.1091 22.6594 45.2227C25.5845 44.5358 28.0942 44.5912 30.1772 45.3889C33.0081 46.4637 34.7477 48.3805 35.3959 51.1284C35.6673 52.2696 35.6064 53.4441 35.2297 54.6518C34.8474 55.8595 33.8668 57.4606 32.2769 59.4495C31.1744 60.8455 30.5207 61.9092 30.3212 62.6405C30.1163 63.3773 30.1384 64.2637 30.3877 65.3108L30.3822 65.3163ZM22.9475 69.2165L31.1412 67.2886L32.8419 74.5183L24.6483 76.4462L22.9475 69.2165Z" fill="#E9E9F0"/>
<path d="M49.8603 49.1561L44.5474 47.544L44.7081 47.0121C44.9851 46.1091 45.3064 45.4055 45.6832 44.9069C46.0599 44.4028 46.5197 43.9818 47.0682 43.6383C47.6166 43.2948 48.7745 42.7519 50.5473 42.0095C51.4891 41.6217 52.0375 41.173 52.1926 40.6633C52.3478 40.1536 52.3201 39.7049 52.104 39.3282C51.8879 38.9514 51.4724 38.6689 50.8575 38.4861C50.1982 38.2866 49.5833 38.3365 49.0182 38.6412C48.4531 38.9459 47.9435 39.6273 47.4892 40.6799L42.2705 38.3587C43.0627 36.4197 44.276 35.0347 45.9047 34.2037C47.539 33.3727 49.6553 33.3505 52.2647 34.1427C54.2978 34.7577 55.8047 35.6828 56.7964 36.9127C58.1426 38.5747 58.5249 40.3586 57.9487 42.2699C57.7105 43.0621 57.2562 43.7602 56.5969 44.364C55.9377 44.9679 54.7687 45.5939 53.0957 46.2476C51.9267 46.7074 51.1511 47.1229 50.7689 47.4997C50.3866 47.8764 50.0819 48.4304 49.8603 49.1561ZM43.938 48.8957L49.6276 50.6242L48.1041 55.6435L42.4145 53.915L43.938 48.8957Z" fill="#E9E9F0"/>
<path d="M150.244 210.481C149.347 210.481 148.477 209.993 148.034 209.14C145.807 204.841 143.009 199.794 137.978 194.332C137.391 193.695 137.175 192.792 137.419 191.961C139.286 185.473 142.222 176.604 142.25 176.515C142.682 175.213 144.089 174.504 145.391 174.936C146.693 175.368 147.402 176.775 146.97 178.077C146.942 178.16 144.416 185.8 142.582 192.016C147.208 197.262 150.061 202.243 152.455 206.858C153.086 208.076 152.61 209.578 151.391 210.204C151.025 210.392 150.637 210.481 150.25 210.481H150.244Z" fill="#2A77FF"/>
<path d="M154.383 212.475H135.109L145.325 206.68L153.884 207.013L154.383 212.475Z" fill="#28293D"/>
<path d="M152.542 189.123C161.314 186.38 166.583 178.262 164.31 170.991C162.037 163.719 153.082 160.048 144.31 162.79C135.537 165.533 130.269 173.65 132.542 180.922C134.815 188.193 143.769 191.865 152.542 189.123Z" fill="#28293D"/>
<path d="M104.572 166.903C103.597 166.903 102.672 166.327 102.273 165.369C101.747 164.1 102.351 162.648 103.619 162.122C105.065 161.524 105.265 160.05 105.265 160.034C105.37 158.926 106.201 158.017 107.298 157.818C107.891 157.712 108.461 157.541 109.126 157.352C112.494 156.366 116.661 155.147 129.796 158.826C142.748 151.58 142.898 137.995 142.898 137.408C142.898 136.04 144.006 134.921 145.374 134.921H145.385C146.748 134.921 147.862 136.018 147.867 137.386C147.867 138.106 147.79 155.158 131.225 163.701C130.66 163.995 130.006 164.056 129.397 163.878C116.882 160.261 113.353 161.291 110.522 162.122C110.273 162.194 110.018 162.272 109.758 162.344C109.143 163.923 107.869 165.745 105.525 166.715C105.215 166.842 104.894 166.903 104.578 166.903H104.572Z" fill="#28293D"/>
<path d="M133.618 149.125C128.904 130.389 116.345 82.0581 156.593 79.1052C192.702 76.4571 202.613 124.517 205.018 141.17C206.419 150.876 206.896 159.673 206.973 166.554C207.079 175.424 200.846 183.074 192.148 184.842C172.476 188.836 153.856 189.407 141.319 184.459C137.928 183.119 135.879 179.667 136.205 176.039C136.687 170.654 136.699 161.396 133.613 149.136L133.618 149.125Z" fill="#2A77FF"/>
<path opacity="0.1" d="M205.018 141.164C202.746 125.475 193.816 81.8641 162.548 79.1385C158.908 78.8227 155.318 80.6121 153.645 83.8585C152.249 86.5621 152.294 89.8362 154.382 93.0771C161.274 103.764 177.711 140.699 175.229 160.826C174.099 169.983 168.354 177.296 173.351 187.59C179.384 187.091 185.711 186.155 192.154 184.842C200.852 183.08 207.084 175.429 206.979 166.554C206.896 159.679 206.425 150.876 205.018 141.17V141.164Z" fill="#28293D"/>
<path d="M199.633 166.798C199.495 166.798 199.384 166.687 199.384 166.554C199.284 157.995 198.625 149.463 197.428 141.203C191.445 99.8469 175.335 78.9279 150.837 80.7339C150.704 80.7506 150.582 80.6398 150.571 80.5068C150.56 80.3683 150.665 80.252 150.798 80.2409C175.59 78.4127 191.888 99.4758 197.916 141.137C199.113 149.419 199.772 157.973 199.877 166.554C199.877 166.693 199.766 166.803 199.633 166.803V166.798Z" fill="#28293D"/>
<path d="M199.256 190.448C208.028 187.706 213.297 179.588 211.024 172.316C208.751 165.045 199.796 161.373 191.024 164.115C182.251 166.858 176.982 174.976 179.256 182.247C181.529 189.519 190.483 193.19 199.256 190.448Z" fill="#28293D"/>
<path d="M200.774 210.481C199.877 210.481 199.007 209.993 198.564 209.14C196.337 204.841 193.539 199.794 188.509 194.332C187.922 193.695 187.705 192.792 187.949 191.961C189.816 185.473 192.752 176.604 192.78 176.515C193.212 175.213 194.614 174.504 195.921 174.936C197.223 175.368 197.932 176.775 197.5 178.077C197.472 178.16 194.946 185.8 193.113 192.016C197.738 197.262 200.592 202.243 202.985 206.858C203.616 208.076 203.14 209.578 201.921 210.204C201.555 210.392 201.168 210.481 200.78 210.481H200.774Z" fill="#2A77FF"/>
<path d="M195.556 134.732C194.664 134.732 193.8 134.25 193.351 133.403C192.714 132.189 193.179 130.688 194.392 130.051C194.869 129.796 205.688 123.885 208.73 109.68C201.517 106.661 188.553 99.8525 185.717 96.4288C185.44 96.0964 185.257 95.6975 185.185 95.2764C185.118 94.9053 184.653 91.9635 185.739 89.1824L184.431 86.6562C183.8 85.4374 184.276 83.9361 185.495 83.3045C186.714 82.6729 188.215 83.1494 188.847 84.3682L190.73 88.0024C191.135 88.778 191.096 89.7087 190.636 90.4566C190.043 91.4151 189.966 92.8167 190.016 93.7308C193.207 96.6171 206.104 103.448 212.414 105.791C213.522 106.201 214.187 107.337 214.004 108.5C211.195 126.655 197.306 134.134 196.714 134.444C196.348 134.638 195.949 134.727 195.561 134.727L195.556 134.732Z" fill="#28293D"/>
<path d="M187.628 96.0853C187.395 96.0853 187.157 96.0188 186.947 95.8803C186.37 95.5036 186.21 94.7336 186.586 94.1629C186.67 94.03 188.725 90.9331 191.849 90.0966C192.509 89.9193 193.196 90.3126 193.373 90.9774C193.55 91.6422 193.157 92.3237 192.492 92.5009C190.309 93.0882 188.681 95.5036 188.664 95.5258C188.426 95.8914 188.027 96.0909 187.622 96.0909L187.628 96.0853Z" fill="#28293D"/>
<path d="M204.913 212.475H185.64L195.855 206.68L204.415 207.013L204.913 212.475Z" fill="#28293D"/>
<path d="M164.555 138.244C171.845 137.599 177.284 131.756 176.703 125.194C176.122 118.633 169.741 113.837 162.451 114.482C155.161 115.128 149.722 120.97 150.303 127.532C150.884 134.094 157.265 138.89 164.555 138.244Z" fill="white"/>
<path d="M163.767 126.539C164.77 130.057 164.017 133.358 162.078 133.907C160.144 134.455 157.762 132.051 156.759 128.533C155.756 125.015 156.51 121.713 158.449 121.165C160.388 120.616 162.764 123.021 163.767 126.539Z" fill="#28293D"/>
<path d="M148.421 128.611C156.786 127.536 173.357 122.81 176.088 120.904C173.933 114.611 163.922 109.226 154.964 112.257C146.892 114.988 148.421 128.605 148.421 128.605V128.611Z" fill="#28293D"/>
<path d="M150.045 132.655C160.427 130.683 173.928 127.37 177.789 125.242C177.551 132.018 175.584 138.882 164.98 141.198C156.316 143.092 150.039 132.649 150.039 132.649L150.045 132.655Z" fill="#28293D"/>
<path d="M141.487 139.164C145.243 136.678 145.738 130.81 142.593 126.056C139.448 121.303 133.853 119.463 130.097 121.949C126.341 124.434 125.846 130.302 128.991 135.056C132.136 139.81 137.731 141.649 141.487 139.164Z" fill="white"/>
<path d="M135.978 130.727C136.61 133.696 136.067 136.173 134.765 136.256C133.463 136.344 131.895 134.007 131.269 131.037C130.638 128.068 131.181 125.591 132.483 125.508C133.784 125.42 135.352 127.757 135.978 130.727Z" fill="#28293D"/>
<path d="M125.68 129.591C131.292 130.256 142.439 129.514 144.289 128.5C142.921 123.126 136.284 117.049 130.251 117.824C124.816 118.528 125.68 129.586 125.68 129.586V129.591Z" fill="#28293D"/>
<path d="M126.722 133.087C133.697 133.403 142.771 133.225 145.38 132.245C145.142 137.569 143.746 142.643 136.622 142.56C130.799 142.494 126.722 133.087 126.722 133.087Z" fill="#28293D"/>
<path d="M166.864 108.91C156.399 108.91 149.446 103.742 149.102 103.481C148.011 102.65 147.795 101.093 148.626 99.9966C149.452 98.9052 151.008 98.6891 152.1 99.5146C152.222 99.6032 160.482 105.631 171.955 103.454C173.307 103.199 174.603 104.085 174.858 105.431C175.113 106.778 174.226 108.079 172.88 108.334C170.769 108.733 168.758 108.905 166.864 108.905V108.91Z" fill="#28293D"/>
<path d="M122.428 104.628C122.151 104.628 121.863 104.584 121.586 104.484C120.295 104.019 119.625 102.595 120.09 101.304C121.409 97.6365 123.591 95.2543 126.583 94.2294C132.007 92.3624 137.846 95.9911 138.09 96.1462C139.247 96.8775 139.597 98.4121 138.865 99.5755C138.134 100.733 136.605 101.082 135.442 100.351C134.311 99.6475 130.805 98.0187 128.184 98.9328C126.677 99.4591 125.558 100.783 124.766 102.983C124.4 103.996 123.447 104.628 122.428 104.628Z" fill="#28293D"/>
<path d="M142.012 146.555C141.946 146.555 141.874 146.544 141.807 146.527C141.414 146.411 141.187 146.012 141.298 145.618C141.314 145.552 141.785 143.94 143.824 142.887C146.677 141.419 151.02 141.724 156.738 143.79C157.125 143.929 157.325 144.361 157.186 144.743C157.048 145.131 156.621 145.33 156.233 145.192C149.68 142.815 146.273 143.33 144.572 144.178C143.087 144.92 142.749 145.979 142.732 146.023C142.633 146.344 142.339 146.555 142.018 146.555H142.012Z" fill="#28293D"/>
<path d="M104.578 166.903C103.764 166.903 102.971 166.504 102.495 165.773C100.694 163.014 101.819 158.798 102.063 157.984C102.456 156.671 103.841 155.923 105.154 156.316C106.467 156.71 107.215 158.089 106.827 159.402C106.423 160.793 106.34 162.571 106.661 163.058C107.409 164.205 107.088 165.745 105.935 166.499C105.514 166.77 105.043 166.903 104.578 166.903Z" fill="#28293D"/>
<path d="M110.389 130.652C110.389 124.217 92.5034 119 70.4405 119C48.3776 119 30.4922 124.217 30.4922 130.652C30.4922 137.087 48.3776 142.303 70.4405 142.303C92.5034 142.303 110.389 137.087 110.389 130.652Z" fill="#FFD8FF"/>
<path d="M70.4405 165.606C92.4953 165.606 110.389 160.397 110.389 153.955V130.652C110.389 137.093 92.4953 142.303 70.4405 142.303C48.3857 142.303 30.4922 137.093 30.4922 130.652V153.955C30.4922 160.397 48.3857 165.606 70.4405 165.606Z" fill="#FFBCFF"/>
<path d="M70.4405 188.909C75.0155 188.914 79.588 188.681 84.1394 188.211C85.239 182.404 88.6664 177.301 93.6234 174.085C98.5811 170.869 104.639 169.82 110.389 171.183V153.955C110.389 160.397 92.4953 165.606 70.4405 165.606C48.3857 165.606 30.4922 160.397 30.4922 153.955V177.258C30.4922 183.7 48.3857 188.909 70.4405 188.909Z" fill="#FF99FF"/>
<path d="M83.7566 192.239C83.7566 190.887 83.8842 189.538 84.1394 188.211C79.588 188.681 75.0155 188.914 70.4405 188.91C48.3857 188.91 30.4922 183.7 30.4922 177.258V200.561C30.4922 207.003 48.3857 212.213 70.4405 212.213C78.086 212.266 85.7177 211.568 93.2276 210.132C87.3026 206.103 83.7566 199.404 83.7566 192.239Z" fill="#FF00FF"/>
<path d="M106.176 213.794C118.306 213.794 128.14 203.959 128.14 191.826C128.14 179.694 118.306 169.859 106.176 169.859C94.0456 169.859 84.2119 179.694 84.2119 191.826C84.2119 203.959 94.0456 213.794 106.176 213.794Z" fill="#FF3B64"/>
<path d="M119.726 174.535C122.655 178.268 124.402 182.974 124.402 188.087C124.402 200.219 114.568 210.055 102.438 210.055C97.3255 210.055 92.6211 208.307 88.8887 205.378C92.9097 210.502 99.1588 213.794 106.177 213.794C118.307 213.794 128.141 203.959 128.141 191.826C128.141 184.807 124.849 178.557 119.726 174.535Z" fill="#F54336"/>
<path d="M107.57 195.516H104.781C104.228 195.516 103.78 195.068 103.78 194.516V181.884C103.78 181.331 104.228 180.884 104.781 180.884H107.57C108.123 180.884 108.571 181.331 108.571 181.884V194.516C108.571 195.068 108.123 195.516 107.57 195.516Z" fill="#FFD2E3"/>
<path d="M107.57 180.884H105.763C106.315 180.884 106.763 181.331 106.763 181.884V194.515C106.763 195.068 106.315 195.516 105.763 195.516H107.57C108.123 195.516 108.571 195.068 108.571 194.515V181.884C108.571 181.331 108.123 180.884 107.57 180.884Z" fill="#F54336"/>
<path d="M106.175 203.48C104.853 203.48 103.78 202.407 103.78 201.084V201.084C103.78 199.761 104.853 198.688 106.175 198.688C107.498 198.688 108.571 199.761 108.571 201.084V201.084C108.571 202.407 107.498 203.48 106.175 203.48Z" fill="#FFD2E3"/>
<path d="M106.175 198.688C105.982 198.688 105.795 198.712 105.615 198.755C106.668 199.007 107.451 199.954 107.451 201.084C107.451 202.214 106.668 203.161 105.615 203.413C105.795 203.456 105.982 203.48 106.175 203.48C107.498 203.48 108.57 202.407 108.57 201.084C108.57 199.761 107.498 198.688 106.175 198.688Z" fill="#F54336"/>
<path d="M122.176 175.824C117.902 171.55 112.22 169.196 106.176 169.196C105.81 169.196 105.513 169.492 105.513 169.859C105.513 170.225 105.81 170.522 106.176 170.522C111.866 170.522 117.215 172.738 121.238 176.762C125.261 180.785 127.477 186.136 127.477 191.826C127.477 197.517 125.261 202.867 121.238 206.891C117.215 210.915 111.866 213.131 106.176 213.131C100.486 213.131 95.137 210.915 91.1138 206.891C87.0905 202.867 84.8748 197.517 84.8748 191.826C84.8748 186.631 86.7656 181.627 90.1986 177.736C93.6015 173.879 98.2685 171.383 103.34 170.709C103.703 170.66 103.958 170.327 103.909 169.964C103.861 169.601 103.528 169.346 103.165 169.394C97.7767 170.111 92.8187 172.762 89.2043 176.859C85.5573 180.992 83.5488 186.308 83.5488 191.826C83.5488 197.871 85.9025 203.554 90.1761 207.829C94.4498 212.103 100.132 214.457 106.176 214.457C112.22 214.457 117.902 212.103 122.176 207.829C126.449 203.554 128.803 197.871 128.803 191.826C128.803 185.781 126.449 180.098 122.176 175.824Z" fill="black"/>
<path d="M108.572 189.941C108.938 189.941 109.235 189.644 109.235 189.278V181.884C109.235 180.967 108.488 180.221 107.571 180.221H104.781C103.864 180.221 103.118 180.967 103.118 181.884V194.516C103.118 195.433 103.864 196.179 104.781 196.179H107.571C108.488 196.179 109.235 195.433 109.235 194.516V192.022C109.235 191.656 108.938 191.359 108.572 191.359C108.205 191.359 107.909 191.656 107.909 192.022V194.516C107.909 194.702 107.757 194.853 107.571 194.853H104.781C104.595 194.853 104.444 194.702 104.444 194.516V181.884C104.444 181.698 104.595 181.547 104.781 181.547H107.571C107.757 181.547 107.909 181.698 107.909 181.884V189.278C107.909 189.644 108.205 189.941 108.572 189.941Z" fill="black"/>
<path d="M106.176 198.026C104.49 198.026 103.118 199.397 103.118 201.084C103.118 202.771 104.49 204.143 106.176 204.143C107.863 204.143 109.234 202.771 109.234 201.084C109.234 199.397 107.863 198.026 106.176 198.026ZM106.176 202.817C105.221 202.817 104.444 202.04 104.444 201.084C104.444 200.129 105.221 199.352 106.176 199.352C107.131 199.352 107.908 200.129 107.908 201.084C107.908 202.04 107.131 202.817 106.176 202.817Z" fill="black"/>
</svg>
