<svg width="13" height="20" viewBox="0 0 13 20" fill="none" xmlns="http://www.w3.org/2000/svg">
<path d="M11.0859 8.14455C10.8046 8.14455 10.5396 8.21428 10.3069 8.33742C10.0071 7.8882 9.49574 7.59187 8.91637 7.59187C8.61714 7.59187 8.33607 7.67091 8.09285 7.80931C7.78843 7.39595 7.29847 7.12724 6.74687 7.12724C6.57322 7.12724 6.40568 7.15379 6.24806 7.20323V6.68168H6.38722C7.23149 6.68168 7.91829 5.99488 7.91829 5.15061V1.53092C7.91829 0.686799 7.23149 0 6.38722 0H2.76752C1.9234 0 1.2366 0.686799 1.2366 1.53092V5.15077C1.2366 5.99488 1.9234 6.68168 2.76752 6.68168H2.90683V10.3115C2.8162 10.2207 2.71442 10.1396 2.60272 10.0702C2.24277 9.84667 1.82071 9.76885 1.40689 9.8485C0.961791 9.86635 0.562468 10.0606 0.303068 10.3876C0.0305451 10.7311 -0.0640596 11.1916 0.04321 11.6512L0.813323 14.9466C1.25247 17.6961 3.39725 19.7532 3.48865 19.8397C3.59745 19.9427 3.74164 20 3.89148 20H10.4818C10.6791 20 10.8629 19.9007 10.9714 19.7359C12.1386 17.9604 12.7558 15.8989 12.7559 13.7743L12.7566 9.81524C12.7566 9.81524 12.7566 9.81524 12.7566 9.81508C12.7566 8.89391 12.007 8.14455 11.0859 8.14455ZM4.13761 18.8282C3.66535 18.3258 2.27374 16.7038 1.9675 14.7437C1.96521 14.7292 1.96246 14.7148 1.95911 14.7008L1.18426 11.3846C1.15848 11.2738 1.17145 11.1783 1.22104 11.1159C1.27048 11.0535 1.35532 11.0208 1.46854 11.01C1.52545 11.0047 1.5491 10.9979 1.6019 10.9947C1.7348 10.9867 1.87106 10.9954 1.98428 11.0657C2.0975 11.136 2.17639 11.2462 2.20676 11.3759L2.87509 14.2363C2.93094 14.4751 3.12961 14.654 3.37284 14.6845L3.41983 14.6903C3.58661 14.7112 3.75431 14.6595 3.88035 14.5482C4.00638 14.437 4.07856 14.2769 4.07856 14.1089V4.79661C4.07856 4.52149 4.30225 4.2978 4.57737 4.2978C4.85233 4.2978 5.07618 4.52149 5.07618 4.79661V10.2912C5.07618 10.6146 5.33848 10.8771 5.66212 10.8771C5.98576 10.8771 6.24806 10.6146 6.24806 10.2912V8.79793C6.24806 8.52281 6.47175 8.29912 6.74687 8.29912C7.02183 8.29912 7.24568 8.52281 7.24568 8.79793V10.3578C7.24568 10.6815 7.50798 10.9438 7.83162 10.9438C8.15526 10.9438 8.41755 10.6815 8.41755 10.3578V9.26256C8.41755 8.9876 8.6414 8.76375 8.91637 8.76375C9.19148 8.76375 9.41518 8.9876 9.41518 9.26256V10.7671C9.41518 11.0906 9.67748 11.353 10.0011 11.353C10.3248 11.353 10.5871 11.0906 10.5871 10.7671V9.81524C10.5871 9.54012 10.8109 9.31627 11.0859 9.31627C11.361 9.31627 11.5847 9.54012 11.5847 9.81508L11.5841 13.7741C11.5839 15.5651 11.0923 17.3056 10.1597 18.8282H4.13761ZM2.40848 5.15077V1.53092C2.40848 1.33301 2.56961 1.17188 2.76752 1.17188H6.38722C6.58528 1.17188 6.74641 1.33301 6.74641 1.53092V5.15077C6.74641 5.34867 6.58528 5.50981 6.38722 5.50981H6.24806V4.79646C6.24806 3.87528 5.49854 3.12577 4.57737 3.12577C3.65619 3.12577 2.90668 3.87528 2.90668 4.79646V5.50981H2.76752C2.56961 5.50981 2.40848 5.34867 2.40848 5.15077Z" fill="white"/>
</svg>
