<svg width="278" height="205" viewBox="0 0 278 205" fill="none" xmlns="http://www.w3.org/2000/svg">
<g clip-path="url(#clip0_468_10066)">
<path d="M61.9965 56.3006L10.3306 90.8618L61.2212 166.939L112.887 132.378L61.9965 56.3006Z" fill="#F5F5F5"/>
<path d="M86.1903 128.777L85.6009 132.406L59.9155 128.703L60.5049 125.075L86.1903 128.777Z" fill="#E0E0E0"/>
<path d="M73.2555 115.833L76.9394 116.363L72.8549 141.652L69.1665 141.118L73.2555 115.833Z" fill="#E0E0E0"/>
<path d="M49.5963 83.6916C49.6331 83.7468 44.4574 87.2741 38.0337 91.5703C31.6101 95.8666 26.3744 99.3064 26.3376 99.2511C26.3008 99.1958 31.4765 95.6686 37.9002 91.3723C44.3238 87.0761 49.5595 83.6363 49.5963 83.6916Z" fill="#E0E0E0"/>
<path d="M68.5956 78.921C68.6325 78.9763 60.0215 84.8013 49.3661 91.9249C38.7061 99.0531 30.0399 104.786 30.003 104.731C29.9662 104.676 38.5725 98.8551 49.2326 91.7223C59.888 84.5941 68.5588 78.8612 68.5956 78.9164V78.921Z" fill="#E0E0E0"/>
<path d="M72.4037 84.6124C72.4406 84.6677 63.8297 90.4927 53.1742 97.6163C42.5142 104.744 33.848 110.477 33.8112 110.422C33.7743 110.367 42.3806 104.546 53.0407 97.4137C63.6961 90.2855 72.3669 84.5526 72.4037 84.6078V84.6124Z" fill="#E0E0E0"/>
<path d="M76.2118 90.3087C76.2487 90.364 67.6378 96.189 56.9823 103.313C46.3223 110.441 37.6561 116.174 37.6193 116.118C37.5824 116.063 46.1887 110.243 56.8488 103.11C67.5042 95.9818 76.175 90.2488 76.2118 90.3041V90.3087Z" fill="#E0E0E0"/>
<path d="M80.0243 96.0045C80.0612 96.0598 71.4503 101.885 60.7948 109.008C50.1348 116.137 41.4686 121.87 41.4318 121.814C41.3949 121.759 50.0012 115.939 60.6613 108.806C71.3167 101.678 79.9875 95.9447 80.0243 95.9999V96.0045Z" fill="#E0E0E0"/>
<path d="M234.761 107.277L191.37 136.303L234.109 200.194L277.5 171.168L234.761 107.277Z" fill="#F5F5F5"/>
<path d="M255.084 168.157L254.591 171.205L233.018 168.097L233.511 165.049L255.084 168.157Z" fill="#E0E0E0"/>
<path d="M244.217 157.285L247.316 157.732L243.881 178.969L240.786 178.522L244.217 157.285Z" fill="#E0E0E0"/>
<path d="M224.352 130.292C224.389 130.347 220.046 133.317 214.649 136.923C209.253 140.533 204.851 143.411 204.814 143.356C204.777 143.3 209.119 140.33 214.516 136.72C219.908 133.115 224.315 130.232 224.352 130.287V130.292Z" fill="#E0E0E0"/>
<path d="M240.308 126.286C240.345 126.341 233.12 131.24 224.168 137.227C215.216 143.213 207.932 148.02 207.895 147.965C207.858 147.91 215.083 143.015 224.034 137.024C232.981 131.038 240.271 126.23 240.308 126.286Z" fill="#E0E0E0"/>
<path d="M243.508 131.065C243.545 131.121 236.32 136.02 227.368 142.006C218.416 147.993 211.132 152.8 211.095 152.745C211.058 152.689 218.283 147.795 227.235 141.804C236.182 135.818 243.471 131.01 243.508 131.065Z" fill="#E0E0E0"/>
<path d="M246.704 135.85C246.74 135.905 239.516 140.805 230.564 146.786C221.612 152.772 214.328 157.58 214.291 157.524C214.254 157.469 221.479 152.574 230.43 146.584C239.377 140.597 246.667 135.79 246.704 135.845V135.85Z" fill="#E0E0E0"/>
<path d="M249.904 140.634C249.941 140.69 242.716 145.589 233.764 151.575C224.812 157.561 217.528 162.369 217.491 162.314C217.454 162.258 224.679 157.363 233.631 151.373C242.578 145.386 249.867 140.579 249.904 140.634Z" fill="#E0E0E0"/>
<path d="M166.113 59.0949L118.768 33.7725L81.4815 103.487L128.827 128.809L166.113 59.0949Z" fill="#F5F5F5"/>
<path d="M120.726 107.001L117.724 108.028L110.098 86.9519L113.1 85.9204L120.726 107.001Z" fill="#E0E0E0"/>
<path d="M125.331 91.8789L126.427 94.9042L105.493 102.074L104.397 99.0485L125.331 91.8789Z" fill="#E0E0E0"/>
<path d="M140.204 60.7783C140.167 60.8474 135.364 58.3516 129.479 55.2019C123.59 52.0523 118.852 49.446 118.888 49.3769C118.925 49.3078 123.728 51.8036 129.613 54.9533C135.498 58.1029 140.241 60.7092 140.204 60.7783Z" fill="#E0E0E0"/>
<path d="M151.564 73.3218C151.527 73.3909 143.579 69.2144 133.817 63.9926C124.05 58.7707 116.163 54.4791 116.199 54.41C116.236 54.341 124.184 58.5175 133.951 63.7439C143.713 68.9657 151.601 73.2574 151.564 73.3264V73.3218Z" fill="#E0E0E0"/>
<path d="M148.773 78.5391C148.737 78.6082 140.789 74.4316 131.027 69.2098C121.26 63.988 113.372 59.6964 113.409 59.6273C113.446 59.5582 121.393 63.7348 131.16 68.9612C140.922 74.183 148.81 78.4746 148.773 78.5437V78.5391Z" fill="#E0E0E0"/>
<path d="M145.983 83.7564C145.946 83.8255 137.998 79.6489 128.236 74.4271C118.469 69.2053 110.581 64.9137 110.618 64.8446C110.655 64.7755 118.603 68.952 128.37 74.1785C138.132 79.4003 146.02 83.6919 145.983 83.761V83.7564Z" fill="#E0E0E0"/>
<path d="M143.192 88.9737C143.156 89.0427 135.208 84.8662 125.446 79.6444C115.679 74.4226 107.791 70.131 107.828 70.0619C107.865 69.9928 115.812 74.1693 125.579 79.3958C135.341 84.6176 143.229 88.9092 143.192 88.9783V88.9737Z" fill="#E0E0E0"/>
<path opacity="0.2" d="M143.441 0H142.253V20.2518H143.441V0Z" fill="black"/>
<path d="M115.113 44.7539H170.582C170.582 44.7539 165.461 20.2427 142.428 20.2427C121.942 20.2427 115.113 44.7539 115.113 44.7539Z" fill="#28293D"/>
<path d="M143.441 0H142.253V20.2518H143.441V0Z" fill="#28293D"/>
<path d="M266.347 202.532C266.347 202.596 206.831 202.652 133.431 202.652C60.0305 202.652 0.5 202.596 0.5 202.532C0.5 202.467 60.0028 202.412 133.431 202.412C206.858 202.412 266.347 202.467 266.347 202.532Z" fill="#263238"/>
<path d="M15.2126 173.692C16.769 173.747 18.2288 174.59 19.2556 175.764C20.2825 176.934 20.9133 178.407 21.314 179.913C22.0922 182.823 21.6133 186.263 20.7844 189.159C17.6301 188.031 15.6869 184.67 14.8074 182.901C13.4168 180.106 12.6017 174.217 15.208 173.692" fill="#18BA1D"/>
<path d="M25.3244 192.687C24.3297 191.259 24.3067 189.275 25.0941 187.718C25.8815 186.166 27.3919 185.047 29.0542 184.536C29.8232 184.301 30.7166 184.2 31.3842 184.647C32.0105 185.066 32.2822 185.885 32.1993 186.631C32.1164 187.377 31.7388 188.064 31.2922 188.667C29.7588 190.743 27.8938 192.47 25.3244 192.682" fill="#18BA1D"/>
<path d="M25.6697 202.416C25.6697 202.416 25.6052 202.204 25.5269 201.813C25.4441 201.38 25.3336 200.823 25.2046 200.155C24.956 198.76 24.5599 196.775 24.8593 194.584C25.1448 192.401 26.0151 190.531 26.9268 189.417C27.3735 188.855 27.8063 188.455 28.124 188.211C28.276 188.082 28.4141 188.003 28.497 187.939C28.5845 187.879 28.6352 187.851 28.6398 187.861C28.672 187.897 27.903 188.376 27.0511 189.514C26.19 190.633 25.3612 192.465 25.0757 194.616C24.781 196.766 25.1448 198.732 25.3566 200.132C25.4671 200.837 25.5592 201.408 25.6144 201.804C25.6651 202.2 25.6881 202.421 25.6697 202.421V202.416Z" fill="#263238"/>
<path d="M16.23 178.126C16.23 178.126 16.2806 178.205 16.3589 178.366C16.4418 178.545 16.5523 178.78 16.6859 179.066C16.9621 179.678 17.3581 180.567 17.8324 181.667C18.781 183.873 20.0519 186.94 21.3781 190.352C22.7043 193.769 23.8325 196.891 24.6153 199.156C25.0067 200.289 25.3198 201.21 25.527 201.85C25.6237 202.154 25.702 202.398 25.7619 202.587C25.8125 202.757 25.8355 202.845 25.8309 202.849C25.8263 202.854 25.7849 202.767 25.7204 202.601C25.6513 202.412 25.5592 202.173 25.4487 201.878C25.2093 201.224 24.8777 200.317 24.4725 199.207C23.6483 196.951 22.4971 193.842 21.1755 190.426C19.8493 187.014 18.606 183.942 17.6943 181.723C17.2476 180.631 16.8793 179.738 16.6122 179.093C16.4925 178.799 16.4004 178.559 16.3267 178.375C16.2622 178.209 16.2346 178.122 16.2392 178.117L16.23 178.126Z" fill="#263238"/>
<path d="M21.9308 195.979C20.0704 192.816 16.603 190.66 12.9422 190.393C12.0121 190.324 10.8885 190.481 10.4741 191.319C10.0597 192.157 10.6122 193.147 11.2477 193.838C13.8908 196.697 18.3574 197.697 21.963 196.232" fill="#18BA1D"/>
<path d="M14.3606 192.889C14.3606 192.889 14.5678 192.884 14.9454 192.912C15.1342 192.926 15.3644 192.94 15.6269 192.99C15.8894 193.041 16.1933 193.069 16.5202 193.156C16.8472 193.234 17.2109 193.317 17.5839 193.451C17.9661 193.561 18.3575 193.727 18.7673 193.902C19.5778 194.27 20.4435 194.754 21.2631 195.38C22.0782 196.016 22.7643 196.725 23.3261 197.42C23.5931 197.775 23.851 198.115 24.0536 198.461C24.2747 198.792 24.4404 199.124 24.5924 199.423C24.7582 199.718 24.8549 200.008 24.9654 200.252C25.0759 200.496 25.1404 200.717 25.1956 200.897C25.3061 201.256 25.3614 201.454 25.3476 201.458C25.3015 201.477 25.0759 200.671 24.4542 199.492C24.2931 199.202 24.1227 198.88 23.8971 198.557C23.6945 198.221 23.4366 197.894 23.1649 197.549C22.6077 196.872 21.9262 196.181 21.125 195.555C20.3192 194.938 19.4765 194.459 18.6799 194.086C18.2792 193.911 17.8924 193.741 17.5195 193.626C17.1557 193.488 16.8011 193.4 16.4788 193.308C15.1848 192.981 14.3514 192.935 14.356 192.889H14.3606Z" fill="#263238"/>
<path d="M98.4067 108L82.1242 191.715L79.9922 202.674L188.692 202.14C193.569 202.117 197.893 197.784 199.463 191.351L218.739 112.315C219.931 107.429 217.316 102.35 213.613 102.35L103.596 102.465C101.165 102.465 99.0421 104.735 98.4067 108Z" fill="#2A77FF"/>
<g opacity="0.5">
<path d="M98.4067 108L82.1242 191.715L79.9922 202.674L188.692 202.14C193.569 202.117 197.893 197.784 199.463 191.351L218.739 112.315C219.931 107.429 217.316 102.35 213.613 102.35L103.596 102.465C101.165 102.465 99.0421 104.735 98.4067 108Z" fill="black"/>
</g>
<path d="M178.267 186.047L166.76 93.3019C166.29 89.5029 163.26 86.6664 159.687 86.6802L134.448 86.7631C132.579 86.7677 130.787 87.5643 129.461 88.9734L117.48 101.71L47.2891 102.079C43.0021 102.102 39.7051 106.158 40.2715 110.722L50.9591 196.44C51.4334 200.234 54.4542 203.066 58.0229 203.057L180.349 202.817C193.974 203.098 195.273 199.078 195.273 199.078C179.658 202.536 178.267 186.06 178.267 186.051V186.047Z" fill="#2A77FF"/>
<path d="M125.524 167.485L121.398 171.915L89.6255 143.328L93.7514 138.898L125.524 167.485Z" fill="#F54336"/>
<path d="M119.667 137.917L124.23 142.02L95.4782 172.895L90.9194 168.797L119.667 137.917Z" fill="#F54336"/>
</g>
<defs>
<clipPath id="clip0_468_10066">
<rect width="277" height="204.019" fill="white" transform="translate(0.5)"/>
</clipPath>
</defs>
</svg>
