<svg width="260" height="183" viewBox="0 0 260 183" fill="none" xmlns="http://www.w3.org/2000/svg">
<g clip-path="url(#clip0_662_3731)">
<path d="M91.3691 179.608C139.299 179.608 178.154 140.765 178.154 92.8493C178.154 44.9339 139.299 6.09088 91.3691 6.09088C43.439 6.09088 4.58398 44.9339 4.58398 92.8493C4.58398 140.765 43.439 179.608 91.3691 179.608Z" fill="#E9E9F0"/>
<path d="M76.9655 165.742H27.2207V174.821H76.9655V165.742Z" fill="white"/>
<g style="mix-blend-mode:multiply" opacity="0.2">
<path d="M72.889 165.742H50.416V174.821H72.889V165.742Z" fill="#003889"/>
</g>
<g style="mix-blend-mode:multiply" opacity="0.2">
<path d="M36.9731 165.742H32.0723V174.821H36.9731V165.742Z" fill="#003889"/>
</g>
<path d="M76.9655 173.196H27.2207V174.821H76.9655V173.196Z" fill="#B7CAE5"/>
<path d="M80.6042 156.664H30.8594V165.742H80.6042V156.664Z" fill="white"/>
<g style="mix-blend-mode:multiply" opacity="0.2">
<path d="M76.5277 156.664H54.0547V165.742H76.5277V156.664Z" fill="#003889"/>
</g>
<g style="mix-blend-mode:multiply" opacity="0.2">
<path d="M40.6118 156.664H35.7109V165.742H40.6118V156.664Z" fill="#003889"/>
</g>
<path d="M80.6042 164.118H30.8594V165.742H80.6042V164.118Z" fill="#B7CAE5"/>
<path d="M74.5143 147.587H24.7695V156.665H74.5143V147.587Z" fill="white"/>
<g style="mix-blend-mode:multiply" opacity="0.2">
<path d="M70.4359 147.587H47.9629V156.665H70.4359V147.587Z" fill="#003889"/>
</g>
<g style="mix-blend-mode:multiply" opacity="0.2">
<path d="M34.522 147.587H29.6211V156.665H34.522V147.587Z" fill="#003889"/>
</g>
<path d="M74.5143 155.039H24.7695V156.664H74.5143V155.039Z" fill="#B7CAE5"/>
<path d="M77.7663 138.508H28.0215V147.587H77.7663V138.508Z" fill="white"/>
<g style="mix-blend-mode:multiply" opacity="0.2">
<path d="M73.6898 138.508H51.2168V147.587H73.6898V138.508Z" fill="#003889"/>
</g>
<g style="mix-blend-mode:multiply" opacity="0.2">
<path d="M37.7739 138.508H32.873V147.587H37.7739V138.508Z" fill="#003889"/>
</g>
<path d="M77.7663 145.961H28.0215V147.586H77.7663V145.961Z" fill="#B7CAE5"/>
<path d="M75.2878 129.43H25.543V138.508H75.2878V129.43Z" fill="white"/>
<g style="mix-blend-mode:multiply" opacity="0.2">
<path d="M71.2113 129.43H48.7383V138.508H71.2113V129.43Z" fill="#003889"/>
</g>
<g style="mix-blend-mode:multiply" opacity="0.2">
<path d="M35.2954 129.43H30.3945V138.508H35.2954V129.43Z" fill="#003889"/>
</g>
<path d="M75.2878 136.884H25.543V138.508H75.2878V136.884Z" fill="#B7CAE5"/>
<path d="M72.8366 120.353H23.0918V129.431H72.8366V120.353Z" fill="white"/>
<g style="mix-blend-mode:multiply" opacity="0.2">
<path d="M68.7601 120.353H46.2871V129.431H68.7601V120.353Z" fill="#003889"/>
</g>
<g style="mix-blend-mode:multiply" opacity="0.2">
<path d="M32.8442 120.353H27.9434V129.431H32.8442V120.353Z" fill="#003889"/>
</g>
<path d="M72.8366 127.805H23.0918V129.43H72.8366V127.805Z" fill="#B7CAE5"/>
<path d="M76.9655 111.274H27.2207V120.353H76.9655V111.274Z" fill="white"/>
<g style="mix-blend-mode:multiply" opacity="0.2">
<path d="M72.889 111.274H50.416V120.353H72.889V111.274Z" fill="#003889"/>
</g>
<g style="mix-blend-mode:multiply" opacity="0.2">
<path d="M36.9731 111.274H32.0723V120.353H36.9731V111.274Z" fill="#003889"/>
</g>
<path d="M76.9655 118.727H27.2207V120.352H76.9655V118.727Z" fill="#B7CAE5"/>
<g style="mix-blend-mode:multiply" opacity="0.2">
<path d="M28.0215 138.508V140.519L50.0559 138.508H28.0215Z" fill="#003889"/>
</g>
<g style="mix-blend-mode:multiply" opacity="0.2">
<path d="M28.0215 147.587L29.7764 149.263L46.8047 147.587H28.0215Z" fill="#003889"/>
</g>
<g style="mix-blend-mode:multiply" opacity="0.2">
<path d="M30.8594 156.664L32.8728 158.174L52.0939 156.664H30.8594Z" fill="#003889"/>
</g>
<g style="mix-blend-mode:multiply" opacity="0.2">
<path d="M30.8594 165.742L32.2919 167.266L53.3835 165.742H30.8594Z" fill="#003889"/>
</g>
<g style="mix-blend-mode:multiply" opacity="0.2">
<path d="M25.543 129.43L26.9123 130.957L45.4784 129.43H25.543Z" fill="#003889"/>
</g>
<g style="mix-blend-mode:multiply" opacity="0.2">
<path d="M27.2207 120.353L28.8365 121.847L48.4208 120.353H27.2207Z" fill="#003889"/>
</g>
<path d="M130 182.199C201.521 182.199 259.5 179.75 259.5 176.73C259.5 173.71 201.521 171.261 130 171.261C58.4791 171.261 0.5 173.71 0.5 176.73C0.5 179.75 58.4791 182.199 130 182.199Z" fill="#E9E9F0"/>
<path d="M180.738 128.346C216.19 128.346 244.93 99.6147 244.93 64.173C244.93 28.7312 216.19 0 180.738 0C145.285 0 116.545 28.7312 116.545 64.173C116.545 99.6147 145.285 128.346 180.738 128.346Z" fill="#E9E9F0"/>
<path d="M161.809 23.5874L63.8229 37.422C60.8876 37.8362 58.8441 40.5511 59.2584 43.4861L76.8963 168.33C77.3107 171.264 80.027 173.307 82.9623 172.893L180.948 159.058C183.884 158.644 185.927 155.928 185.513 152.994L167.875 28.1504C167.461 25.2161 164.745 23.1732 161.809 23.5874V23.5874Z" fill="#2A77FF"/>
<g style="mix-blend-mode:multiply" opacity="0.2">
<path d="M199.388 165.395L196.951 43.4682C196.894 40.6028 194.443 38.3155 191.481 38.3608L92.549 39.8797C89.5863 39.925 87.2287 42.2863 87.2862 45.1518L89.7235 167.079C89.781 169.946 92.2311 172.232 95.1938 172.186L194.125 170.667C195.918 170.64 197.488 169.766 198.435 168.445C199.056 167.583 199.411 166.529 199.389 165.395H199.388Z" fill="#003889"/>
</g>
<path d="M186.123 38.7469L194.864 164.526C194.945 165.696 194.646 166.803 194.069 167.726C193.191 169.141 191.67 170.127 189.88 170.252L91.1592 177.108C88.2028 177.313 85.6372 175.084 85.4316 172.126L76.6909 46.3471C76.4853 43.3916 78.7177 40.8267 81.6741 40.6213L180.395 33.7652C183.351 33.5597 185.917 35.7914 186.123 38.7469H186.123Z" fill="white" stroke="#231F20" stroke-width="6" stroke-miterlimit="10"/>
<path d="M97.178 70.9964C96.7854 71.0781 96.3615 71.0092 95.9995 70.7724L91.4906 67.8132C90.7667 67.3383 90.5656 66.367 91.0405 65.6433C91.5155 64.9203 92.4871 64.7186 93.211 65.1934L96.4093 67.2924L102.691 57.7266C103.166 57.0035 104.138 56.8019 104.862 57.2767C105.585 57.7515 105.787 58.7228 105.312 59.4465L98.17 70.3225C97.9325 70.6844 97.5706 70.9154 97.178 70.9971V70.9964Z" fill="#2A77FF"/>
<path d="M90.5042 75.4497C89.9405 75.4497 89.4023 75.2493 88.9733 74.876C88.5022 74.4663 88.2188 73.8977 88.1754 73.2748L87.0135 56.5568C86.9241 55.2715 87.8977 54.1534 89.1834 54.0641L105.906 52.9026C107.192 52.8119 108.311 53.7865 108.401 55.0718L109.563 71.7897C109.652 73.075 108.678 74.1938 107.393 74.2825L90.6695 75.444C90.614 75.4478 90.5591 75.4497 90.5042 75.4497ZM106.07 54.2549C106.047 54.2549 106.025 54.2555 106.002 54.2574L89.2785 55.4189C88.7397 55.4566 88.3324 55.925 88.3701 56.463L89.5319 73.181C89.5498 73.442 89.6685 73.68 89.8658 73.8517C90.0631 74.0234 90.314 74.107 90.5763 74.0898L107.299 72.9283C107.838 72.8906 108.246 72.4222 108.208 71.8842L107.046 55.1662C107.01 54.6506 106.579 54.2555 106.07 54.2555V54.2549Z" fill="#E4ECF9"/>
<path d="M137.005 58.4433L115.397 59.9437C113.921 60.0464 112.641 58.9328 112.538 57.4573C112.435 55.9818 113.549 54.7022 115.025 54.5995L136.633 53.0991C138.109 52.9964 139.389 54.11 139.492 55.5855C139.594 57.061 138.48 58.3405 137.005 58.4433Z" fill="#E4ECF9"/>
<path d="M174.839 67.2675L116.189 71.3404C114.714 71.4432 113.434 70.3295 113.331 68.854C113.228 67.3786 114.342 66.099 115.818 65.9962L174.468 61.9233C175.943 61.8206 177.223 62.9342 177.326 64.4097C177.429 65.8852 176.315 67.1648 174.839 67.2675Z" fill="#E4ECF9"/>
<path d="M92.4978 104.125C91.9341 104.125 91.3959 103.925 90.9669 103.552C90.4958 103.142 90.213 102.573 90.1696 101.951L89.0077 85.2332C88.9643 84.6103 89.1667 84.0085 89.5759 83.5375C89.9857 83.0665 90.5545 82.7832 91.1776 82.7404L107.901 81.5789C108.524 81.5355 109.126 81.7378 109.597 82.1469C110.068 82.5566 110.351 83.1252 110.395 83.7481L111.557 100.466C111.6 101.089 111.398 101.691 110.989 102.162C110.579 102.633 110.01 102.916 109.387 102.959L92.6637 104.12C92.6082 104.124 92.5533 104.126 92.4984 104.126L92.4978 104.125ZM108.064 82.9299C108.041 82.9299 108.018 82.9306 107.995 82.9325L91.2721 84.094C91.011 84.1119 90.7729 84.2306 90.6011 84.4278C90.4294 84.625 90.3451 84.8771 90.363 85.1381L91.5249 101.856C91.5427 102.117 91.6615 102.355 91.8587 102.527C92.056 102.698 92.3075 102.782 92.5693 102.765L109.292 101.603C109.553 101.585 109.792 101.467 109.963 101.27C110.135 101.072 110.219 100.82 110.201 100.559L109.04 83.8413C109.022 83.5802 108.903 83.3422 108.706 83.1705C108.526 83.0142 108.3 82.9299 108.064 82.9299V82.9299Z" fill="#E4ECF9"/>
<path d="M138.997 87.119L117.389 88.6194C115.913 88.7221 114.633 87.6085 114.53 86.133C114.427 84.6575 115.541 83.378 117.017 83.2752L138.625 81.7748C140.101 81.6721 141.381 82.7857 141.484 84.2612C141.587 85.7367 140.473 87.0163 138.997 87.119V87.119Z" fill="#E4ECF9"/>
<path d="M176.831 95.9439L118.182 100.017C116.706 100.12 115.426 99.0059 115.323 97.5304C115.22 96.0549 116.334 94.7753 117.81 94.6726L176.46 90.5997C177.936 90.4969 179.216 91.6106 179.318 93.0861C179.421 94.5616 178.307 95.8411 176.831 95.9439Z" fill="#E4ECF9"/>
<path d="M99.3127 99.0557C98.9201 99.1374 98.4962 99.0684 98.1343 98.8317L93.6254 95.8724C92.9014 95.3976 92.7003 94.4263 93.1753 93.7026C93.6503 92.9795 94.6219 92.7778 95.3458 93.2526L98.5441 95.3516L104.826 85.7858C105.301 85.0628 106.272 84.8611 106.996 85.3359C107.72 85.8107 107.921 86.7821 107.446 87.5058L100.305 98.3817C100.067 98.7436 99.7053 98.9746 99.3127 99.0563V99.0557Z" fill="#2A77FF"/>
<path d="M101.162 128.348C100.77 128.43 100.346 128.361 99.9839 128.124L95.475 125.165C94.751 124.69 94.55 123.719 95.0249 122.995C95.4999 122.272 96.4715 122.071 97.1954 122.545L100.394 124.644L106.675 115.079C107.15 114.356 108.122 114.154 108.846 114.629C109.57 115.104 109.771 116.075 109.296 116.799L102.154 127.675C101.917 128.036 101.555 128.267 101.162 128.349V128.348Z" fill="#2A77FF"/>
<path d="M94.49 132.802C93.9263 132.802 93.3881 132.601 92.9591 132.228C92.488 131.818 92.2052 131.25 92.1618 130.627L90.9999 113.909C90.9565 113.287 91.1589 112.685 91.5681 112.214C91.9779 111.743 92.5467 111.459 93.1698 111.417L109.893 110.255C110.516 110.212 111.118 110.414 111.589 110.823C112.06 111.233 112.343 111.802 112.386 112.424L113.548 129.142C113.638 130.427 112.664 131.546 111.378 131.634L94.6553 132.796C94.5998 132.8 94.5449 132.802 94.49 132.802V132.802ZM110.056 111.607C110.033 111.607 110.01 111.608 109.987 111.609L93.2643 112.771C93.0032 112.789 92.765 112.908 92.5933 113.105C92.4216 113.302 92.3373 113.554 92.3552 113.815L93.5171 130.533C93.5349 130.794 93.6537 131.032 93.8509 131.204C94.0482 131.375 94.3004 131.46 94.5615 131.442L111.285 130.28C111.823 130.243 112.231 129.774 112.193 129.236L111.031 112.518C110.995 112.003 110.564 111.608 110.056 111.608V111.607Z" fill="#E4ECF9"/>
<path d="M140.991 115.795L119.383 117.296C117.907 117.398 116.627 116.285 116.524 114.809C116.421 113.334 117.535 112.054 119.011 111.952L140.619 110.451C142.095 110.348 143.375 111.462 143.478 112.938C143.581 114.413 142.467 115.693 140.991 115.795V115.795Z" fill="#E4ECF9"/>
<path d="M178.823 124.62L120.174 128.692C118.698 128.795 117.418 127.682 117.315 126.206C117.212 124.731 118.326 123.451 119.802 123.348L178.452 119.275C179.928 119.173 181.208 120.286 181.311 121.762C181.413 123.237 180.299 124.517 178.823 124.62Z" fill="#E4ECF9"/>
<path d="M103.156 157.024C102.764 157.106 102.34 157.037 101.978 156.8L97.4691 153.841C96.7452 153.366 96.5441 152.395 97.0191 151.671C97.494 150.948 98.4656 150.746 99.1896 151.221L102.388 153.32L108.67 143.754C109.145 143.031 110.116 142.83 110.84 143.304C111.564 143.779 111.765 144.75 111.29 145.474L104.149 156.35C103.911 156.712 103.549 156.943 103.156 157.025V157.024Z" fill="#2A77FF"/>
<path d="M96.4828 161.477C95.9191 161.477 95.3809 161.277 94.9519 160.904C94.4808 160.494 94.1974 159.925 94.154 159.302L92.9921 142.584C92.9487 141.962 93.1511 141.36 93.5603 140.889C93.9701 140.418 94.5389 140.134 95.162 140.092L111.885 138.93C112.511 138.887 113.11 139.089 113.581 139.498C114.052 139.908 114.335 140.477 114.379 141.099L115.54 157.817C115.584 158.44 115.382 159.042 114.972 159.513C114.562 159.984 113.994 160.267 113.371 160.31L96.6475 161.472C96.592 161.475 96.5371 161.477 96.4822 161.477H96.4828ZM112.049 140.283C112.026 140.283 112.003 140.283 111.98 140.285L95.2565 141.447C94.9954 141.464 94.7572 141.583 94.5855 141.78C94.4138 141.978 94.3295 142.23 94.3474 142.491L95.5093 159.209C95.5271 159.47 95.6459 159.708 95.8431 159.879C96.0404 160.051 96.2919 160.135 96.5537 160.117L113.277 158.956C113.538 158.938 113.776 158.819 113.948 158.622C114.119 158.425 114.204 158.173 114.186 157.912L113.024 141.194C113.006 140.933 112.887 140.695 112.69 140.523C112.51 140.367 112.285 140.283 112.049 140.283V140.283Z" fill="#E4ECF9"/>
<path d="M142.983 144.471L121.375 145.971C119.899 146.074 118.619 144.96 118.516 143.485C118.414 142.01 119.528 140.73 121.003 140.627L142.612 139.127C144.087 139.024 145.367 140.138 145.47 141.613C145.573 143.089 144.459 144.368 142.983 144.471V144.471Z" fill="#E4ECF9"/>
<path d="M180.816 153.296L122.166 157.369C120.69 157.472 119.41 156.358 119.307 154.882C119.205 153.407 120.319 152.127 121.795 152.025L180.444 147.952C181.92 147.849 183.2 148.963 183.303 150.438C183.406 151.914 182.292 153.193 180.816 153.296Z" fill="#E4ECF9"/>
<g style="mix-blend-mode:multiply" opacity="0.2">
<path d="M110.632 61.3069C110.236 61.2099 109.724 61.8589 109.724 61.8589C109.724 61.8589 110.339 60.1549 109.935 60.1479C109.532 60.1409 108.944 61.3803 108.944 61.3803C108.944 61.3803 109.509 59.8544 109.08 59.7708C108.652 59.6871 107.872 61.0063 107.872 61.0063C107.872 61.0063 108.425 59.6074 107.758 59.4657C107.091 59.324 106.347 62.0593 105.871 62.8155C105.396 63.5718 105.494 61.5762 104.369 61.5902C103.244 61.6043 105.148 65.6121 105.148 65.6121L105.087 65.718H104.722L97.9737 80.0658L89.5036 81.5681L87.4391 81.1602L87.5706 80.6554L87.3766 80.6637C88.9706 79.5756 90.2218 76.9214 89.2636 75.682C88.1982 74.3042 89.6543 73.7777 89.2706 70.8465C88.9968 68.7564 87.3229 68.3225 86.3839 68.2452C86.276 67.9938 86.1681 67.8221 86.1177 67.7896C81.9037 65.0664 78.8797 70.1617 78.8465 71.4981C78.8133 72.8345 76.4813 75.7739 74.9842 79.3823C74.2373 81.1832 74.3784 82.1762 74.9204 82.5828C70.5922 84.4195 65.1768 87.5689 65.1768 87.5689L52.2718 80.9248L51.9884 81.3543C51.9054 80.2406 51.6117 77.3305 50.8336 77.8876C49.8753 78.5737 50.8725 80.2011 50.123 79.8564C49.3742 79.5118 47.4929 77.6585 46.9937 78.192C46.4945 78.7256 47.6027 79.5667 47.6027 79.5667C47.6027 79.5667 46.3393 78.9343 46.015 79.2712C45.6907 79.6075 46.8673 80.5489 46.8673 80.5489C46.8673 80.5489 45.8025 79.8647 45.4647 80.1206C45.127 80.3766 46.4268 81.4372 46.4268 81.4372C46.4268 81.4372 45.6965 81.2056 45.4054 81.5336C45.1143 81.8616 47.1379 82.8023 47.8887 82.7423C48.3381 82.7066 49.3876 83.4915 50.1581 84.1278L49.7911 84.6837L64.7203 94.2986L73.8281 90.943L73.7637 97.0486L73.7145 101.666H73.1246L72.9108 103.804H73.8256C72.8495 105.089 69.662 109.759 68.3585 117.482C68.1657 117.329 67.9569 117.164 67.7354 116.991C65.9058 115.555 63.2284 113.494 61.6044 112.442C60.9494 112.019 60.4661 111.761 60.2772 111.771C59.3209 111.823 54.1985 118.434 54.1985 118.434C54.3459 118.498 54.6319 118.517 54.9779 118.508C55.9955 118.485 57.5232 118.233 57.5232 118.233L59.7262 120.364L58.9302 120.757C58.9078 120.767 58.8887 120.783 58.8734 120.802C58.8376 120.846 58.8248 120.906 58.8465 120.957C58.8772 121.03 58.964 121.058 59.0406 121.021L59.9452 120.575L61.0139 121.611L60.3512 122.426C60.297 122.493 60.3033 122.586 60.3653 122.634C60.4272 122.681 60.521 122.665 60.5753 122.599L61.2175 121.808L62.0391 122.603C61.7691 122.895 61.4856 123.201 61.2462 123.459C61.2437 123.462 61.2411 123.464 61.2392 123.468C61.1875 123.53 61.1894 123.618 61.245 123.669C61.303 123.721 61.3975 123.712 61.4563 123.649C61.5335 123.566 61.8757 123.197 62.2421 122.8L63.0784 123.607L62.5377 124.491C62.493 124.565 62.5128 124.654 62.5824 124.691C62.6519 124.729 62.7439 124.699 62.7886 124.627L63.2871 123.811L64.4905 124.974L65.0038 124.343C65.1889 124.54 65.3759 124.733 65.5643 124.924C66.1535 125.519 66.7612 126.092 67.3817 126.648C66.2556 138.245 64.2473 157.985 63.3369 166.905L63.0675 166.906C63.0675 166.906 61.9944 175.954 62.1291 178.466C62.1438 178.776 62.1783 178.987 62.2364 179.068C62.7598 179.809 70.7594 179.576 70.7594 179.576C70.7422 179.446 70.6554 179.261 70.5277 179.051C70.0329 178.231 68.9228 177.01 68.9228 177.01L69.5644 173.804L70.2857 174.19C70.3062 174.2 70.3285 174.205 70.3515 174.205C70.4058 174.205 70.4607 174.175 70.4926 174.124C70.5373 174.051 70.5168 173.962 70.4473 173.925L69.6269 173.486L69.9397 171.93L70.9414 171.926C71.0237 171.926 71.0965 171.859 71.1042 171.777C71.1118 171.695 71.0518 171.628 70.9701 171.628H70.9695L69.9978 171.633L70.2372 170.438C70.6126 170.463 71.0058 170.49 71.3378 170.513C71.341 170.513 71.3448 170.513 71.348 170.513C71.4253 170.513 71.4968 170.453 71.5102 170.374C71.5236 170.293 71.4693 170.222 71.3876 170.216C71.2803 170.209 70.8054 170.176 70.296 170.142L70.5392 168.927L71.5357 168.778C71.6181 168.766 71.6812 168.69 71.6774 168.609C71.6729 168.528 71.6027 168.472 71.5204 168.484L70.5998 168.621L70.9509 166.87L70.3515 166.873L77.2703 133.678C78.3517 134.305 79.4031 134.883 80.4003 135.412C82.0722 136.299 83.5941 137.05 84.8581 137.676C86.9744 138.725 89.7111 137.309 90.2889 134.876C90.8749 132.415 91.0932 126.096 91.2873 122.902C91.6301 117.25 88.306 107.105 87.1614 103.805H88.5467L88.7606 101.667H87.8739C87.9575 100.639 88.4171 98.1029 89.6313 94.8009C91.2139 90.4925 91.1839 89.4407 91.1839 89.4407L96.0713 86.6021L102.608 82.8081L108.593 65.7218H108.065C108.39 64.8897 108.774 64.0664 109.079 63.8749C109.742 63.4595 111.024 61.4083 110.627 61.312L110.632 61.3069ZM73.8301 90.9392V90.9418V90.9392ZM79.0654 125.085L79.9783 120.704C79.9783 120.704 80.2937 120.072 80.754 119.026C81.061 122.403 80.8255 125.328 80.8255 125.328C80.7023 125.354 80.5688 125.368 80.4258 125.366C80.039 125.363 79.5781 125.261 79.0661 125.085H79.0654Z" fill="#003889"/>
</g>
<path d="M56.2031 120.377C56.2727 120.464 56.3417 120.55 56.4144 120.637V120.639C56.4406 120.674 56.4687 120.709 56.4987 120.743C56.7841 121.095 57.0764 121.439 57.3784 121.779C57.4429 121.853 57.5086 121.929 57.5782 122.004C57.8042 122.26 58.0366 122.514 58.2728 122.762C58.3455 122.84 58.4177 122.916 58.4905 122.992C58.9309 123.452 59.3829 123.9 59.8432 124.339C60.0475 124.535 60.2543 124.728 60.4618 124.919C62.405 126.703 64.4925 128.307 66.5992 129.744C67.6174 130.44 68.6382 131.095 69.6513 131.713C71.9923 133.143 74.2828 134.368 76.3467 135.407C78.1074 136.295 79.704 137.045 81.0305 137.672C83.2515 138.721 85.8465 137.304 86.1816 134.871C86.5213 132.411 86.1089 126.092 85.9837 122.897C85.7162 116.082 79.4633 102.732 79.4633 102.732H72.7136C72.7136 102.732 67.9487 106.541 71.7586 110.883C72.3574 111.566 72.8675 112.393 73.2997 113.299C75.624 118.155 75.7594 125.328 75.7594 125.328C75.6387 125.354 75.5072 125.368 75.3636 125.366C74.6671 125.36 73.7057 125.044 72.6 124.53C70.5674 123.581 68.0464 121.963 65.7763 120.381C65.0537 119.878 64.3572 119.38 63.7105 118.907C62.986 118.377 62.3246 117.883 61.7571 117.453C60.5295 116.521 59.7474 115.894 59.7474 115.894L56.2038 120.377H56.2031Z" fill="#FF00FF"/>
<path d="M48.4434 118.43C48.5972 118.494 48.8851 118.513 49.2305 118.504C50.2455 118.481 51.7483 118.229 51.7483 118.229L54.1646 120.36L54.4046 120.572L55.5773 121.607L55.8007 121.803L56.7028 122.598L56.9243 122.794L57.8429 123.602L58.0715 123.805L59.391 124.969L59.8411 124.338L60.7935 123.002L63.709 118.907L63.9612 118.551C63.9612 118.551 63.0796 117.893 61.836 116.986C59.8634 115.55 56.9798 113.49 55.2504 112.438C54.5533 112.015 54.0439 111.756 53.8562 111.766C52.905 111.819 48.4434 118.429 48.4434 118.429V118.43Z" fill="white"/>
<path d="M58.5635 122.194C58.6056 122.135 58.6854 122.115 58.7518 122.149C58.8246 122.186 58.8539 122.276 58.8163 122.348L57.6538 124.621C57.6161 124.694 57.5267 124.724 57.454 124.686C57.3812 124.648 57.3518 124.559 57.3895 124.486L58.552 122.213C58.5558 122.206 58.5596 122.2 58.5635 122.194Z" fill="#15315E"/>
<path d="M55.9882 123.463C55.9882 123.463 55.992 123.457 55.9945 123.454C56.6029 122.72 57.5292 121.596 57.5943 121.506C57.5943 121.506 57.5943 121.505 57.595 121.505C57.6429 121.438 57.7354 121.423 57.8018 121.47C57.8688 121.518 57.8842 121.611 57.8369 121.678C57.8369 121.678 57.8369 121.678 57.8369 121.678C57.745 121.806 56.3801 123.456 56.2244 123.643C56.172 123.706 56.0782 123.715 56.015 123.663C55.9543 123.613 55.9435 123.525 55.9888 123.462L55.9882 123.463Z" fill="#15315E"/>
<path d="M56.2314 120.687C56.2793 120.621 56.3718 120.605 56.4382 120.653C56.5053 120.7 56.5206 120.793 56.4733 120.86L55.2381 122.595C55.1902 122.662 55.0976 122.677 55.0312 122.63C54.9642 122.582 54.9489 122.489 54.9961 122.422L56.2314 120.687Z" fill="#15315E"/>
<path d="M53.3564 120.798C53.3698 120.78 53.387 120.764 53.4087 120.753L55.2875 119.78C55.3603 119.742 55.4503 119.77 55.488 119.843C55.5256 119.916 55.4969 120.006 55.4241 120.044L53.5454 121.017C53.4726 121.055 53.3826 121.027 53.3449 120.953C53.3181 120.902 53.3245 120.842 53.3564 120.798Z" fill="#15315E"/>
<path d="M48.4434 118.43C48.5972 118.494 48.8851 118.513 49.2305 118.504L55.2511 112.438C54.554 112.015 54.0445 111.757 53.8569 111.767C52.9057 111.819 48.444 118.43 48.444 118.43H48.4434Z" fill="#1F3A6F"/>
<g style="mix-blend-mode:multiply" opacity="0.3">
<path d="M60.4622 124.919C62.4055 126.702 64.493 128.306 66.5996 129.743C66.3353 126.769 66.0257 123.224 65.7761 120.381C65.0535 119.878 64.357 119.38 63.7103 118.907L63.9625 118.552C63.9625 118.552 63.0815 117.894 61.8373 116.987C61.8124 117.132 61.7862 117.287 61.7562 117.452C61.5155 118.843 61.167 120.852 60.7942 123.002C60.6837 123.632 60.5733 124.276 60.4609 124.919H60.4622Z" fill="#021B30"/>
</g>
<path d="M73.2988 113.299C75.6232 118.155 75.7585 125.328 75.7585 125.328L77.2996 108.676L73.2988 113.299V113.299Z" fill="#072542"/>
<path d="M69.6504 131.713C71.9913 133.143 74.2819 134.369 76.3458 135.407L75.3626 125.366C74.6662 125.361 73.7048 125.045 72.5991 124.53L70.3092 124.382L69.651 131.713H69.6504Z" fill="#072542"/>
<path d="M74.9774 68.2388C74.9774 68.2388 78.085 67.9134 78.7617 70.8446C79.4384 73.7757 78.0346 74.3023 79.238 75.6801C80.4407 77.0579 79.0873 80.187 77.333 80.9656C75.5788 81.7435 72.1953 81.1423 72.1953 81.1423L74.9774 68.2388V68.2388Z" fill="#15315E"/>
<path d="M42.5976 81.771C42.5976 81.771 41.9171 77.199 41.0272 77.8844C40.1379 78.5705 41.2972 80.1978 40.5139 79.8532C39.7306 79.5086 37.6642 77.6553 37.218 78.1888C36.7724 78.7224 37.9642 79.5635 37.9642 79.5635C37.9642 79.5635 36.6377 78.931 36.3466 79.2674C36.0555 79.6037 37.3265 80.545 37.3265 80.545C37.3265 80.545 36.1933 79.8609 35.8812 80.1168C35.569 80.3727 36.9747 81.4334 36.9747 81.4334C36.9747 81.4334 36.2214 81.2017 35.9629 81.5297C35.7043 81.8578 37.8219 82.7985 38.5669 82.7385C39.3119 82.6785 41.9637 84.9121 41.9637 84.9121L43.2551 82.0971L42.5976 81.771V81.771Z" fill="#FDC8AA"/>
<path d="M94.1145 65.6108C94.1145 65.6108 91.8106 61.603 92.9335 61.5889C94.0564 61.5749 94.1579 63.5705 94.5582 62.8143C94.9584 62.058 95.4289 59.3227 96.1094 59.4644C96.79 59.6061 96.3776 61.005 96.3776 61.005C96.3776 61.005 97.0255 59.6859 97.4622 59.7695C97.8995 59.8531 97.4871 61.379 97.4871 61.379C97.4871 61.379 97.9512 60.1396 98.3546 60.1466C98.7581 60.1537 98.3138 61.8576 98.3138 61.8576C98.3138 61.8576 98.7607 61.2086 99.1667 61.3056C99.5727 61.4026 98.4964 63.4537 97.8752 63.8685C97.2541 64.2834 96.5608 67.6798 96.5608 67.6798L93.8011 66.2732L94.1139 65.6095L94.1145 65.6108Z" fill="#FDC8AA"/>
<path d="M70.6875 74.0693C70.6875 74.0776 70.6894 74.0872 70.6894 74.0955C70.7673 75.2519 71.1643 76.2902 71.7619 77.072C71.788 77.1058 71.8142 77.1403 71.8423 77.1722C72.5764 78.0861 73.5908 78.6215 74.6754 78.5494C76.7004 78.4128 78.2006 76.1983 78.0257 73.6022C77.9235 72.0846 77.2717 70.7718 76.3416 69.9722C75.6822 69.4029 74.8816 69.0921 74.0415 69.1483C72.1551 69.2746 70.7232 71.2045 70.6772 73.5658C70.6734 73.7298 70.6772 73.8983 70.6875 74.0687V74.0693Z" fill="#FDC8AA"/>
<path d="M75.3027 67.7877C75.5364 67.9293 77.1074 70.6608 74.9018 71.4292C72.6962 72.1975 72.3451 71.112 72.3623 73.3335C72.3796 75.555 70.4574 74.8033 70.391 75.1377C70.3246 75.4721 71.9448 76.5634 71.6946 78.5564C71.4437 80.5495 71.4271 81.6855 69.8401 81.5853C68.2531 81.4851 69.5062 81.1507 67.9019 82.2535C66.2977 83.3556 64.1923 82.9887 65.3286 79.3803C66.4649 75.7727 68.5033 72.8325 68.4031 71.4962C68.3029 70.1598 70.8175 65.0652 75.304 67.7877H75.3027Z" fill="#1F3A6F"/>
<path d="M40.6641 84.6805L56.5541 94.2954L65.3274 90.9392L66.329 102.162C66.329 102.162 67.4258 102.166 69.0077 102.171C73.0735 102.183 80.3581 102.199 80.5152 102.162C80.3645 102.113 80.3645 99.1061 81.5187 94.7958C82.671 90.4874 82.5357 89.4356 82.5357 89.4356L87.1397 86.597L93.2969 82.8029L97.5747 65.7167H93.6997L88.3852 80.0645L80.0651 81.5668L76.7487 80.9241L74.116 80.4167L71.3665 80.2036L69.0702 81.3657C68.9841 81.3791 68.8979 81.3976 68.8047 81.4213C64.832 82.3211 56.3377 87.5664 56.3377 87.5664L42.7688 80.9222L40.6641 84.6805V84.6805Z" fill="#F4B545"/>
<path d="M68.8053 81.42L75.9456 86.3053L76.7494 80.9248L74.3752 80.4665L74.4716 79.5871L74.6338 78.1123L71.1412 76.4479L71.0818 77.7198L70.9586 80.367C70.9586 80.367 70.9554 80.3804 70.9688 80.4059L69.0703 81.3651C68.9841 81.3804 68.896 81.3989 68.8047 81.4206L68.8053 81.42Z" fill="#FDC8AA"/>
<path d="M71.082 77.7191C71.8992 78.3854 73.3087 79.402 74.4712 79.5864L74.5848 78.5545C73.536 78.5915 72.558 78.0605 71.8436 77.1728C71.8168 77.1409 71.7894 77.1071 71.7638 77.0733C71.647 76.9207 71.5385 76.7606 71.4389 76.5895L71.1414 76.4472L71.082 77.7191V77.7191Z" fill="#FBB188"/>
<path d="M69.019 80.965L67.582 81.2336C67.582 81.2336 75.2682 87.6142 75.2682 87.5306C75.2682 87.447 75.943 86.304 75.943 86.304L69.019 80.965Z" fill="white"/>
<path d="M76.5422 80.716L78.0398 80.6535L76.968 87.3181L75.9434 86.3047L76.5422 80.716Z" fill="white"/>
<path d="M71.2929 74.2021C71.2929 74.2021 69.764 73.3877 69.6638 74.4025C69.5636 75.4172 70.8295 77.0707 71.9696 77.1333L71.2929 74.2021Z" fill="#FDC8AA"/>
<path d="M65.3262 90.9392L66.3291 102.163C66.3291 102.163 67.4245 102.166 69.0071 102.171L65.3262 90.9392V90.9392Z" fill="#E59D29"/>
<path d="M66.8643 103.433C66.8643 103.433 62.3197 109.38 62.4199 120.504C62.5201 131.629 62.418 171.517 62.418 171.517H68.9359L74.4496 120.704C74.4496 120.704 79.1615 108.912 76.555 102.731L66.8637 103.432L66.8643 103.433Z" fill="#FF00FF"/>
<path d="M62.3758 178.461C62.4217 178.77 62.4773 178.982 62.543 179.063C63.1406 179.804 71.1165 179.571 71.1165 179.571C71.0859 179.44 70.9812 179.256 70.8324 179.046C70.2553 178.225 69.0239 177.005 69.0239 177.005L69.3456 173.799L69.3763 173.481L69.534 171.925L69.5627 171.629L69.6827 170.433L69.7114 170.137L69.8334 168.923L69.864 168.616L70.0402 166.866L62.16 166.901C62.16 166.901 61.9908 175.95 62.3764 178.461L62.3758 178.461Z" fill="white"/>
<path d="M68.2676 169.157C68.1955 169.157 68.1323 169.104 68.1208 169.031C68.1087 168.95 68.1642 168.874 68.2453 168.862L70.7701 168.479C70.8512 168.467 70.9271 168.522 70.9393 168.603C70.9514 168.684 70.8959 168.76 70.8148 168.773L68.29 169.155C68.2823 169.157 68.2747 169.157 68.2676 169.157V169.157Z" fill="#15315E"/>
<path d="M70.7992 170.508C70.796 170.508 70.7921 170.508 70.7889 170.508C69.8371 170.443 68.3842 170.346 68.2731 170.346H68.2718C68.1901 170.346 68.1237 170.281 68.123 170.198C68.123 170.116 68.1888 170.05 68.2712 170.049H68.2718C68.4295 170.049 70.5655 170.194 70.8087 170.211C70.8904 170.217 70.9524 170.288 70.9466 170.369C70.9415 170.448 70.8758 170.508 70.7985 170.508H70.7992Z" fill="#15315E"/>
<path d="M68.4026 171.93C68.3209 171.93 68.2545 171.865 68.2539 171.782C68.2539 171.7 68.3197 171.634 68.402 171.633L70.5323 171.623H70.5329C70.6146 171.623 70.681 171.689 70.6817 171.771C70.6817 171.854 70.6159 171.92 70.5336 171.921L68.4033 171.93H68.4026Z" fill="#15315E"/>
<path d="M70.1721 174.2C70.1497 174.2 70.1267 174.195 70.105 174.184L68.218 173.227C68.1446 173.19 68.1158 173.101 68.1529 173.027C68.1899 172.954 68.2793 172.925 68.3527 172.962L70.2397 173.92C70.3131 173.957 70.3419 174.046 70.3049 174.119C70.2787 174.171 70.2263 174.2 70.1721 174.2V174.2Z" fill="#15315E"/>
<path d="M65.6949 103.801H81.334V101.663H65.6949V103.801Z" fill="white"/>
<path d="M76.2826 90.1962C76.4699 90.009 76.4699 89.7056 76.2826 89.5184C76.0954 89.3312 75.7919 89.3312 75.6046 89.5184C75.4174 89.7056 75.4174 90.009 75.6046 90.1962C75.7919 90.3834 76.0954 90.3834 76.2826 90.1962Z" fill="white"/>
<path d="M75.9443 95.1531C76.2091 95.1531 76.4237 94.9386 76.4237 94.6739C76.4237 94.4092 76.2091 94.1946 75.9443 94.1946C75.6795 94.1946 75.4648 94.4092 75.4648 94.6739C75.4648 94.9386 75.6795 95.1531 75.9443 95.1531Z" fill="white"/>
<path d="M75.2997 100.393C75.5645 100.393 75.7792 100.179 75.7792 99.914C75.7792 99.6493 75.5645 99.4348 75.2997 99.4348C75.035 99.4348 74.8203 99.6493 74.8203 99.914C74.8203 100.179 75.035 100.393 75.2997 100.393Z" fill="white"/>
<path d="M62.377 178.461C62.4229 178.77 62.4785 178.982 62.5442 179.063C63.1417 179.804 71.1177 179.571 71.1177 179.571C71.0871 179.44 70.9824 179.256 70.8336 179.046L62.377 178.461Z" fill="#1F3A6F"/>
<path d="M82.0234 87.0265C82.4754 87.9008 82.5361 89.435 82.5361 89.435L87.1401 86.5963L82.0234 87.0258V87.0265Z" fill="#E59D29"/>
<g clip-path="url(#clip1_662_3731)">
<path fill-rule="evenodd" clip-rule="evenodd" d="M194.955 99.6782C174.225 99.6782 157.371 116.532 157.371 137.262C157.371 157.991 174.225 174.845 194.955 174.845C215.684 174.845 232.538 157.991 232.538 137.262C232.538 116.532 215.684 99.6782 194.955 99.6782Z" fill="#18BA1D"/>
<path fill-rule="evenodd" clip-rule="evenodd" d="M213.195 124.533C214.105 125.443 214.105 126.94 213.195 127.851L191.174 149.872C190.718 150.327 190.117 150.562 189.515 150.562C188.913 150.562 188.311 150.327 187.856 149.872L176.845 138.862C175.935 137.951 175.935 136.454 176.845 135.544C177.755 134.633 179.252 134.633 180.163 135.544L189.515 144.895L209.877 124.533C210.787 123.608 212.285 123.608 213.195 124.533Z" fill="white"/>
</g>
</g>
<defs>
<clipPath id="clip0_662_3731">
<rect width="259" height="182.199" fill="white" transform="translate(0.5)"/>
</clipPath>
<clipPath id="clip1_662_3731">
<rect width="75.1672" height="75.1672" fill="white" transform="translate(157.371 99.6782)"/>
</clipPath>
</defs>
</svg>
