<svg width="278" height="206" viewBox="0 0 278 206" fill="none" xmlns="http://www.w3.org/2000/svg">
<g clip-path="url(#clip0_624_959)">
<path fill-rule="evenodd" clip-rule="evenodd" d="M201.564 205.666L200.118 78.5469C200.118 78.5469 192.916 83.854 188.321 87.2495C185.907 89.0313 184.305 91.7031 183.893 94.6728C182.95 101.231 181.312 113.303 180.769 121.398C179.465 140.583 183.57 194.253 184.422 205.034C184.449 205.253 184.487 205.473 184.563 205.666H201.562H201.564Z" fill="white"/>
<path d="M201.564 205.987H184.565C184.434 205.987 184.316 205.907 184.267 205.786C184.169 205.541 184.129 205.277 184.104 205.072C183.264 194.446 179.148 140.535 180.45 121.377C180.996 113.241 182.642 101.125 183.577 94.6281C183.998 91.6019 185.658 88.817 188.131 86.9919C192.725 83.5964 199.929 78.2893 199.929 78.2893C200.025 78.2178 200.155 78.2061 200.262 78.261C200.37 78.3143 200.438 78.4241 200.44 78.5455L201.885 205.664C201.885 205.751 201.853 205.833 201.792 205.894C201.732 205.956 201.649 205.989 201.564 205.989V205.987ZM184.8 205.345H201.24L199.804 79.1777C198.089 80.4404 192.378 84.6512 188.51 87.5077C186.175 89.2312 184.608 91.8598 184.211 94.718C183.278 101.208 181.633 113.304 181.09 121.42C179.791 140.534 183.905 194.403 184.743 205.009C184.755 205.105 184.771 205.225 184.801 205.345H184.8Z" fill="#28293D"/>
<path fill-rule="evenodd" clip-rule="evenodd" d="M191.438 205.663H258.976C254.4 176.352 238.938 86.5145 220.12 77.6738L209.245 80.6817C209.245 80.6817 199.511 82.951 195.428 90.0149C191.785 96.3152 188.04 104.988 187.73 118.703C187.471 129.903 190.362 185.518 191.436 205.663H191.438Z" fill="#2A77FF"/>
<path fill-rule="evenodd" clip-rule="evenodd" d="M155.54 87.8262C155.54 85.0413 153.28 82.792 150.496 82.792H40.3674C37.5946 82.792 35.3342 85.0413 35.3342 87.8262V154.714C35.3342 157.499 37.5946 159.76 40.3674 159.76H150.494C153.278 159.76 155.539 157.499 155.539 154.714V87.8262H155.54Z" fill="white"/>
<path d="M150.494 160.083H40.3673C37.415 160.083 35.0132 157.675 35.0132 154.716V87.828C35.0132 84.875 37.415 82.4727 40.3673 82.4727H150.494C153.453 82.4727 155.86 84.875 155.86 87.828V154.716C155.86 157.675 153.453 160.083 150.494 160.083ZM40.3673 83.1132C37.7693 83.1132 35.6552 85.2277 35.6552 87.8263V154.714C35.6552 157.319 37.7693 159.439 40.3673 159.439H150.494C153.099 159.439 155.218 157.319 155.218 154.714V87.8263C155.218 85.2277 153.099 83.1132 150.494 83.1132H40.3673Z" fill="#28293D"/>
<path d="M122.948 61.4794C122.842 61.4794 122.739 61.4261 122.677 61.3296L114.12 47.8556C114.025 47.7059 114.068 47.5079 114.218 47.4131C114.367 47.3182 114.565 47.3632 114.66 47.5112L123.218 60.9853C123.313 61.135 123.269 61.333 123.12 61.4278C123.066 61.4611 123.007 61.4777 122.948 61.4777V61.4794Z" fill="#28293D"/>
<path d="M212.753 50.4089C212.703 50.4089 212.653 50.3972 212.605 50.3723C212.447 50.2908 212.387 50.0961 212.468 49.9397L216.344 42.4782C216.425 42.3202 216.618 42.2586 216.776 42.3418C216.934 42.4233 216.994 42.6179 216.913 42.7743L213.037 50.2359C212.981 50.3457 212.868 50.4089 212.751 50.4089H212.753Z" fill="#28293D"/>
<path fill-rule="evenodd" clip-rule="evenodd" d="M140.586 150.451C140.586 149.158 140.07 147.924 139.164 147.014C138.246 146.104 137.018 145.593 135.722 145.593H29.5676C28.2836 145.593 27.0444 146.104 26.1379 147.014C25.2314 147.924 24.7158 149.158 24.7158 150.451V178.226C24.7158 179.513 25.2314 180.748 26.1379 181.658C27.0444 182.568 28.2819 183.083 29.5676 183.083H135.722C137.018 183.083 138.246 182.568 139.164 181.658C140.07 180.748 140.586 179.513 140.586 178.226V150.451Z" fill="#FF00FF"/>
<path d="M76.8268 69.1882H64.8327C63.226 69.1882 61.917 67.8805 61.917 66.2718V54.2751C61.917 52.668 63.2243 51.3604 64.8327 51.3604H76.8268C78.4335 51.3604 79.7425 52.668 79.7425 54.2751V66.2718C79.7425 67.8789 78.4352 69.1882 76.8268 69.1882ZM64.8327 52.0025C63.5786 52.0025 62.559 53.0224 62.559 54.2768V66.2734C62.559 67.5278 63.5786 68.5477 64.8327 68.5477H76.8268C78.0809 68.5477 79.1005 67.5278 79.1005 66.2734V54.2768C79.1005 53.0224 78.0809 52.0025 76.8268 52.0025H64.8327Z" fill="#28293D"/>
<path d="M99.4194 72.7269H91.9895C90.9999 72.7269 90.1948 71.9216 90.1948 70.9318V63.5002C90.1948 62.5103 90.9999 61.7051 91.9895 61.7051H99.4194C100.409 61.7051 101.214 62.5103 101.214 63.5002V70.9318C101.214 71.9216 100.409 72.7269 99.4194 72.7269ZM91.9895 62.3473C91.3541 62.3473 90.8369 62.8647 90.8369 63.5002V70.9318C90.8369 71.5673 91.3541 72.0847 91.9895 72.0847H99.4194C100.055 72.0847 100.572 71.5673 100.572 70.9318V63.5002C100.572 62.8647 100.055 62.3473 99.4194 62.3473H91.9895Z" fill="#2A77FF"/>
<path d="M163.486 173.946C162.194 173.946 161.141 172.893 161.141 171.601C161.141 170.308 162.194 169.255 163.486 169.255C164.778 169.255 165.831 170.308 165.831 171.601C165.831 172.893 164.778 173.946 163.486 173.946ZM163.486 169.897C162.548 169.897 161.783 170.661 161.783 171.601C161.783 172.541 162.546 173.304 163.486 173.304C164.426 173.304 165.189 172.541 165.189 171.601C165.189 170.661 164.426 169.897 163.486 169.897Z" fill="#28293D"/>
<path d="M238.896 61.4747C237.529 61.4747 236.417 60.3617 236.417 58.9942C236.417 57.6267 237.529 56.5137 238.896 56.5137C240.264 56.5137 241.376 57.6267 241.376 58.9942C241.376 60.3617 240.264 61.4747 238.896 61.4747ZM238.896 57.1558C237.884 57.1558 237.059 57.981 237.059 58.9942C237.059 60.0074 237.884 60.8325 238.896 60.8325C239.909 60.8325 240.734 60.0074 240.734 58.9942C240.734 57.981 239.909 57.1558 238.896 57.1558Z" fill="#2A77FF"/>
<path d="M94.7221 121.33H44.2578C44.0798 121.33 43.9368 121.187 43.9368 121.009C43.9368 120.831 44.0798 120.688 44.2578 120.688H94.7221C94.9001 120.688 95.0431 120.831 95.0431 121.009C95.0431 121.187 94.9001 121.33 94.7221 121.33Z" fill="#2A77FF"/>
<path d="M121.488 133.424H44.2678C43.9717 133.424 43.7322 133.185 43.7322 132.887C43.7322 132.589 43.9717 132.35 44.2678 132.35H121.488C121.784 132.35 122.023 132.589 122.023 132.887C122.023 133.185 121.784 133.424 121.488 133.424Z" fill="#28293D"/>
<path d="M78.8975 174.507H34.7387C34.5608 174.507 34.4177 174.364 34.4177 174.186C34.4177 174.008 34.5608 173.865 34.7387 173.865H78.8975C79.0755 173.865 79.2185 174.008 79.2185 174.186C79.2185 174.364 79.0755 174.507 78.8975 174.507Z" fill="white"/>
<path d="M58.9648 165.903H34.7456C34.5676 165.903 34.4246 165.76 34.4246 165.582C34.4246 165.404 34.5676 165.261 34.7456 165.261H58.9648C59.1428 165.261 59.2858 165.404 59.2858 165.582C59.2858 165.76 59.1428 165.903 58.9648 165.903Z" fill="white"/>
<path d="M131.12 173.351C131.038 173.351 130.955 173.319 130.892 173.256L123.524 165.886C123.399 165.761 123.399 165.556 123.524 165.431C123.648 165.307 123.853 165.307 123.978 165.431L131.346 172.802C131.471 172.926 131.471 173.131 131.346 173.256C131.283 173.319 131.201 173.351 131.118 173.351H131.12Z" fill="white"/>
<path d="M123.747 173.351C123.665 173.351 123.582 173.319 123.519 173.256C123.394 173.131 123.394 172.926 123.519 172.802L130.887 165.431C131.012 165.307 131.217 165.307 131.341 165.431C131.466 165.556 131.466 165.761 131.341 165.886L123.973 173.256C123.91 173.319 123.828 173.351 123.745 173.351H123.747Z" fill="white"/>
<path d="M206.828 23.1102L206.208 22.9438L207.277 18.951C207.547 17.9461 208.453 17.2524 209.491 17.2524C209.504 17.2524 209.518 17.2524 209.531 17.2524C212.083 17.2574 214.335 15.5455 214.995 13.0816C215.384 11.6259 215.185 10.1069 214.429 8.80263C213.676 7.49998 212.463 6.56999 211.013 6.1807C208.022 5.37881 204.935 7.16891 204.132 10.1685C204.085 10.3399 203.911 10.4413 203.738 10.3964C203.566 10.3498 203.465 10.1735 203.51 10.0021C204.405 6.65983 207.846 4.66676 211.178 5.55849C212.793 5.99104 214.145 7.02917 214.985 8.47822C215.825 9.9306 216.049 11.6242 215.615 13.2446C214.882 15.983 212.387 17.8912 209.544 17.8912C209.528 17.8912 209.511 17.8912 209.494 17.8912C208.744 17.8912 208.092 18.3903 207.898 19.114L206.828 23.1068V23.1102Z" fill="#FF00FF"/>
<path d="M180.648 12.9286L179.981 10.4398C179.726 9.49147 180.109 8.47996 180.932 7.92429C182.361 6.981 183.023 5.23914 182.582 3.59045C182.308 2.5623 181.648 1.70551 180.726 1.1748C179.806 0.644094 178.735 0.504346 177.712 0.778851C176.689 1.05336 175.834 1.70884 175.307 2.62718C174.778 3.54553 174.638 4.61859 174.913 5.64674C174.959 5.81809 174.858 5.99444 174.687 6.03936C174.515 6.08594 174.339 5.9828 174.294 5.8131C173.975 4.61859 174.136 3.37417 174.752 2.3061C175.365 1.23969 176.358 0.476064 177.548 0.158304C178.737 -0.16112 179.981 0.00358331 181.049 0.619139C182.12 1.23636 182.885 2.23289 183.204 3.42574C183.718 5.34228 182.948 7.36364 181.292 8.45833C180.708 8.85262 180.423 9.5996 180.605 10.2734L181.272 12.7622L180.651 12.9286H180.648Z" fill="#FF00FF"/>
<path fill-rule="evenodd" clip-rule="evenodd" d="M205.717 25.9117C206.529 26.1297 207.011 26.9648 206.795 27.7767C206.577 28.5886 205.742 29.071 204.93 28.8531C204.119 28.6351 203.636 27.8 203.853 26.9881C204.071 26.1763 204.906 25.6938 205.717 25.9117Z" fill="#2A77FF"/>
<path fill-rule="evenodd" clip-rule="evenodd" d="M181.503 14.9417C182.09 14.7854 182.692 15.1331 182.849 15.7187C183.005 16.3059 182.657 16.9082 182.072 17.0646C181.485 17.221 180.883 16.8733 180.726 16.2876C180.57 15.702 180.917 15.0981 181.503 14.9417Z" fill="#2A77FF"/>
<path fill-rule="evenodd" clip-rule="evenodd" d="M30.2959 110.926C32.0806 114.16 29.0634 119.34 23.5197 122.543C17.9709 125.747 11.9814 125.767 10.0686 122.606C10.0603 122.593 10.0553 122.581 10.047 122.568C10.0403 122.558 10.0353 122.546 10.027 122.533C8.2473 119.296 11.2579 114.113 16.8049 110.911C22.3487 107.71 28.3449 107.69 30.2543 110.852H30.2577C30.266 110.864 30.271 110.874 30.2776 110.884C30.2859 110.897 30.2909 110.909 30.2993 110.922H30.2959V110.926Z" fill="white"/>
<path d="M15.3813 125.283C12.7566 125.283 10.774 124.393 9.79428 122.772L9.74771 122.692C8.82624 121.019 9.05578 118.838 10.3897 116.547C11.6938 114.307 13.9143 112.208 16.6437 110.631C19.3715 109.055 22.3006 108.182 24.8903 108.172C24.9053 108.172 24.9219 108.172 24.9369 108.172C27.54 108.172 29.511 109.045 30.499 110.637C30.5123 110.652 30.5239 110.669 30.5339 110.686L30.5771 110.761C30.5871 110.779 30.5971 110.799 30.6038 110.819C31.492 112.479 31.2541 114.639 29.9318 116.906C28.6278 119.144 26.4073 121.243 23.6795 122.819C20.95 124.394 18.0209 125.269 15.4312 125.281C15.4146 125.281 15.3979 125.281 15.3813 125.281V125.283ZM24.9452 108.816C22.5601 108.816 19.7009 109.609 16.9647 111.19C11.6023 114.286 8.61667 119.305 10.3066 122.38L10.3465 122.448C12.1578 125.441 17.996 125.363 23.3584 122.265C28.7226 119.167 31.7082 114.151 30.0149 111.082C30.0083 111.072 30.0033 111.06 30 111.048C29.9933 111.038 29.9867 111.028 29.98 111.018C29.0918 109.548 27.2389 108.814 24.9469 108.814L24.9452 108.816Z" fill="#28293D"/>
<path d="M20.1067 123.574C19.5096 123.574 18.9092 123.495 18.317 123.336C16.5439 122.86 15.062 121.724 14.1455 120.133C12.251 116.851 13.3787 112.64 16.6604 110.745C18.2505 109.827 20.1017 109.584 21.8731 110.058C23.6462 110.534 25.1282 111.67 26.0447 113.261C27.9392 116.543 26.8115 120.754 23.5298 122.649C22.4719 123.259 21.296 123.572 20.1051 123.572L20.1067 123.574ZM20.0851 110.467C19.0056 110.467 17.9411 110.75 16.9814 111.304C14.0074 113.021 12.9845 116.839 14.7027 119.814C15.5343 121.254 16.8783 122.286 18.485 122.717C20.0918 123.148 21.77 122.926 23.2104 122.095C26.1844 120.378 27.2073 116.56 25.4891 113.585C24.6575 112.144 23.3136 111.113 21.7068 110.682C21.1696 110.539 20.6257 110.467 20.0851 110.467Z" fill="#28293D"/>
<path d="M15.2767 108.236C15.1652 108.236 15.0571 108.178 14.9989 108.075L10.0456 99.4919C9.95747 99.3389 10.009 99.1426 10.1637 99.0527C10.3184 98.9645 10.513 99.0161 10.6028 99.1708L15.5561 107.754C15.6443 107.907 15.5927 108.103 15.438 108.193C15.3881 108.223 15.3316 108.236 15.2784 108.236H15.2767Z" fill="#2A77FF"/>
<path d="M22.116 104.03C22.0961 104.03 22.0761 104.029 22.0545 104.025C21.8798 103.992 21.7667 103.824 21.8 103.649L23.3269 95.6754C23.3602 95.5007 23.5282 95.3876 23.7028 95.4208C23.8774 95.4541 23.9905 95.6221 23.9573 95.7968L22.4304 103.771C22.4004 103.924 22.2657 104.032 22.116 104.032V104.03Z" fill="#2A77FF"/>
<path d="M8.48868 112.525C8.45375 112.525 8.41882 112.52 8.38389 112.507L0.716104 109.842C0.548111 109.784 0.459957 109.601 0.518172 109.433C0.576387 109.265 0.759349 109.177 0.927342 109.235L8.59513 111.9C8.76312 111.958 8.85127 112.141 8.79306 112.309C8.74649 112.442 8.6234 112.525 8.49034 112.525H8.48868Z" fill="#2A77FF"/>
<path fill-rule="evenodd" clip-rule="evenodd" d="M136.656 96.7662C129.433 96.0991 123.768 90.0068 123.768 82.6035C123.768 74.7476 130.147 68.3691 137.999 68.3691C145.852 68.3691 152.231 74.7493 152.231 82.6035C152.231 89.125 147.828 94.6251 141.843 96.3021L144.674 121.605C144.757 122.378 144.21 123.08 143.437 123.164C142.7 123.247 141.807 123.342 141.068 123.426C140.295 123.51 139.593 122.962 139.51 122.189L136.654 96.7662H136.656ZM137.999 72.7013C143.462 72.7013 147.888 77.14 147.888 82.6035C147.888 88.0669 143.462 92.494 137.999 92.494C132.537 92.494 128.1 88.0669 128.1 82.6035C128.1 77.14 132.537 72.7013 137.999 72.7013Z" fill="white"/>
<path d="M140.914 123.756C140.521 123.756 140.143 123.626 139.832 123.381C139.468 123.094 139.24 122.683 139.192 122.223L136.366 97.0605C132.878 96.6745 129.656 95.0358 127.268 92.4289C124.805 89.7387 123.449 86.25 123.449 82.6033C123.449 74.5777 129.977 68.0479 138.001 68.0479C146.025 68.0479 152.553 74.5777 152.553 82.6033C152.553 89.0067 148.307 94.6964 142.194 96.5348L144.995 121.57C145.045 122.03 144.915 122.481 144.631 122.842C144.343 123.207 143.932 123.435 143.473 123.483C143.107 123.524 142.702 123.569 142.294 123.613C141.885 123.658 141.477 123.702 141.107 123.744C141.042 123.751 140.978 123.754 140.914 123.754V123.756ZM137.999 68.69C130.33 68.69 124.089 74.9321 124.089 82.6033C124.089 86.0886 125.387 89.4243 127.74 91.9947C130.081 94.55 133.256 96.1305 136.685 96.4466C136.837 96.4599 136.958 96.5797 136.975 96.7311L139.831 122.154C139.862 122.441 140.004 122.698 140.232 122.877C140.459 123.057 140.744 123.14 141.037 123.109C141.406 123.067 141.815 123.022 142.224 122.977C142.63 122.932 143.036 122.889 143.402 122.847C143.69 122.816 143.947 122.674 144.125 122.446C144.305 122.218 144.387 121.932 144.355 121.641L141.524 96.3385C141.506 96.1821 141.605 96.0357 141.757 95.9941C147.735 94.3171 151.91 88.8121 151.91 82.6049C151.91 74.9338 145.669 68.6917 137.999 68.6917V68.69ZM137.999 92.8148C132.364 92.8148 127.779 88.2348 127.779 82.6033C127.779 76.9718 132.364 72.38 137.999 72.38C143.635 72.38 148.209 76.9668 148.209 82.6033C148.209 88.2398 143.63 92.8148 137.999 92.8148ZM137.999 73.0222C132.719 73.0222 128.421 77.3195 128.421 82.6033C128.421 87.8871 132.719 92.1727 137.999 92.1727C143.28 92.1727 147.567 87.8804 147.567 82.6033C147.567 77.3261 143.275 73.0222 137.999 73.0222Z" fill="#2A77FF"/>
<path fill-rule="evenodd" clip-rule="evenodd" d="M136.526 100.558C136.526 100.558 134.999 100.967 134.645 102.017C134.302 103.055 134.954 105.264 134.954 105.264C134.954 105.264 133.381 107.064 135.037 109.645C135.037 109.645 134.116 112.004 135.456 114.04C135.456 114.04 134.788 115.168 135.851 116.537C136.913 117.906 140.699 118.37 141.559 116.985C141.992 116.263 141.554 114.797 141.554 114.797C141.554 114.797 142.489 112.939 141.862 111.503C141.862 111.503 142.725 108.646 141.04 107.266C141.04 107.266 141.596 105.193 140.716 103.865L138.785 101.419L136.528 100.559L136.526 100.558Z" fill="white"/>
<path d="M139.358 118.141C138.016 118.141 136.325 117.672 135.594 116.734C134.66 115.529 134.922 114.478 135.089 114.062C133.986 112.237 134.497 110.25 134.681 109.683C133.85 108.312 133.881 107.153 134.061 106.411C134.202 105.823 134.455 105.402 134.6 105.196C134.453 104.654 134.019 102.877 134.337 101.915C134.743 100.714 136.371 100.267 136.439 100.247C136.504 100.23 136.574 100.233 136.637 100.257L138.894 101.117C138.949 101.137 138.996 101.172 139.032 101.218L140.964 103.664C140.964 103.664 140.973 103.677 140.978 103.686C141.772 104.882 141.512 106.574 141.391 107.149C142.856 108.53 142.341 110.926 142.196 111.481C142.71 112.817 142.088 114.386 141.892 114.824C141.998 115.226 142.261 116.431 141.832 117.148C141.471 117.73 140.694 118.078 139.641 118.133C139.548 118.138 139.453 118.139 139.357 118.139L139.358 118.141ZM136.514 100.897C136.2 101 135.197 101.383 134.949 102.118C134.695 102.889 135.089 104.584 135.262 105.171C135.293 105.276 135.268 105.391 135.195 105.474C135.139 105.541 133.808 107.136 135.307 109.468C135.362 109.555 135.373 109.663 135.335 109.76C135.327 109.781 134.493 111.994 135.722 113.862C135.791 113.965 135.792 114.097 135.731 114.203C135.709 114.24 135.195 115.173 136.102 116.339C136.652 117.048 138.222 117.565 139.608 117.492C140.433 117.449 141.043 117.201 141.285 116.814C141.576 116.326 141.354 115.258 141.245 114.887C141.221 114.809 141.228 114.724 141.265 114.651C141.273 114.634 142.123 112.907 141.564 111.63C141.534 111.56 141.529 111.481 141.551 111.408C141.559 111.382 142.329 108.74 140.832 107.512C140.734 107.432 140.692 107.302 140.726 107.181C140.731 107.161 141.228 105.241 140.451 104.052L138.585 101.686L136.513 100.896L136.514 100.897Z" fill="#28293D"/>
<path d="M140.975 107.683C140.924 107.683 140.87 107.674 140.819 107.658L134.843 105.67C134.581 105.583 134.44 105.302 134.528 105.041C134.615 104.78 134.897 104.638 135.157 104.726L141.133 106.715C141.394 106.801 141.536 107.082 141.447 107.343C141.378 107.551 141.185 107.684 140.975 107.684V107.683Z" fill="#28293D"/>
<path d="M141.601 112.045C141.554 112.045 141.507 112.038 141.461 112.023L135.095 110.08C134.841 110.002 134.698 109.734 134.776 109.479C134.854 109.225 135.122 109.082 135.376 109.16L141.742 111.103C141.996 111.181 142.139 111.449 142.061 111.704C141.998 111.912 141.807 112.045 141.602 112.045H141.601Z" fill="#28293D"/>
<path d="M141.427 115.145C141.411 115.145 141.392 115.145 141.376 115.142L135.506 114.197C135.331 114.168 135.212 114.004 135.24 113.829C135.268 113.654 135.433 113.534 135.608 113.563L141.477 114.508C141.652 114.536 141.772 114.701 141.743 114.875C141.719 115.033 141.582 115.145 141.427 115.145Z" fill="#28293D"/>
<path fill-rule="evenodd" clip-rule="evenodd" d="M152.72 111.668C152.72 111.668 148.21 105.396 146.818 103.015C145.426 100.634 140.262 98.8143 138.394 98.0041C136.526 97.1939 135.764 101.92 141.261 102.884L143.046 106.823L144.558 119.951L146.402 120.879L152.721 111.668H152.72Z" fill="white"/>
<path d="M146.401 121.201C146.353 121.201 146.303 121.189 146.256 121.166L144.412 120.237C144.254 120.158 144.189 119.965 144.268 119.806C144.348 119.648 144.541 119.584 144.699 119.663L146.293 120.465L152.325 111.671C151.559 110.601 147.806 105.343 146.539 103.176C145.393 101.218 141.371 99.5746 139.21 98.6912C138.844 98.5415 138.522 98.4101 138.264 98.2986C138.021 98.1938 137.813 98.2138 137.645 98.3585C137.394 98.5781 137.213 99.1338 137.409 99.8392C137.589 100.485 138.329 102.044 141.314 102.568C141.419 102.586 141.507 102.654 141.551 102.751L143.335 106.69C143.409 106.852 143.335 107.041 143.176 107.114C143.014 107.188 142.823 107.114 142.752 106.955L141.037 103.168C137.83 102.551 137 100.761 136.792 100.011C136.552 99.1504 136.722 98.3119 137.224 97.8727C137.579 97.5649 138.051 97.5034 138.52 97.708C138.776 97.8195 139.094 97.9492 139.455 98.0956C141.843 99.0706 145.839 100.704 147.094 102.85C148.463 105.191 152.934 111.415 152.979 111.478C153.059 111.588 153.061 111.736 152.982 111.847L146.664 121.059C146.602 121.149 146.502 121.199 146.399 121.199L146.401 121.201Z" fill="#28293D"/>
<path d="M147.781 111.881C147.733 111.881 147.685 111.871 147.64 111.847C144.473 110.282 143.009 107.35 142.948 107.226C142.87 107.066 142.936 106.875 143.094 106.796C143.254 106.718 143.445 106.785 143.523 106.943C143.537 106.971 144.957 109.806 147.923 111.272C148.082 111.35 148.147 111.543 148.069 111.703C148.013 111.816 147.899 111.882 147.781 111.882V111.881Z" fill="#28293D"/>
<path fill-rule="evenodd" clip-rule="evenodd" d="M169.996 120.902C169.996 120.902 161.429 112.952 157.681 112.917C157.681 112.917 154.85 111.501 153.362 110.751C152.838 110.489 152.196 110.607 151.803 111.048C150.363 112.667 146.985 116.713 145.378 120.832C145.235 121.19 145.271 121.581 145.449 121.915C145.937 122.809 147.031 124.652 148.305 126.213C148.305 126.213 147.211 129.427 155.206 136.71C163.202 143.994 173.591 152.635 182.895 154.838L178.398 125.106L169.996 120.906V120.902Z" fill="#2A77FF"/>
<path d="M150.163 124.845C150.115 124.845 150.067 124.835 150.02 124.812C149.862 124.734 149.796 124.541 149.875 124.381C151.675 120.753 153.936 117.412 156.595 114.452C156.713 114.321 156.916 114.309 157.049 114.427C157.181 114.545 157.192 114.748 157.074 114.881C154.453 117.798 152.226 121.09 150.453 124.666C150.396 124.779 150.283 124.844 150.165 124.844L150.163 124.845Z" fill="#28293D"/>
<path fill-rule="evenodd" clip-rule="evenodd" d="M153.364 62.8877C153.364 62.8877 156.352 70.1945 158.886 73.0693C158.886 73.0693 158.799 81.2279 163.411 78.0903C163.411 78.0903 171.264 88.5797 180.557 79.5809L190.209 93.1065L206.96 77.7459L195.859 64.3717L179.338 48.9961L159.662 49.625L153.364 62.8877Z" fill="white"/>
<path d="M190.209 93.4279C190.197 93.4279 190.187 93.4279 190.176 93.4263C190.084 93.4163 190.001 93.368 189.948 93.2932L180.51 80.0687C177.801 82.5925 174.946 83.7537 172.021 83.5208C167.428 83.1548 164.147 79.503 163.342 78.5198C162.27 79.1803 161.341 79.3067 160.571 78.8941C158.699 77.891 158.571 73.9581 158.565 73.1911C156.043 70.2531 153.187 63.3073 153.066 63.0111C153.031 62.928 153.034 62.8331 153.072 62.7516L159.371 49.4889C159.423 49.3807 159.531 49.3092 159.651 49.3059L179.326 48.677C179.409 48.6737 179.492 48.7053 179.555 48.7635L196.077 64.1391C196.087 64.1491 196.097 64.1591 196.105 64.169L207.206 77.5432C207.316 77.6747 207.302 77.8693 207.176 77.9858L190.425 93.3464C190.365 93.4013 190.289 93.4312 190.209 93.4312V93.4279ZM180.557 79.2602C180.567 79.2602 180.577 79.2602 180.585 79.2602C180.678 79.2685 180.763 79.3167 180.818 79.3932L190.259 92.6227L206.517 77.7129L195.624 64.59L179.214 49.3192L159.867 49.9381L153.714 62.8947C154.13 63.8879 156.841 70.2631 159.127 72.855C159.18 72.9149 159.208 72.9915 159.207 73.0713C159.195 74.2775 159.471 77.5732 160.873 78.3252C161.474 78.6463 162.265 78.4782 163.23 77.8227C163.372 77.7263 163.564 77.7579 163.668 77.8959C163.703 77.9425 167.167 82.4893 172.074 82.877C174.901 83.1016 177.683 81.9137 180.332 79.3467C180.392 79.2884 180.472 79.2568 180.555 79.2568L180.557 79.2602Z" fill="#28293D"/>
<path d="M177.047 61.659C177.009 61.659 176.969 61.6523 176.931 61.6373C176.766 61.5725 176.684 61.3861 176.749 61.2214C178.17 57.5846 180.251 55.4718 180.339 55.3836C180.463 55.2588 180.666 55.2588 180.793 55.3836C180.918 55.5084 180.919 55.7114 180.793 55.8378C180.773 55.8578 178.717 57.949 177.346 61.456C177.297 61.5824 177.175 61.6606 177.047 61.6606V61.659Z" fill="#28293D"/>
<path d="M181.209 59.877C181.182 59.877 181.155 59.8736 181.13 59.867C181.112 59.862 179.321 59.4128 178.116 59.4078C177.939 59.4078 177.797 59.2631 177.797 59.085C177.797 58.9087 177.942 58.7656 178.118 58.7656C179.402 58.7723 181.21 59.2248 181.287 59.2448C181.458 59.288 181.563 59.4627 181.52 59.6341C181.483 59.7788 181.352 59.877 181.209 59.877Z" fill="#28293D"/>
<path fill-rule="evenodd" clip-rule="evenodd" d="M161.858 66.9011C162.593 66.555 163.469 66.8711 163.815 67.6064C164.161 68.3418 163.845 69.2185 163.11 69.5646C162.375 69.9106 161.498 69.5945 161.152 68.8592C160.807 68.1238 161.123 67.2471 161.858 66.9011Z" fill="#28293D"/>
<path fill-rule="evenodd" clip-rule="evenodd" d="M173.454 55.7294C173.454 55.7294 179.603 77.6598 178.897 78.4617C178.15 79.3052 169.926 56.7858 169.926 56.7858C169.037 57.1735 168.082 57.5295 166.991 57.8323L162.317 50.4489L164.371 58.9003C164.371 58.9003 158.564 62.444 151.861 64.9478C151.861 64.9478 140.914 47.3229 155.614 34.6874C170.314 22.0518 200.662 21.0503 201.343 60.6322L193.224 67.7244C193.224 67.7244 186.786 68.0239 181.315 63.552C181.315 63.552 182.859 62.7967 183.971 60.9733C184.783 59.6507 184.936 57.3082 183.293 55.0456C179.392 49.6454 173.453 55.7294 173.453 55.7294H173.454Z" fill="#28293D"/>
<path d="M158.877 66.1491C158.867 66.1491 158.857 66.1491 158.846 66.1491C158.669 66.1325 158.54 65.9744 158.558 65.7981C158.659 64.7566 159.632 63.4956 160.873 62.7985C162.229 62.0365 163.751 61.9933 165.159 62.6737C165.319 62.7502 165.386 62.9432 165.309 63.1029C165.233 63.2626 165.04 63.3292 164.88 63.2527C163.325 62.5007 162.014 62.895 161.188 63.3591C159.988 64.0329 159.266 65.1509 159.198 65.8596C159.182 66.026 159.042 66.1491 158.879 66.1491H158.877Z" fill="#28293D"/>
<path d="M179.382 65.171C179.246 65.171 179.12 65.0828 179.076 64.9447C179.023 64.775 179.118 64.5954 179.288 64.5421C182.694 63.4824 183.847 61.4727 183.858 61.4527C183.945 61.298 184.139 61.2431 184.294 61.3279C184.449 61.4144 184.505 61.6074 184.42 61.7621C184.371 61.8536 183.15 64.0114 179.479 65.1543C179.447 65.1643 179.416 65.1693 179.384 65.1693L179.382 65.171Z" fill="#28293D"/>
<path d="M197.691 69.713L182.867 85.2773L188.309 90.4629L203.133 74.8986L197.691 69.713Z" fill="white"/>
<path d="M188.314 90.795C188.231 90.795 188.153 90.7633 188.093 90.7068L182.651 85.5211C182.523 85.398 182.518 85.1951 182.639 85.067L197.464 69.5034C197.522 69.4418 197.604 69.4052 197.689 69.4035C197.775 69.4002 197.857 69.4335 197.918 69.4917L203.36 74.6774C203.489 74.8005 203.493 75.0034 203.372 75.1315L188.547 90.6951C188.489 90.7567 188.407 90.7933 188.323 90.795C188.319 90.795 188.318 90.795 188.314 90.795ZM183.326 85.2766L188.303 90.0197L202.683 74.9219L197.707 70.1788L183.326 85.2766Z" fill="#28293D"/>
<path fill-rule="evenodd" clip-rule="evenodd" d="M185.894 82.0771C183.883 80.1606 180.695 80.2471 178.785 82.2518C176.408 84.7473 173.271 88.0414 170.895 90.5369C168.985 92.5416 169.052 95.7308 171.064 97.6474C172.701 99.2062 174.63 101.046 176.267 102.605C178.27 104.513 181.466 104.435 183.376 102.429L191.267 94.1437C193.176 92.139 193.1 88.9414 191.097 87.0332C189.46 85.4743 187.531 83.6343 185.894 82.0755V82.0771Z" fill="white"/>
<path d="M179.728 104.312C178.403 104.312 177.075 103.823 176.042 102.839L170.84 97.8817C168.706 95.847 168.624 92.4531 170.66 90.317L178.551 82.0319C180.587 79.8958 183.98 79.8109 186.114 81.8456L191.316 86.8033C193.45 88.838 193.532 92.2318 191.496 94.368L183.605 102.653C182.554 103.756 181.142 104.312 179.728 104.312ZM182.428 81.0138C181.184 81.0138 179.941 81.5029 179.016 82.4745L171.126 90.7595C169.334 92.6394 169.406 95.6257 171.284 97.4158L176.487 102.374C178.364 104.164 181.35 104.09 183.141 102.209L191.032 93.9238C192.823 92.0439 192.752 89.0576 190.874 87.2675L185.671 82.3098C184.763 81.4446 183.594 81.0138 182.428 81.0138Z" fill="#28293D"/>
<path fill-rule="evenodd" clip-rule="evenodd" d="M202.901 61.2411C202.223 60.4575 201.048 60.381 200.273 61.0531C198.469 62.6186 195.367 65.3054 193.572 66.8626C192.797 67.5347 192.705 68.7076 193.386 69.4912C194.054 70.2631 195.227 70.3397 196.004 69.6675C197.798 68.112 200.899 65.4235 202.705 63.858C203.48 63.1859 203.572 62.013 202.903 61.2411H202.901Z" fill="white"/>
<path d="M194.781 70.4462C194.731 70.4462 194.683 70.4462 194.633 70.4412C194.053 70.4029 193.524 70.1401 193.143 69.7025C192.354 68.7925 192.452 67.41 193.362 66.6214L200.064 60.8119C200.974 60.0233 202.356 60.1215 203.144 61.0331C203.928 61.9365 203.824 63.314 202.915 64.1026L196.213 69.9121C195.811 70.2615 195.307 70.4478 194.781 70.4478V70.4462ZM201.492 60.92C201.135 60.92 200.776 61.0431 200.485 61.296L193.783 67.1055C193.141 67.6629 193.071 68.6378 193.628 69.2816C193.895 69.5894 194.267 69.774 194.676 69.8007C195.085 69.8273 195.483 69.6942 195.794 69.4247L202.495 63.6152C203.137 63.0578 203.212 62.0879 202.662 61.4524C202.357 61.1014 201.927 60.92 201.496 60.92H201.492Z" fill="#28293D"/>
<path d="M167.814 78.5033C167.679 78.5033 167.555 78.4184 167.51 78.2837C167.453 78.1157 167.545 77.9327 167.713 77.8778C169.012 77.4452 170.332 77.2689 171.641 77.3537C171.818 77.3653 171.952 77.5184 171.941 77.6948C171.929 77.8711 171.779 78.0059 171.6 77.9942C170.376 77.9144 169.136 78.0791 167.916 78.4867C167.882 78.4983 167.847 78.5033 167.814 78.5033Z" fill="#28293D"/>
<path fill-rule="evenodd" clip-rule="evenodd" d="M195.501 69.7728C195.501 69.7728 192.321 82.3069 204.521 94.4949L219.792 82.6779L217.607 78.928L221.299 80.9127L226.909 76.7852C226.909 76.7852 219.27 61.6608 202.57 63.5524L195.501 69.7745V69.7728Z" fill="#28293D"/>
<path fill-rule="evenodd" clip-rule="evenodd" d="M179.337 99.8598C179.337 99.8598 178.409 90.1124 174.59 83.5659C174.59 83.5659 167.927 82.3996 159.847 86.0181C159.847 86.0181 156.61 91.2903 162.274 94.8722C162.274 94.8722 163.869 97.3959 167.212 98.8117L168.152 102.645L174.589 107.215L179.336 99.8598H179.337Z" fill="white"/>
<path d="M174.59 107.536C174.524 107.536 174.459 107.516 174.404 107.476L167.967 102.906C167.904 102.861 167.859 102.797 167.841 102.722L166.939 99.045C163.892 97.7057 162.317 95.513 162.044 95.1071C159.039 93.1789 158.52 90.7699 158.616 89.0846C158.721 87.2596 159.539 85.907 159.574 85.8505C159.607 85.7956 159.657 85.7523 159.717 85.7257C167.792 82.1089 174.579 83.2385 174.647 83.2502C174.74 83.2668 174.822 83.3234 174.868 83.4049C178.679 89.9364 179.648 99.7321 179.658 99.8302C179.665 99.9018 179.648 99.9733 179.608 100.035L174.861 107.39C174.813 107.463 174.738 107.515 174.652 107.531C174.632 107.535 174.612 107.536 174.592 107.536H174.59ZM168.436 102.452L174.502 106.759L179.006 99.7803C178.89 98.6973 177.852 89.8965 174.389 83.8607C173.381 83.7243 167.272 83.0738 160.071 86.2697C159.686 86.9568 157.437 91.4337 162.445 94.6013C162.485 94.6263 162.52 94.6612 162.545 94.7012C162.56 94.7244 164.133 97.1601 167.337 98.5159C167.43 98.5559 167.5 98.6374 167.523 98.7355L168.434 102.452H168.436Z" fill="#28293D"/>
<path d="M163.217 96.2482C163.085 96.2482 162.962 96.1667 162.916 96.0369C162.355 94.4947 161.987 92.8277 161.824 91.0842C161.808 90.9079 161.938 90.7515 162.114 90.7348C162.293 90.7182 162.447 90.848 162.463 91.0243C162.621 92.7129 162.975 94.3267 163.518 95.8173C163.579 95.9837 163.493 96.1684 163.326 96.2283C163.29 96.2416 163.253 96.2482 163.217 96.2482Z" fill="#28293D"/>
<path fill-rule="evenodd" clip-rule="evenodd" d="M189.63 114.046C191.451 118.688 193.402 124.269 193.402 124.269L201.005 100.489C201.005 100.489 206.597 92.0859 216.342 95.8358C226.088 99.5857 226.992 113.035 223.185 121.092C219.378 129.149 208.109 160.201 196.02 163.485C183.943 166.771 179.575 156.987 175.577 144.907C175.577 144.907 162.225 114.7 167.748 110.451C167.748 110.451 166.903 106.869 166.891 103.87C166.903 103.168 167.343 102.56 168.009 102.334C170.352 101.549 176.004 99.6689 178.956 98.9069C179.599 98.7638 180.254 99.0267 180.611 99.574C181.551 100.99 183.301 103.717 183.991 105.322C183.991 105.322 185.575 105.322 187.466 108.987C188.05 110.118 188.835 111.987 189.631 114.045" fill="#2A77FF"/>
<path d="M196.02 163.808C195.879 163.808 195.749 163.713 195.711 163.57C195.664 163.399 195.766 163.222 195.937 163.176C200.257 162.001 205.022 156.95 210.102 148.163C214.4 140.726 218.119 132.014 220.579 126.249C221.5 124.088 222.297 122.221 222.897 120.954C225.361 115.743 225.633 108.795 223.579 103.665C222.122 100.028 219.581 97.4243 216.231 96.1349C212.297 94.621 208.59 94.9171 205.213 97.015C202.861 98.4757 201.494 100.352 201.299 100.632L193.71 124.366C193.668 124.497 193.547 124.587 193.409 124.589C193.274 124.589 193.148 124.504 193.101 124.374C193.083 124.324 191.333 119.328 189.63 114.909C189.567 114.743 189.648 114.558 189.814 114.493C189.979 114.43 190.165 114.512 190.23 114.678C191.506 117.986 192.807 121.614 193.39 123.261L200.702 100.391C200.711 100.362 200.724 100.336 200.741 100.311C200.799 100.223 202.208 98.133 204.852 96.4843C207.301 94.9571 211.304 93.5529 216.46 95.536C219.982 96.8903 222.649 99.6187 224.175 103.427C226.292 108.712 226.011 115.866 223.478 121.23C222.884 122.486 222.089 124.347 221.169 126.502C216.026 138.553 206.451 160.985 196.105 163.796C196.077 163.805 196.048 163.808 196.02 163.808Z" fill="#28293D"/>
<path d="M175.578 145.23C175.455 145.23 175.337 145.159 175.284 145.039C175.231 144.919 169.96 132.951 167.436 123.113C167.392 122.942 167.496 122.766 167.668 122.722C167.839 122.677 168.014 122.782 168.059 122.954C170.568 132.739 175.818 144.659 175.871 144.779C175.943 144.942 175.871 145.132 175.708 145.203C175.666 145.222 175.621 145.232 175.578 145.232V145.23Z" fill="#28293D"/>
<path d="M198.532 143.955C198.532 143.955 198.517 143.955 198.508 143.955C198.332 143.944 198.197 143.789 198.211 143.613C198.412 140.736 197.612 136.482 195.899 131.31C194.598 127.385 193.218 124.289 193.204 124.259C193.131 124.098 193.204 123.907 193.366 123.835C193.529 123.762 193.718 123.835 193.79 123.996C193.803 124.028 195.195 127.149 196.506 131.102C198.272 136.429 199.061 140.653 198.851 143.658C198.839 143.827 198.698 143.957 198.532 143.957V143.955Z" fill="#28293D"/>
<path d="M170.227 110.002C170.101 110.002 169.98 109.925 169.93 109.8C169.863 109.636 169.943 109.449 170.108 109.383C173.905 107.849 177.486 106.633 181.057 105.663C181.228 105.616 181.405 105.718 181.451 105.889C181.498 106.06 181.396 106.237 181.225 106.283C177.679 107.246 174.121 108.456 170.349 109.98C170.309 109.997 170.269 110.003 170.229 110.003L170.227 110.002Z" fill="#28293D"/>
<path d="M277.179 206.001H94.2165C94.0385 206.001 93.8955 205.858 93.8955 205.679C93.8955 205.501 94.0385 205.358 94.2165 205.358H277.179C277.357 205.358 277.5 205.501 277.5 205.679C277.5 205.858 277.357 206.001 277.179 206.001Z" fill="#28293D"/>
<g clip-path="url(#clip1_624_959)">
<path d="M66.7558 105.739L58.5239 90.6127C57.9026 89.5688 56.8053 88.9453 55.5887 88.9453C54.3721 88.9453 53.2748 89.5688 52.6535 90.6127C52.6488 90.6207 52.6448 90.6287 52.6402 90.6367L44.4356 105.715C43.801 106.781 43.789 108.061 44.4029 109.139C45.0183 110.217 46.1269 110.861 47.3702 110.861H63.7618C65.005 110.861 66.1592 110.217 66.7745 109.139C67.3884 108.061 67.3765 106.781 66.7558 105.739ZM54.2234 95.8712C54.2234 95.1186 54.8347 94.5085 55.5887 94.5085C56.3427 94.5085 56.954 95.1186 56.954 95.8712V101.322C56.954 102.074 56.3427 102.685 55.5887 102.685C54.8347 102.685 54.2234 102.074 54.2234 101.322V95.8712ZM55.5887 108.135C54.4594 108.135 53.5407 107.218 53.5407 106.091C53.5407 104.964 54.4594 104.047 55.5887 104.047C56.718 104.047 57.6366 104.964 57.6366 106.091C57.6366 107.218 56.718 108.135 55.5887 108.135Z" fill="#F54336"/>
</g>
</g>
<defs>
<clipPath id="clip0_624_959">
<rect width="277" height="206" fill="white" transform="translate(0.5)"/>
</clipPath>
<clipPath id="clip1_624_959">
<rect width="23.2773" height="23.2331" fill="white" transform="translate(43.9509 88.2861)"/>
</clipPath>
</defs>
</svg>
